<svg width="12" height="12" viewBox="0 0 12 12" fill="none" xmlns="http://www.w3.org/2000/svg">
<path fill-rule="evenodd" clip-rule="evenodd" d="M11.2193 0.703229C11.7284 1.16952 11.7631 1.96021 11.2968 2.4693C9.85542 4.04296 9.16234 5.0024 8.12127 6.86523C7.7282 7.56855 7.29288 8.54396 6.9459 9.37374C6.775 9.78244 6.63014 10.1447 6.52812 10.4044C6.47716 10.5341 6.43703 10.638 6.40983 10.7089L6.37903 10.7895L6.37142 10.8096L6.36966 10.8142C6.21451 11.2265 5.85346 11.5277 5.41992 11.6054C4.98635 11.6831 4.54388 11.5269 4.25521 11.1942L0.680866 7.07461C0.228439 6.55317 0.284386 5.76369 0.805828 5.31127C1.32727 4.85884 2.11675 4.91479 2.56917 5.43623L4.80641 8.01474C5.13661 7.2442 5.54293 6.35422 5.93895 5.64561C7.07442 3.61387 7.88118 2.49707 9.45324 0.780718C9.91953 0.271634 10.7102 0.236941 11.2193 0.703229Z" fill="white"/>
</svg>
