<svg width="20" height="23" viewBox="0 0 20 23" fill="none" xmlns="http://www.w3.org/2000/svg">
<path d="M19.114 17.924C18.7661 18.7275 18.3544 19.4672 17.8774 20.1472C17.2272 21.0743 16.6948 21.716 16.2845 22.0724C15.6484 22.6573 14.967 22.9568 14.2373 22.9739C13.7134 22.9739 13.0816 22.8248 12.3462 22.5224C11.6084 22.2214 10.9303 22.0724 10.3103 22.0724C9.66011 22.0724 8.96275 22.2214 8.21684 22.5224C7.46978 22.8248 6.86797 22.9824 6.40784 22.998C5.70807 23.0278 5.01056 22.7197 4.31434 22.0724C3.86997 21.6848 3.31415 21.0204 2.64831 20.0791C1.93391 19.0739 1.34658 17.9084 0.886448 16.5795C0.393666 15.1442 0.146637 13.7543 0.146637 12.4087C0.146637 10.8673 0.479701 9.53789 1.14682 8.42385C1.67112 7.529 2.36862 6.82312 3.2416 6.30493C4.11458 5.78674 5.05784 5.52267 6.07364 5.50578C6.62946 5.50578 7.35834 5.6777 8.26411 6.01559C9.16733 6.35462 9.74728 6.52655 10.0016 6.52655C10.1917 6.52655 10.8359 6.32552 11.9281 5.92473C12.9609 5.55305 13.8326 5.39916 14.5468 5.45978C16.4818 5.61595 17.9356 6.37876 18.9024 7.75303C17.1718 8.80163 16.3157 10.2703 16.3327 12.1544C16.3484 13.622 16.8808 14.8432 17.9271 15.8129C18.4013 16.2629 18.9308 16.6107 19.52 16.8578C19.3922 17.2283 19.2574 17.5832 19.114 17.924ZM14.6759 0.460131C14.6759 1.61039 14.2557 2.68439 13.4181 3.67847C12.4073 4.86023 11.1846 5.54311 9.85873 5.43536C9.84184 5.29736 9.83204 5.15213 9.83204 4.99951C9.83204 3.89526 10.3128 2.71349 11.1664 1.74724C11.5926 1.25801 12.1347 0.851218 12.792 0.526714C13.4479 0.207053 14.0683 0.0302728 14.6518 0C14.6688 0.153772 14.6759 0.307554 14.6759 0.460116V0.460131Z" fill="black"/>
</svg>
