<svg width="32" height="32" viewBox="0 0 32 32" fill="none" xmlns="http://www.w3.org/2000/svg">
<rect width="32" height="32" rx="10" fill="#D72828"/>
<g clip-path="url(#clip0_253_14829)">
<path fill-rule="evenodd" clip-rule="evenodd" d="M15.167 7.6665C14.0619 7.6665 13.0021 8.10549 12.2207 8.88689C11.4393 9.66829 11.0003 10.7281 11.0003 11.8332C11.0003 12.9382 11.4393 13.998 12.2207 14.7794C13.0021 15.5609 14.0619 15.9998 15.167 15.9998C16.2721 15.9998 17.3319 15.5609 18.1133 14.7794C18.8947 13.998 19.3337 12.9382 19.3337 11.8332C19.3337 10.7281 18.8947 9.66829 18.1133 8.88689C17.3319 8.10549 16.2721 7.6665 15.167 7.6665ZM15.167 16.8332C13.1712 16.8332 11.3545 17.4115 10.0187 18.2265C9.35199 18.6332 8.78199 19.1132 8.37033 19.6348C7.96533 20.1465 7.66699 20.7607 7.66699 21.4165C7.66699 22.1207 8.00949 22.6757 8.50283 23.0715C8.96949 23.4465 9.58533 23.6948 10.2395 23.8682C11.5545 24.2157 13.3095 24.3332 15.167 24.3332C15.3587 24.3332 15.5503 24.3315 15.7378 24.329C15.8774 24.3271 16.0142 24.2901 16.1358 24.2216C16.2574 24.153 16.3598 24.055 16.4336 23.9365C16.5074 23.8181 16.5503 23.683 16.5583 23.5436C16.5664 23.4043 16.5392 23.2651 16.4795 23.139C16.1628 22.4704 15.9991 21.7396 16.0003 20.9998C16.0003 19.9565 16.3195 18.9898 16.8645 18.189C16.9455 18.07 16.9943 17.932 17.0061 17.7886C17.018 17.6451 16.9924 17.501 16.932 17.3703C16.8716 17.2396 16.7783 17.1269 16.6613 17.0429C16.5444 16.959 16.4076 16.9069 16.2645 16.8915C15.9062 16.8532 15.5395 16.8332 15.167 16.8332ZM21.7203 17.664C21.647 17.5381 21.5419 17.4337 21.4155 17.3611C21.2892 17.2885 21.146 17.2502 21.0003 17.2502C20.8546 17.2502 20.7115 17.2885 20.5851 17.3611C20.4588 17.4337 20.3537 17.5381 20.2803 17.664L19.522 18.9657L18.0503 19.284C17.9078 19.3148 17.7759 19.3825 17.6678 19.4802C17.5596 19.578 17.479 19.7024 17.4339 19.8411C17.3889 19.9797 17.381 20.1278 17.4111 20.2704C17.4412 20.4131 17.5081 20.5453 17.6053 20.654L18.6087 21.7773L18.457 23.2757C18.4423 23.4207 18.4659 23.567 18.5254 23.7C18.5849 23.833 18.6783 23.9481 18.7962 24.0338C18.9141 24.1195 19.0524 24.1728 19.1973 24.1883C19.3422 24.2038 19.4886 24.1811 19.622 24.1223L21.0003 23.514L22.3787 24.1223C22.512 24.1811 22.6585 24.2038 22.8034 24.1883C22.9483 24.1728 23.0866 24.1195 23.2045 24.0338C23.3224 23.9481 23.4157 23.833 23.4753 23.7C23.5348 23.567 23.5584 23.4207 23.5437 23.2757L23.392 21.7765L24.3953 20.654C24.4925 20.5453 24.5595 20.4131 24.5896 20.2704C24.6196 20.1278 24.6118 19.9797 24.5667 19.8411C24.5217 19.7024 24.4411 19.578 24.3329 19.4802C24.2247 19.3825 24.0928 19.3148 23.9503 19.284L22.4787 18.9657L21.7203 17.664Z" fill="white"/>
</g>
<defs>
<clipPath id="clip0_253_14829">
<rect width="20" height="20" fill="white" transform="translate(6 6)"/>
</clipPath>
</defs>
</svg>
