<svg width="19" height="18" viewBox="0 0 19 18" fill="none" xmlns="http://www.w3.org/2000/svg">
<path fill-rule="evenodd" clip-rule="evenodd" d="M13.5 0C13.7652 0 14.0196 0.105357 14.2071 0.292893C14.3946 0.48043 14.5 0.734784 14.5 1V2H16.5C17.0304 2 17.5391 2.21071 17.9142 2.58579C18.2893 2.96086 18.5 3.46957 18.5 4V9.528C17.3569 8.50619 15.866 7.96074 14.3334 8.00363C12.8008 8.04652 11.3428 8.6745 10.2586 9.75864C9.1745 10.8428 8.54652 12.3008 8.50363 13.8334C8.46074 15.366 9.00619 16.8569 10.028 18H2.5C1.96957 18 1.46086 17.7893 1.08579 17.4142C0.710714 17.0391 0.5 16.5304 0.5 16V4C0.5 3.46957 0.710714 2.96086 1.08579 2.58579C1.46086 2.21071 1.96957 2 2.5 2H4.5V1C4.5 0.734784 4.60536 0.48043 4.79289 0.292893C4.98043 0.105357 5.23478 0 5.5 0C5.76522 0 6.01957 0.105357 6.20711 0.292893C6.39464 0.48043 6.5 0.734784 6.5 1V2H12.5V1C12.5 0.734784 12.6054 0.48043 12.7929 0.292893C12.9804 0.105357 13.2348 0 13.5 0ZM14.5 10C15.5609 10 16.5783 10.4214 17.3284 11.1716C18.0786 11.9217 18.5 12.9391 18.5 14C18.5 15.0609 18.0786 16.0783 17.3284 16.8284C16.5783 17.5786 15.5609 18 14.5 18C13.4391 18 12.4217 17.5786 11.6716 16.8284C10.9214 16.0783 10.5 15.0609 10.5 14C10.5 12.9391 10.9214 11.9217 11.6716 11.1716C12.4217 10.4214 13.4391 10 14.5 10ZM14.5 11.5C14.2551 11.5 14.0187 11.59 13.8356 11.7527C13.6526 11.9155 13.5357 12.1397 13.507 12.383L13.5 12.5V14C13.5 14.2449 13.59 14.4813 13.7527 14.6644C13.9155 14.8474 14.1397 14.9643 14.383 14.993L14.5 15H15.5C15.7549 14.9997 16 14.9021 16.1854 14.7272C16.3707 14.5522 16.4822 14.313 16.4972 14.0586C16.5121 13.8042 16.4293 13.5536 16.2657 13.3582C16.1021 13.1627 15.8701 13.0371 15.617 13.007L15.5 13V12.5C15.5 12.2348 15.3946 11.9804 15.2071 11.7929C15.0196 11.6054 14.7652 11.5 14.5 11.5ZM6 11H5.5C5.23478 11 4.98043 11.1054 4.79289 11.2929C4.60536 11.4804 4.5 11.7348 4.5 12C4.5 12.2652 4.60536 12.5196 4.79289 12.7071C4.98043 12.8946 5.23478 13 5.5 13H6C6.26522 13 6.51957 12.8946 6.70711 12.7071C6.89464 12.5196 7 12.2652 7 12C7 11.7348 6.89464 11.4804 6.70711 11.2929C6.51957 11.1054 6.26522 11 6 11ZM8.5 7H5.5C5.24512 7.00028 4.99997 7.09788 4.81463 7.27285C4.6293 7.44782 4.51777 7.68695 4.50283 7.94139C4.48789 8.19584 4.57067 8.44638 4.73426 8.64183C4.89786 8.83729 5.1299 8.9629 5.383 8.993L5.5 9H8.5C8.75488 8.99972 9.00003 8.90212 9.18537 8.72715C9.3707 8.55218 9.48223 8.31305 9.49717 8.05861C9.51211 7.80416 9.42933 7.55362 9.26574 7.35817C9.10215 7.16271 8.8701 7.0371 8.617 7.007L8.5 7Z" fill="#2F6FED"/>
</svg>
