<svg width="20" height="19" viewBox="0 0 20 19" fill="none" xmlns="http://www.w3.org/2000/svg">
<path d="M14.5 9C15.8261 9 17.0979 9.52678 18.0355 10.4645C18.9732 11.4021 19.5 12.6739 19.5 14C19.5 15.3261 18.9732 16.5979 18.0355 17.5355C17.0979 18.4732 15.8261 19 14.5 19C13.1739 19 11.9021 18.4732 10.9645 17.5355C10.0268 16.5979 9.5 15.3261 9.5 14C9.5 12.6739 10.0268 11.4021 10.9645 10.4645C11.9021 9.52678 13.1739 9 14.5 9ZM13.5 0C13.7652 0 14.0196 0.105357 14.2071 0.292893C14.3946 0.48043 14.5 0.734784 14.5 1V2H16.5C17.0304 2 17.5391 2.21071 17.9142 2.58579C18.2893 2.96086 18.5 3.46957 18.5 4V7H16.5V4H2.5V16H7.5V18H2.5C1.96957 18 1.46086 17.7893 1.08579 17.4142C0.710714 17.0391 0.5 16.5304 0.5 16V4C0.5 3.46957 0.710714 2.96086 1.08579 2.58579C1.46086 2.21071 1.96957 2 2.5 2H4.5V1C4.5 0.734784 4.60536 0.48043 4.79289 0.292893C4.98043 0.105357 5.23478 0 5.5 0C5.76522 0 6.01957 0.105357 6.20711 0.292893C6.39464 0.48043 6.5 0.734784 6.5 1V2H12.5V1C12.5 0.734784 12.6054 0.48043 12.7929 0.292893C12.9804 0.105357 13.2348 0 13.5 0ZM14.5 11C13.7044 11 12.9413 11.3161 12.3787 11.8787C11.8161 12.4413 11.5 13.2044 11.5 14C11.5 14.7956 11.8161 15.5587 12.3787 16.1213C12.9413 16.6839 13.7044 17 14.5 17C15.2956 17 16.0587 16.6839 16.6213 16.1213C17.1839 15.5587 17.5 14.7956 17.5 14C17.5 13.2044 17.1839 12.4413 16.6213 11.8787C16.0587 11.3161 15.2956 11 14.5 11ZM14.5 11.5C14.7652 11.5 15.0196 11.6054 15.2071 11.7929C15.3946 11.9804 15.5 12.2348 15.5 12.5V13C15.7652 13 16.0196 13.1054 16.2071 13.2929C16.3946 13.4804 16.5 13.7348 16.5 14C16.5 14.2652 16.3946 14.5196 16.2071 14.7071C16.0196 14.8946 15.7652 15 15.5 15H14.5C14.2348 15 13.9804 14.8946 13.7929 14.7071C13.6054 14.5196 13.5 14.2652 13.5 14V12.5C13.5 12.2348 13.6054 11.9804 13.7929 11.7929C13.9804 11.6054 14.2348 11.5 14.5 11.5ZM6 11C6.25488 11.0003 6.50003 11.0979 6.68537 11.2728C6.8707 11.4478 6.98224 11.687 6.99717 11.9414C7.01211 12.1958 6.92933 12.4464 6.76574 12.6418C6.60215 12.8373 6.3701 12.9629 6.117 12.993L6 13H5.5C5.24512 12.9997 4.99997 12.9021 4.81463 12.7272C4.6293 12.5522 4.51777 12.313 4.50283 12.0586C4.48789 11.8042 4.57067 11.5536 4.73426 11.3582C4.89786 11.1627 5.1299 11.0371 5.383 11.007L5.5 11H6ZM8.5 7C8.76522 7 9.01957 7.10536 9.20711 7.29289C9.39464 7.48043 9.5 7.73478 9.5 8C9.5 8.26522 9.39464 8.51957 9.20711 8.70711C9.01957 8.89464 8.76522 9 8.5 9H5.5C5.23478 9 4.98043 8.89464 4.79289 8.70711C4.60536 8.51957 4.5 8.26522 4.5 8C4.5 7.73478 4.60536 7.48043 4.79289 7.29289C4.98043 7.10536 5.23478 7 5.5 7H8.5Z" fill="#1D2433" fill-opacity="0.65"/>
</svg>
