<svg width="14" height="12" viewBox="0 0 14 12" fill="none" xmlns="http://www.w3.org/2000/svg">
<path d="M8.33337 0C8.86381 0 9.37252 0.210714 9.74759 0.585787C10.1227 0.960859 10.3334 1.46957 10.3334 2H12.3334C12.687 2 13.0261 2.14048 13.2762 2.39052C13.5262 2.64057 13.6667 2.97971 13.6667 3.33333V10.6667C13.6667 11.0203 13.5262 11.3594 13.2762 11.6095C13.0261 11.8595 12.687 12 12.3334 12H1.66671C1.31309 12 0.973947 11.8595 0.723898 11.6095C0.47385 11.3594 0.333374 11.0203 0.333374 10.6667V3.33333C0.333374 2.97971 0.47385 2.64057 0.723898 2.39052C0.973947 2.14048 1.31309 2 1.66671 2H3.66671C3.66671 1.46957 3.87742 0.960859 4.25249 0.585787C4.62757 0.210714 5.13627 0 5.66671 0H8.33337ZM11.6667 4.66667H2.33337C2.16345 4.66686 2.00002 4.73192 1.87646 4.84857C1.7529 4.96521 1.67855 5.12464 1.66859 5.29426C1.65863 5.46389 1.71382 5.63092 1.82288 5.76122C1.93194 5.89152 2.08664 5.97526 2.25537 5.99533L2.33337 6H6.33337V6.66667C6.33356 6.83659 6.39863 7.00002 6.51527 7.12358C6.63192 7.24714 6.79134 7.32149 6.96097 7.33145C7.1306 7.34141 7.29763 7.28622 7.42793 7.17716C7.55823 7.0681 7.64197 6.9134 7.66204 6.74467L7.66671 6.66667V6H11.6667C11.8366 5.99981 12.0001 5.93475 12.1236 5.8181C12.2472 5.70146 12.3215 5.54203 12.3315 5.3724C12.3414 5.20278 12.2863 5.03575 12.1772 4.90545C12.0681 4.77514 11.9134 4.6914 11.7447 4.67133L11.6667 4.66667ZM8.33337 1.33333H5.66671C5.50342 1.33335 5.34582 1.3933 5.22379 1.50181C5.10177 1.61032 5.02381 1.75983 5.00471 1.922L5.00004 2H9.00004C9.00002 1.83671 8.94007 1.67911 8.83156 1.55709C8.72306 1.43506 8.57354 1.3571 8.41137 1.338L8.33337 1.33333Z" fill="#1D2433"/>
</svg>
