<svg width="19" height="12" viewBox="0 0 19 12" fill="none" xmlns="http://www.w3.org/2000/svg">
<path fill-rule="evenodd" clip-rule="evenodd" d="M12.789 2.19709C13.0786 1.8395 13.0236 1.3148 12.666 1.02515C12.3084 0.735493 11.7837 0.790567 11.494 1.14816L4.8752 9.31944L2.17439 6.63642C1.84791 6.3121 1.32034 6.31384 0.996012 6.64032C0.671689 6.96679 0.673433 7.49437 0.999907 7.81869L4.35497 11.1516C4.52215 11.3177 4.75183 11.4052 4.98714 11.3925C5.22244 11.3798 5.44136 11.2681 5.58969 11.085L12.789 2.19709ZM18.3237 2.22043C18.6263 1.87368 18.5905 1.34732 18.2437 1.04477C17.897 0.742227 17.3706 0.778063 17.068 1.12482L9.89386 9.34726L9.39136 8.85456C9.06277 8.53238 8.53522 8.53758 8.21304 8.86617C7.89086 9.19476 7.89606 9.72231 8.22465 10.0445L9.35774 11.1555C9.52154 11.3161 9.7443 11.402 9.97351 11.3931C10.2027 11.3842 10.4181 11.2812 10.5689 11.1083L18.3237 2.22043Z" fill="#2F6FED"/>
</svg>
