<svg width="19" height="24" viewBox="0 0 19 24" fill="none" xmlns="http://www.w3.org/2000/svg">
<mask id="path-1-outside-1_2681_12974" maskUnits="userSpaceOnUse" x="0.708008" y="-0.264893" width="16" height="25" fill="black">
<rect fill="white" x="0.708008" y="-0.264893" width="16" height="25"/>
<path fill-rule="evenodd" clip-rule="evenodd" d="M9.12501 1.73511C7.05758 1.73511 5.38159 3.41109 5.38159 5.47852V12.1751C5.38159 14.2425 7.05758 15.9185 9.12501 15.9185C11.1924 15.9185 12.8684 14.2425 12.8684 12.1751V5.47852C12.8684 3.41109 11.1924 1.73511 9.12501 1.73511ZM4.06792 11.6812C4.06792 11.3056 3.76349 11.0012 3.38796 11.0012C3.01243 11.0012 2.70801 11.3056 2.70801 11.6812C2.70801 15.5352 5.12495 18.9179 8.44514 19.3279V22.1939C8.44514 22.5694 8.74957 22.8738 9.1251 22.8738C9.50063 22.8738 9.80506 22.5694 9.80506 22.1939V19.3279C13.1252 18.9179 15.5422 15.5352 15.5422 11.6812C15.5422 11.3056 15.2378 11.0012 14.8622 11.0012C14.4867 11.0012 14.1823 11.3056 14.1823 11.6812C14.1823 15.3099 11.7972 18.0097 9.1251 18.0097C6.45302 18.0097 4.06792 15.3099 4.06792 11.6812Z"/>
</mask>
<path fill-rule="evenodd" clip-rule="evenodd" d="M9.12501 1.73511C7.05758 1.73511 5.38159 3.41109 5.38159 5.47852V12.1751C5.38159 14.2425 7.05758 15.9185 9.12501 15.9185C11.1924 15.9185 12.8684 14.2425 12.8684 12.1751V5.47852C12.8684 3.41109 11.1924 1.73511 9.12501 1.73511ZM4.06792 11.6812C4.06792 11.3056 3.76349 11.0012 3.38796 11.0012C3.01243 11.0012 2.70801 11.3056 2.70801 11.6812C2.70801 15.5352 5.12495 18.9179 8.44514 19.3279V22.1939C8.44514 22.5694 8.74957 22.8738 9.1251 22.8738C9.50063 22.8738 9.80506 22.5694 9.80506 22.1939V19.3279C13.1252 18.9179 15.5422 15.5352 15.5422 11.6812C15.5422 11.3056 15.2378 11.0012 14.8622 11.0012C14.4867 11.0012 14.1823 11.3056 14.1823 11.6812C14.1823 15.3099 11.7972 18.0097 9.1251 18.0097C6.45302 18.0097 4.06792 15.3099 4.06792 11.6812Z" fill="#2F6FED"/>
<path d="M8.44514 19.3279H9.55613V18.3457L8.58133 18.2253L8.44514 19.3279ZM9.80506 19.3279L9.66887 18.2253L8.69407 18.3457V19.3279H9.80506ZM6.49258 5.47852C6.49258 4.02467 7.67116 2.84609 9.12501 2.84609V0.624121C6.444 0.624121 4.27061 2.79751 4.27061 5.47852H6.49258ZM6.49258 12.1751V5.47852H4.27061V12.1751H6.49258ZM9.12501 14.8075C7.67116 14.8075 6.49258 13.6289 6.49258 12.1751H4.27061C4.27061 14.8561 6.444 17.0295 9.12501 17.0295V14.8075ZM11.7574 12.1751C11.7574 13.6289 10.5789 14.8075 9.12501 14.8075V17.0295C11.806 17.0295 13.9794 14.8561 13.9794 12.1751H11.7574ZM11.7574 5.47852V12.1751H13.9794V5.47852H11.7574ZM9.12501 2.84609C10.5789 2.84609 11.7574 4.02467 11.7574 5.47852H13.9794C13.9794 2.79751 11.806 0.624121 9.12501 0.624121V2.84609ZM3.38796 12.1122C3.14991 12.1122 2.95694 11.9192 2.95694 11.6812H5.17891C5.17891 10.6921 4.37708 9.89023 3.38796 9.89023V12.1122ZM3.81899 11.6812C3.81899 11.9192 3.62602 12.1122 3.38796 12.1122V9.89023C2.39885 9.89023 1.59702 10.6921 1.59702 11.6812H3.81899ZM8.58133 18.2253C5.98052 17.9041 3.81899 15.1553 3.81899 11.6812H1.59702C1.59702 15.9152 4.26938 19.9316 8.30895 20.4306L8.58133 18.2253ZM9.55613 22.1939V19.3279H7.33416V22.1939H9.55613ZM9.1251 21.7628C9.36315 21.7628 9.55613 21.9558 9.55613 22.1939H7.33416C7.33416 23.183 8.13599 23.9848 9.1251 23.9848V21.7628ZM8.69407 22.1939C8.69407 21.9558 8.88705 21.7628 9.1251 21.7628V23.9848C10.1142 23.9848 10.916 23.183 10.916 22.1939H8.69407ZM8.69407 19.3279V22.1939H10.916V19.3279H8.69407ZM14.4312 11.6812C14.4312 15.1553 12.2697 17.9041 9.66887 18.2253L9.94124 20.4306C13.9808 19.9316 16.6532 15.9152 16.6532 11.6812H14.4312ZM14.8622 12.1122C14.6242 12.1122 14.4312 11.9192 14.4312 11.6812H16.6532C16.6532 10.6921 15.8513 9.89023 14.8622 9.89023V12.1122ZM15.2933 11.6812C15.2933 11.9192 15.1003 12.1122 14.8622 12.1122V9.89023C13.8731 9.89023 13.0713 10.6921 13.0713 11.6812H15.2933ZM9.1251 19.1207C12.6019 19.1207 15.2933 15.713 15.2933 11.6812H13.0713C13.0713 14.9068 10.9924 16.8987 9.1251 16.8987V19.1207ZM2.95694 11.6812C2.95694 15.713 5.64829 19.1207 9.1251 19.1207V16.8987C7.25775 16.8987 5.17891 14.9068 5.17891 11.6812H2.95694Z" fill="#D9E7FC" mask="url(#path-1-outside-1_2681_12974)"/>
</svg>
