<svg width="21" height="20" viewBox="0 0 21 20" fill="none" xmlns="http://www.w3.org/2000/svg">
<path d="M13.7799 7.50089L13.7649 7.5H13.75L7.75 7.5L7.74945 7.5C7.36713 7.50042 6.9994 7.64682 6.72139 7.90927C6.44339 8.17173 6.27609 8.53043 6.25369 8.91209C6.23128 9.29375 6.35546 9.66957 6.60084 9.96275C6.84623 10.2559 7.1943 10.4443 7.57395 10.4895L7.5885 10.4912L7.60314 10.4921L7.72014 10.4991L7.73506 10.5H7.75H13.75H13.7506C14.1329 10.4996 14.5006 10.3532 14.7786 10.0907C15.0566 9.82827 15.2239 9.46957 15.2463 9.08791C15.2687 8.70625 15.1445 8.33043 14.8992 8.03725C14.6538 7.74407 14.3057 7.55566 13.9261 7.5105L13.9115 7.50877L13.8969 7.50789L13.7799 7.50089ZM10.75 0.5C15.9969 0.5 20.25 4.75314 20.25 10C20.25 15.2469 15.9969 19.5 10.75 19.5H2.75C2.35218 19.5 1.97064 19.342 1.68934 19.0607C1.40804 18.7794 1.25 18.3978 1.25 18V10C1.25 4.75314 5.50314 0.5 10.75 0.5ZM10.75 11.5H7.75C7.35218 11.5 6.97064 11.658 6.68934 11.9393C6.40804 12.2206 6.25 12.6022 6.25 13C6.25 13.3978 6.40804 13.7794 6.68934 14.0607C6.97064 14.342 7.35218 14.5 7.75 14.5H10.75C11.1478 14.5 11.5294 14.342 11.8107 14.0607C12.092 13.7794 12.25 13.3978 12.25 13C12.25 12.6022 12.092 12.2206 11.8107 11.9393C11.5294 11.658 11.1478 11.5 10.75 11.5Z" fill="#2F6FED" stroke="#2F6FED"/>
</svg>
