<svg width="48" height="48" viewBox="0 0 48 48" fill="none" xmlns="http://www.w3.org/2000/svg">
<rect width="48" height="48" rx="12" fill="#EDFDF8"/>
<path fill-rule="evenodd" clip-rule="evenodd" d="M24.0002 12.3333C17.5567 12.3333 12.3335 17.5564 12.3335 23.9999C12.3335 30.4434 17.5567 35.6666 24.0002 35.6666C30.4437 35.6666 35.6668 30.4434 35.6668 23.9999C35.6668 17.5564 30.4437 12.3333 24.0002 12.3333ZM24.0002 13.4999C24.0002 16.2847 22.8939 18.9554 20.9248 20.9245C18.9557 22.8937 16.2849 23.9999 13.5002 23.9999C16.2849 23.9999 18.9557 25.1062 20.9248 27.0753C22.8939 29.0444 24.0002 31.7151 24.0002 34.4999C24.0002 31.7151 25.1064 29.0444 27.0755 27.0753C29.0447 25.1062 31.7154 23.9999 34.5002 23.9999C31.7154 23.9999 29.0447 22.8937 27.0755 20.9245C25.1064 18.9554 24.0002 16.2847 24.0002 13.4999Z" fill="#08875D"/>
</svg>
