<svg width="21" height="20" viewBox="0 0 21 20" fill="none" xmlns="http://www.w3.org/2000/svg">
<path d="M18 2.5C18.221 2.5 18.4329 2.5878 18.5892 2.74408C18.7455 2.90036 18.8333 3.11232 18.8333 3.33333C18.8333 3.55435 18.7455 3.76631 18.5892 3.92259C18.4329 4.07887 18.221 4.16667 18 4.16667V13.3333C18 13.7754 17.8244 14.1993 17.5118 14.5118C17.1992 14.8244 16.7753 15 16.3333 15H12.1208L14.0316 16.9108C14.1834 17.068 14.2674 17.2785 14.2655 17.497C14.2636 17.7155 14.176 17.9245 14.0215 18.079C13.867 18.2335 13.658 18.3212 13.4395 18.3231C13.221 18.325 13.0105 18.241 12.8533 18.0892L10.4966 15.7325L8.13913 18.0892C7.98196 18.241 7.77146 18.325 7.55296 18.3231C7.33446 18.3212 7.12545 18.2335 6.97094 18.079C6.81644 17.9245 6.7288 17.7155 6.7269 17.497C6.725 17.2785 6.80899 17.068 6.96079 16.9108L8.87163 15H4.66663C4.2246 15 3.80068 14.8244 3.48811 14.5118C3.17555 14.1993 2.99996 13.7754 2.99996 13.3333V4.16667C2.77895 4.16667 2.56698 4.07887 2.4107 3.92259C2.25442 3.76631 2.16663 3.55435 2.16663 3.33333C2.16663 3.11232 2.25442 2.90036 2.4107 2.74408C2.56698 2.5878 2.77895 2.5 2.99996 2.5H18ZM16.3333 4.16667H4.66663V13.3333H16.3333V4.16667ZM7.16663 9.16667C7.37074 9.16669 7.56774 9.24163 7.72027 9.37726C7.8728 9.5129 7.97024 9.69979 7.99413 9.9025L7.99996 10V10.8333C7.99972 11.0457 7.91839 11.25 7.77259 11.4045C7.62678 11.5589 7.4275 11.6519 7.21546 11.6643C7.00343 11.6768 6.79464 11.6078 6.63177 11.4714C6.46889 11.3351 6.36421 11.1417 6.33913 10.9308L6.33329 10.8333V10C6.33329 9.77899 6.42109 9.56702 6.57737 9.41074C6.73365 9.25446 6.94561 9.16667 7.16663 9.16667ZM10.5 7.5C10.721 7.5 10.9329 7.5878 11.0892 7.74408C11.2455 7.90036 11.3333 8.11232 11.3333 8.33333V10.8333C11.3333 11.0543 11.2455 11.2663 11.0892 11.4226C10.9329 11.5789 10.721 11.6667 10.5 11.6667C10.2789 11.6667 10.067 11.5789 9.9107 11.4226C9.75442 11.2663 9.66663 11.0543 9.66663 10.8333V8.33333C9.66663 8.11232 9.75442 7.90036 9.9107 7.74408C10.067 7.5878 10.2789 7.5 10.5 7.5ZM13.8333 5.83333C14.0374 5.83336 14.2344 5.9083 14.3869 6.04393C14.5395 6.17956 14.6369 6.36646 14.6608 6.56917L14.6666 6.66667V10.8333C14.6664 11.0457 14.5851 11.25 14.4393 11.4045C14.2934 11.5589 14.0942 11.6519 13.8821 11.6643C13.6701 11.6768 13.4613 11.6078 13.2984 11.4714C13.1356 11.3351 13.0309 11.1417 13.0058 10.9308L13 10.8333V6.66667C13 6.44565 13.0878 6.23369 13.244 6.07741C13.4003 5.92113 13.6123 5.83333 13.8333 5.83333Z" fill="#1D2433" fill-opacity="0.8"/>
</svg>
