<svg width="20" height="21" viewBox="0 0 20 21" fill="none" xmlns="http://www.w3.org/2000/svg">
<path d="M4.98198 0.444971C6.24498 1.36597 7.20098 2.65997 8.01499 3.84897L8.65298 4.78697C8.85111 5.07653 8.94176 5.42625 8.90925 5.7756C8.87675 6.12494 8.72313 6.45193 8.47499 6.69997L7.11898 8.05597L7.26198 8.35997C7.61198 9.06897 8.21598 10.09 9.12498 11C9.82498 11.7 10.59 12.218 11.229 12.58L11.596 12.777L11.923 12.939L12.069 13.006L13.424 11.65C13.673 11.4013 14.0014 11.2479 14.352 11.2167C14.7025 11.1854 15.0529 11.2783 15.342 11.479L16.356 12.182C17.508 12.992 18.711 13.915 19.646 15.113C19.8076 15.3209 19.9104 15.5684 19.9437 15.8296C19.9769 16.0908 19.9394 16.3562 19.835 16.598C18.998 18.551 16.88 20.214 14.677 20.132L14.377 20.116L14.144 20.096L13.886 20.066L13.605 20.028L13.3 19.977L12.974 19.913L12.628 19.836L12.262 19.742L11.877 19.632L11.475 19.502C9.62899 18.876 7.28598 17.646 4.88198 15.242C2.47898 12.839 1.24898 10.496 0.622984 8.64997L0.492985 8.24797L0.382984 7.86297L0.288985 7.49697L0.210984 7.15097C0.188455 7.04261 0.167453 6.93393 0.147984 6.82497L0.0979845 6.51997L0.0579845 6.23897L0.0289845 5.98097L0.00898444 5.74797L-0.00701548 5.44797C-0.0880155 3.25197 1.59298 1.11897 3.53698 0.285971C3.77096 0.184938 4.02719 0.146472 4.28051 0.174347C4.53384 0.202222 4.77557 0.29548 4.98198 0.444971ZM4.05498 2.25297C2.98298 2.81297 1.94498 4.09297 1.99198 5.37397L2.01198 5.70197L2.03398 5.90697L2.06298 6.13697L2.10298 6.38997L2.15398 6.66697L2.21898 6.96497L2.29898 7.28497L2.39498 7.62397L2.50898 7.98197C2.55098 8.10397 2.59498 8.22897 2.64298 8.35697L2.79698 8.74897L2.97298 9.15597C3.60098 10.538 4.62498 12.156 6.29798 13.828C7.96998 15.5 9.58799 16.525 10.97 17.153L11.377 17.329L11.769 17.483C11.897 17.531 12.022 17.575 12.144 17.617L12.502 17.731L12.842 17.827L13.161 17.907L13.459 17.972L13.736 18.023L13.99 18.063L14.22 18.093L14.424 18.113L14.752 18.133C16.016 18.18 17.306 17.148 17.864 16.09C17.152 15.255 16.268 14.57 15.293 13.88L14.545 13.359L14.355 13.558L13.949 14.001L13.734 14.227C13.148 14.824 12.464 15.331 11.644 15L11.418 14.905L11.142 14.781L10.988 14.708L10.65 14.539L10.279 14.339C9.34011 13.8165 8.47655 13.1689 7.71198 12.414C6.95707 11.6494 6.30948 10.7858 5.78698 9.84697L5.58698 9.47697L5.41698 9.13797L5.22098 8.70797L5.12498 8.47997C4.81398 7.71097 5.24198 7.06197 5.78898 6.49997L6.01298 6.27997L6.56998 5.76697L6.76998 5.57697L6.29698 4.88397C5.59398 3.86397 4.90698 2.94397 4.05398 2.25197L4.05498 2.25297ZM13.118 4.03997L13.234 4.05297C13.9619 4.18137 14.6305 4.53691 15.1439 5.06865C15.6573 5.60039 15.9892 6.28101 16.092 7.01297C16.1286 7.26615 16.0669 7.52375 15.9194 7.73277C15.7719 7.9418 15.5499 8.08635 15.2991 8.13669C15.0483 8.18704 14.7877 8.13934 14.571 8.00342C14.3543 7.8675 14.1979 7.65369 14.134 7.40597L14.111 7.29097C14.0708 7.00407 13.9483 6.73496 13.7584 6.51616C13.5685 6.29735 13.3194 6.13821 13.041 6.05797L12.886 6.02297C12.6349 5.97847 12.4103 5.83971 12.2581 5.63508C12.1059 5.43045 12.0376 5.17541 12.0673 4.92212C12.0969 4.66883 12.2222 4.43643 12.4175 4.27245C12.6128 4.10848 12.8634 4.02531 13.118 4.03997ZM13.125 0.999971C14.7163 0.999971 16.2424 1.63211 17.3676 2.75733C18.4928 3.88255 19.125 5.40867 19.125 6.99997C19.1247 7.25485 19.0271 7.5 18.8521 7.68534C18.6772 7.87068 18.438 7.98221 18.1836 7.99714C17.9291 8.01208 17.6786 7.9293 17.4832 7.76571C17.2877 7.60212 17.1621 7.37007 17.132 7.11697L17.125 6.99997C17.1254 5.98439 16.7392 5.00673 16.045 4.2655C15.3507 3.52426 14.4004 3.07502 13.387 3.00897L13.125 2.99997C12.8598 2.99997 12.6054 2.89461 12.4179 2.70708C12.2303 2.51954 12.125 2.26519 12.125 1.99997C12.125 1.73475 12.2303 1.4804 12.4179 1.29286C12.6054 1.10533 12.8598 0.999971 13.125 0.999971Z" fill="#1D2433" fill-opacity="0.65"/>
</svg>
