<svg width="25" height="25" viewBox="0 0 25 25" fill="none" xmlns="http://www.w3.org/2000/svg">
<path d="M6.48106 0.666886C7.85506 1.66797 8.92493 3.0344 9.83853 4.34195L10.3699 5.1159L10.8711 5.855C11.1219 6.22122 11.2291 6.66686 11.1723 7.10701C11.1156 7.54716 10.8988 7.95106 10.5634 8.24174L8.2181 9.98313C8.10479 10.0649 8.02503 10.1851 7.99364 10.3212C7.96224 10.4574 7.98134 10.6003 8.0474 10.7234C8.57873 11.6885 9.52358 13.1258 10.6055 14.2074C11.6886 15.289 13.1936 16.2961 14.2262 16.8874C14.3557 16.96 14.5081 16.9804 14.6521 16.9441C14.7961 16.9079 14.9207 16.818 15.0004 16.6927L16.527 14.3696C16.8077 13.9969 17.2218 13.7472 17.6825 13.6728C18.1432 13.5985 18.6148 13.7052 18.9986 13.9707L19.7956 14.5223C21.285 15.5558 22.885 16.73 24.1087 18.2959C24.3028 18.5456 24.4263 18.8428 24.4662 19.1566C24.5062 19.4703 24.4612 19.7889 24.3359 20.0793C23.3298 22.4264 20.7837 24.425 18.1355 24.3276L17.7748 24.3072L17.4947 24.2832L17.1846 24.2471L16.8468 24.2015L16.4802 24.1414C16.416 24.1298 16.3519 24.1178 16.2878 24.1053L15.8839 24.0188C15.8133 24.0033 15.7428 23.9873 15.6723 23.9707L15.2324 23.8577L14.7696 23.7255L14.2863 23.5693C12.0672 22.817 9.2507 21.3388 6.36085 18.4497C3.47219 15.5618 1.9936 12.746 1.24108 10.5275L1.08481 10.0444L0.952577 9.58173L0.83958 9.14188L0.745815 8.72606C0.718733 8.59583 0.693486 8.46522 0.670083 8.33428L0.609978 7.96774L0.561893 7.63003L0.527032 7.31997L0.50299 7.03996L0.483757 6.67942C0.386386 4.0403 2.40712 1.47689 4.74402 0.475803C5.02528 0.354383 5.33329 0.308154 5.63782 0.341654C5.94234 0.375154 6.23293 0.48723 6.48106 0.666886ZM16.2602 4.98731L16.3996 5.00293C17.2746 5.15723 18.0783 5.58452 18.6955 6.22356C19.3127 6.86259 19.7117 7.68055 19.8352 8.56021C19.8793 8.86448 19.805 9.17406 19.6277 9.42526C19.4505 9.67647 19.1836 9.85019 18.8821 9.91069C18.5806 9.97119 18.2674 9.91387 18.0068 9.75052C17.7463 9.58717 17.5583 9.33022 17.4815 9.03252L17.4539 8.89431C17.4055 8.54952 17.2583 8.22611 17.03 7.96315C16.8018 7.70019 16.5022 7.50894 16.1676 7.41251L15.9813 7.37045C15.6794 7.31696 15.4094 7.1502 15.2265 6.90428C15.0435 6.65836 14.9615 6.35185 14.9971 6.04746C15.0327 5.74306 15.1833 5.46376 15.4181 5.2667C15.6529 5.06964 15.9541 4.96969 16.2602 4.98731ZM16.2698 1.33388C18.1827 1.33388 20.0173 2.09358 21.3699 3.44585C22.7225 4.79812 23.4824 6.63219 23.4824 8.54459C23.4821 8.8509 23.3648 9.14552 23.1544 9.36826C22.9441 9.59099 22.6566 9.72503 22.3508 9.74298C22.0449 9.76093 21.7437 9.66144 21.5088 9.46484C21.2738 9.26824 21.1228 8.98937 21.0866 8.6852L21.0782 8.54459C21.0787 7.32408 20.6145 6.14915 19.7799 5.25834C18.9454 4.36754 17.803 3.82764 16.5847 3.74826L16.2698 3.73745C15.951 3.73745 15.6452 3.61083 15.4198 3.38545C15.1943 3.16008 15.0677 2.8544 15.0677 2.53566C15.0677 2.21693 15.1943 1.91125 15.4198 1.68587C15.6452 1.46049 15.951 1.33388 16.2698 1.33388Z" fill="white"/>
</svg>
