<svg width="18" height="18" viewBox="0 0 18 18" fill="#2F6FED" xmlns="http://www.w3.org/2000/svg">
<path d="M4.71416 1.03756C5.66666 1.73172 6.40833 2.67922 7.04166 3.58589L7.41 4.12256L7.7575 4.63506C7.93132 4.889 8.00564 5.19801 7.96629 5.50322C7.92695 5.80843 7.7767 6.0885 7.54416 6.29006L5.91833 7.49756C5.83978 7.55428 5.78449 7.63758 5.76273 7.73199C5.74096 7.8264 5.75421 7.92551 5.8 8.01089C6.16833 8.68006 6.82333 9.67672 7.57333 10.4267C8.32416 11.1767 9.3675 11.8751 10.0833 12.2851C10.1731 12.3354 10.2787 12.3495 10.3785 12.3244C10.4784 12.2993 10.5648 12.2369 10.62 12.1501L11.6783 10.5392C11.8729 10.2808 12.1599 10.1076 12.4793 10.056C12.7987 10.0045 13.1256 10.0785 13.3917 10.2626L13.9442 10.6451C14.9767 11.3617 16.0858 12.1759 16.9342 13.2617C17.0687 13.4349 17.1543 13.641 17.182 13.8585C17.2097 14.0761 17.1785 14.297 17.0917 14.4984C16.3942 16.1259 14.6292 17.5117 12.7933 17.4442L12.5433 17.4301L12.3492 17.4134L12.1342 17.3884L11.9 17.3567L11.6458 17.3151C11.6013 17.307 11.5569 17.2987 11.5125 17.2901L11.2325 17.2301C11.1835 17.2193 11.1346 17.2082 11.0858 17.1967L10.7808 17.1184L10.46 17.0267L10.125 16.9184C8.58666 16.3967 6.63416 15.3717 4.63083 13.3684C2.62833 11.3659 1.60333 9.41339 1.08166 7.87506L0.973331 7.54006L0.881664 7.21922L0.803331 6.91422L0.738331 6.62589C0.719556 6.53559 0.702055 6.44502 0.685831 6.35422L0.644164 6.10006L0.610831 5.86589L0.586664 5.65089L0.569997 5.45672L0.556664 5.20672C0.489164 3.37672 1.89 1.59922 3.51 0.905058C3.70498 0.820863 3.9185 0.788808 4.12961 0.812037C4.34071 0.835266 4.54216 0.912982 4.71416 1.03756ZM11.4933 4.03339L11.59 4.04422C12.1966 4.15122 12.7537 4.44751 13.1816 4.89062C13.6094 5.33374 13.886 5.90092 13.9717 6.51089C14.0022 6.72187 13.9507 6.93654 13.8278 7.11073C13.7049 7.28491 13.5199 7.40537 13.3109 7.44733C13.1019 7.48928 12.8848 7.44953 12.7042 7.33626C12.5236 7.223 12.3932 7.04482 12.34 6.83839L12.3208 6.74256C12.2873 6.50347 12.1853 6.27922 12.027 6.09688C11.8688 5.91454 11.6611 5.78193 11.4292 5.71506L11.3 5.68589C11.0907 5.6488 10.9036 5.53317 10.7767 5.36265C10.6499 5.19212 10.5931 4.97959 10.6177 4.76851C10.6424 4.55744 10.7468 4.36377 10.9096 4.22713C11.0724 4.09048 11.2812 4.02118 11.4933 4.03339ZM11.5 1.50006C12.8261 1.50006 14.0978 2.02684 15.0355 2.96452C15.9732 3.90221 16.5 5.17397 16.5 6.50006C16.4998 6.71246 16.4184 6.91675 16.2726 7.0712C16.1268 7.22564 15.9275 7.31859 15.7155 7.33103C15.5035 7.34348 15.2947 7.2745 15.1318 7.13817C14.9689 7.00185 14.8643 6.80847 14.8392 6.59756L14.8333 6.50006C14.8336 5.65374 14.5119 4.83902 13.9333 4.22133C13.3548 3.60364 12.5629 3.22926 11.7183 3.17422L11.5 3.16672C11.279 3.16672 11.067 3.07893 10.9107 2.92265C10.7545 2.76637 10.6667 2.5544 10.6667 2.33339C10.6667 2.11238 10.7545 1.90042 10.9107 1.74414C11.067 1.58785 11.279 1.50006 11.5 1.50006Z" fill="#1D2433"/>
</svg>
