<svg width="139" height="42" viewBox="0 0 139 42" fill="none" xmlns="http://www.w3.org/2000/svg">
<g filter="url(#filter0_d_3914_35855)">
<rect x="2.5" y="1" width="134" height="38" rx="14" fill="#08875D"/>
<g clip-path="url(#clip0_3914_35855)">
<mask id="path-2-inside-1_3914_35855" fill="white">
<path d="M48.357 10.445C49.62 11.366 50.576 12.66 51.39 13.849L52.028 14.787C52.2262 15.0765 52.3168 15.4263 52.2843 15.7756C52.2518 16.1249 52.0982 16.4519 51.85 16.7L50.494 18.056L50.637 18.36C50.987 19.069 51.591 20.09 52.5 21C53.2 21.7 53.965 22.218 54.604 22.58L54.971 22.777L55.298 22.939L55.444 23.006L56.799 21.65C57.0481 21.4013 57.3765 21.2479 57.727 21.2167C58.0776 21.1854 58.428 21.2783 58.717 21.479L59.731 22.182C60.883 22.992 62.086 23.915 63.021 25.113C63.1827 25.3209 63.2855 25.5684 63.3187 25.8296C63.352 26.0908 63.3144 26.3562 63.21 26.598C62.373 28.551 60.255 30.214 58.052 30.132L57.752 30.116L57.519 30.096L57.261 30.066L56.98 30.028L56.675 29.977L56.349 29.913L56.003 29.836L55.637 29.742L55.252 29.632L54.85 29.502C53.004 28.876 50.661 27.646 48.257 25.242C45.854 22.839 44.624 20.496 43.998 18.65L43.868 18.248L43.758 17.863L43.664 17.497L43.586 17.151C43.5635 17.0426 43.5425 16.9339 43.523 16.825L43.473 16.52L43.433 16.239L43.404 15.981L43.384 15.748L43.368 15.448C43.287 13.252 44.968 11.119 46.912 10.286C47.146 10.1849 47.4022 10.1465 47.6556 10.1743C47.9089 10.2022 48.1506 10.2955 48.357 10.445ZM47.43 12.253C46.358 12.813 45.32 14.093 45.367 15.374L45.387 15.702L45.409 15.907L45.438 16.137L45.478 16.39L45.529 16.667L45.594 16.965L45.674 17.285L45.77 17.624L45.884 17.982C45.926 18.104 45.97 18.229 46.018 18.357L46.172 18.749L46.348 19.156C46.976 20.538 48 22.156 49.673 23.828C51.345 25.5 52.963 26.525 54.345 27.153L54.752 27.329L55.144 27.483C55.272 27.531 55.397 27.575 55.519 27.617L55.877 27.731L56.217 27.827L56.536 27.907L56.834 27.972L57.111 28.023L57.365 28.063L57.595 28.093L57.799 28.113L58.127 28.133C59.391 28.18 60.681 27.148 61.239 26.09C60.527 25.255 59.643 24.57 58.668 23.88L57.92 23.359L57.73 23.558L57.324 24.001L57.109 24.227C56.523 24.824 55.839 25.331 55.019 25L54.793 24.905L54.517 24.781L54.363 24.708L54.025 24.539L53.654 24.339C52.7152 23.8165 51.8516 23.1689 51.087 22.414C50.3321 21.6494 49.6845 20.7858 49.162 19.847L48.962 19.477L48.792 19.138L48.596 18.708L48.5 18.48C48.189 17.711 48.617 17.062 49.164 16.5L49.388 16.28L49.945 15.767L50.145 15.577L49.672 14.884C48.969 13.864 48.282 12.944 47.429 12.252L47.43 12.253ZM56.493 14.04L56.609 14.053C57.337 14.1814 58.0055 14.5369 58.5189 15.0686C59.0324 15.6004 59.3642 16.281 59.467 17.013C59.5037 17.2662 59.4419 17.5238 59.2944 17.7328C59.147 17.9418 58.925 18.0864 58.6742 18.1367C58.4233 18.187 58.1628 18.1393 57.946 18.0034C57.7293 17.8675 57.5729 17.6537 57.509 17.406L57.486 17.291C57.4458 17.0041 57.3234 16.735 57.1335 16.5162C56.9436 16.2974 56.6944 16.1382 56.416 16.058L56.261 16.023C56.0099 15.9785 55.7853 15.8397 55.6331 15.6351C55.481 15.4304 55.4127 15.1754 55.4423 14.9221C55.472 14.6688 55.5973 14.4364 55.7926 14.2725C55.9879 14.1085 56.2385 14.0253 56.493 14.04ZM56.5 11C58.0913 11 59.6175 11.6321 60.7427 12.7573C61.8679 13.8825 62.5 15.4087 62.5 17C62.4998 17.2549 62.4022 17.5 62.2272 17.6853C62.0522 17.8707 61.8131 17.9822 61.5587 17.9971C61.3042 18.0121 61.0537 17.9293 60.8582 17.7657C60.6628 17.6021 60.5371 17.3701 60.507 17.117L60.5 17C60.5004 15.9844 60.1143 15.0067 59.42 14.2655C58.7258 13.5243 57.7755 13.075 56.762 13.009L56.5 13C56.2348 13 55.9805 12.8946 55.7929 12.7071C55.6054 12.5195 55.5 12.2652 55.5 12C55.5 11.7348 55.6054 11.4804 55.7929 11.2929C55.9805 11.1053 56.2348 11 56.5 11Z"/>
</mask>
<path d="M48.357 10.445C49.62 11.366 50.576 12.66 51.39 13.849L52.028 14.787C52.2262 15.0765 52.3168 15.4263 52.2843 15.7756C52.2518 16.1249 52.0982 16.4519 51.85 16.7L50.494 18.056L50.637 18.36C50.987 19.069 51.591 20.09 52.5 21C53.2 21.7 53.965 22.218 54.604 22.58L54.971 22.777L55.298 22.939L55.444 23.006L56.799 21.65C57.0481 21.4013 57.3765 21.2479 57.727 21.2167C58.0776 21.1854 58.428 21.2783 58.717 21.479L59.731 22.182C60.883 22.992 62.086 23.915 63.021 25.113C63.1827 25.3209 63.2855 25.5684 63.3187 25.8296C63.352 26.0908 63.3144 26.3562 63.21 26.598C62.373 28.551 60.255 30.214 58.052 30.132L57.752 30.116L57.519 30.096L57.261 30.066L56.98 30.028L56.675 29.977L56.349 29.913L56.003 29.836L55.637 29.742L55.252 29.632L54.85 29.502C53.004 28.876 50.661 27.646 48.257 25.242C45.854 22.839 44.624 20.496 43.998 18.65L43.868 18.248L43.758 17.863L43.664 17.497L43.586 17.151C43.5635 17.0426 43.5425 16.9339 43.523 16.825L43.473 16.52L43.433 16.239L43.404 15.981L43.384 15.748L43.368 15.448C43.287 13.252 44.968 11.119 46.912 10.286C47.146 10.1849 47.4022 10.1465 47.6556 10.1743C47.9089 10.2022 48.1506 10.2955 48.357 10.445ZM47.43 12.253C46.358 12.813 45.32 14.093 45.367 15.374L45.387 15.702L45.409 15.907L45.438 16.137L45.478 16.39L45.529 16.667L45.594 16.965L45.674 17.285L45.77 17.624L45.884 17.982C45.926 18.104 45.97 18.229 46.018 18.357L46.172 18.749L46.348 19.156C46.976 20.538 48 22.156 49.673 23.828C51.345 25.5 52.963 26.525 54.345 27.153L54.752 27.329L55.144 27.483C55.272 27.531 55.397 27.575 55.519 27.617L55.877 27.731L56.217 27.827L56.536 27.907L56.834 27.972L57.111 28.023L57.365 28.063L57.595 28.093L57.799 28.113L58.127 28.133C59.391 28.18 60.681 27.148 61.239 26.09C60.527 25.255 59.643 24.57 58.668 23.88L57.92 23.359L57.73 23.558L57.324 24.001L57.109 24.227C56.523 24.824 55.839 25.331 55.019 25L54.793 24.905L54.517 24.781L54.363 24.708L54.025 24.539L53.654 24.339C52.7152 23.8165 51.8516 23.1689 51.087 22.414C50.3321 21.6494 49.6845 20.7858 49.162 19.847L48.962 19.477L48.792 19.138L48.596 18.708L48.5 18.48C48.189 17.711 48.617 17.062 49.164 16.5L49.388 16.28L49.945 15.767L50.145 15.577L49.672 14.884C48.969 13.864 48.282 12.944 47.429 12.252L47.43 12.253ZM56.493 14.04L56.609 14.053C57.337 14.1814 58.0055 14.5369 58.5189 15.0686C59.0324 15.6004 59.3642 16.281 59.467 17.013C59.5037 17.2662 59.4419 17.5238 59.2944 17.7328C59.147 17.9418 58.925 18.0864 58.6742 18.1367C58.4233 18.187 58.1628 18.1393 57.946 18.0034C57.7293 17.8675 57.5729 17.6537 57.509 17.406L57.486 17.291C57.4458 17.0041 57.3234 16.735 57.1335 16.5162C56.9436 16.2974 56.6944 16.1382 56.416 16.058L56.261 16.023C56.0099 15.9785 55.7853 15.8397 55.6331 15.6351C55.481 15.4304 55.4127 15.1754 55.4423 14.9221C55.472 14.6688 55.5973 14.4364 55.7926 14.2725C55.9879 14.1085 56.2385 14.0253 56.493 14.04ZM56.5 11C58.0913 11 59.6175 11.6321 60.7427 12.7573C61.8679 13.8825 62.5 15.4087 62.5 17C62.4998 17.2549 62.4022 17.5 62.2272 17.6853C62.0522 17.8707 61.8131 17.9822 61.5587 17.9971C61.3042 18.0121 61.0537 17.9293 60.8582 17.7657C60.6628 17.6021 60.5371 17.3701 60.507 17.117L60.5 17C60.5004 15.9844 60.1143 15.0067 59.42 14.2655C58.7258 13.5243 57.7755 13.075 56.762 13.009L56.5 13C56.2348 13 55.9805 12.8946 55.7929 12.7071C55.6054 12.5195 55.5 12.2652 55.5 12C55.5 11.7348 55.6054 11.4804 55.7929 11.2929C55.9805 11.1053 56.2348 11 56.5 11Z" stroke="white" stroke-width="2" mask="url(#path-2-inside-1_3914_35855)"/>
</g>
<path d="M81.697 22.753C81.7857 22.753 81.8627 22.788 81.928 22.858L82.579 23.565C82.1683 24.0597 81.6643 24.4423 81.067 24.713C80.4697 24.979 79.7557 25.112 78.925 25.112C78.1877 25.112 77.5203 24.986 76.923 24.734C76.3303 24.4773 75.824 24.1227 75.404 23.67C74.984 23.2127 74.6597 22.669 74.431 22.039C74.207 21.409 74.095 20.716 74.095 19.96C74.095 19.204 74.214 18.511 74.452 17.881C74.6947 17.2463 75.033 16.7027 75.467 16.25C75.9057 15.7927 76.4283 15.438 77.035 15.186C77.6463 14.934 78.3183 14.808 79.051 14.808C79.779 14.808 80.4207 14.927 80.976 15.165C81.536 15.3983 82.0213 15.711 82.432 16.103L81.893 16.866C81.8557 16.9173 81.8113 16.9617 81.76 16.999C81.7087 17.0363 81.6387 17.055 81.55 17.055C81.4567 17.055 81.3493 17.013 81.228 16.929C81.1113 16.8403 80.9597 16.7447 80.773 16.642C80.591 16.5347 80.36 16.439 80.08 16.355C79.8047 16.2663 79.4593 16.222 79.044 16.222C78.5633 16.222 78.1223 16.306 77.721 16.474C77.3197 16.642 76.9743 16.887 76.685 17.209C76.3957 17.531 76.1693 17.923 76.006 18.385C75.8473 18.847 75.768 19.372 75.768 19.96C75.768 20.5527 75.852 21.0823 76.02 21.549C76.188 22.011 76.419 22.403 76.713 22.725C77.007 23.0423 77.3523 23.285 77.749 23.453C78.1457 23.621 78.5727 23.705 79.03 23.705C79.31 23.705 79.5597 23.691 79.779 23.663C80.003 23.6303 80.2083 23.5813 80.395 23.516C80.5817 23.446 80.7567 23.3597 80.92 23.257C81.088 23.1543 81.2537 23.0283 81.417 22.879C81.5103 22.795 81.6037 22.753 81.697 22.753ZM87.5289 21.878C86.9922 21.8967 86.5395 21.941 86.1709 22.011C85.8022 22.0763 85.5035 22.1627 85.2749 22.27C85.0462 22.3727 84.8805 22.4963 84.7779 22.641C84.6799 22.7857 84.6309 22.9443 84.6309 23.117C84.6309 23.285 84.6565 23.4297 84.7079 23.551C84.7639 23.6677 84.8385 23.7657 84.9319 23.845C85.0299 23.9197 85.1419 23.9757 85.2679 24.013C85.3985 24.0457 85.5409 24.062 85.6949 24.062C86.0869 24.062 86.4229 23.9897 86.7029 23.845C86.9875 23.6957 87.2629 23.481 87.5289 23.201V21.878ZM83.5389 18.854C84.3462 18.1027 85.3075 17.727 86.4229 17.727C86.8335 17.727 87.1975 17.7947 87.5149 17.93C87.8369 18.0607 88.1052 18.2473 88.3199 18.49C88.5392 18.7327 88.7049 19.022 88.8169 19.358C88.9335 19.6893 88.9919 20.058 88.9919 20.464V25H88.3199C88.1752 25 88.0655 24.979 87.9909 24.937C87.9162 24.8903 87.8532 24.7993 87.8019 24.664L87.6549 24.083C87.4729 24.2463 87.2932 24.3933 87.1159 24.524C86.9385 24.65 86.7542 24.7573 86.5629 24.846C86.3762 24.9347 86.1732 25 85.9539 25.042C85.7392 25.0887 85.5012 25.112 85.2399 25.112C84.9505 25.112 84.6799 25.0723 84.4279 24.993C84.1805 24.9137 83.9659 24.7947 83.7839 24.636C83.6019 24.4727 83.4572 24.272 83.3499 24.034C83.2472 23.796 83.1959 23.516 83.1959 23.194C83.1959 22.9187 83.2682 22.6503 83.4129 22.389C83.5622 22.1277 83.8049 21.8943 84.1409 21.689C84.4815 21.479 84.9272 21.3063 85.4779 21.171C86.0332 21.0357 86.7169 20.9587 87.5289 20.94V20.464C87.5289 19.9507 87.4192 19.568 87.1999 19.316C86.9805 19.064 86.6585 18.938 86.2339 18.938C85.9445 18.938 85.7019 18.9753 85.5059 19.05C85.3099 19.12 85.1395 19.197 84.9949 19.281C84.8502 19.365 84.7219 19.4443 84.6099 19.519C84.4979 19.589 84.3789 19.624 84.2529 19.624C84.1502 19.624 84.0615 19.5983 83.9869 19.547C83.9169 19.491 83.8585 19.4233 83.8119 19.344L83.5389 18.854ZM92.2879 14.64V25H90.7829V14.64H92.2879ZM95.6785 14.64V25H94.1735V14.64H95.6785Z" fill="white"/>
</g>
<defs>
<filter id="filter0_d_3914_35855" x="0.5" y="0" width="138" height="42" filterUnits="userSpaceOnUse" color-interpolation-filters="sRGB">
<feFlood flood-opacity="0" result="BackgroundImageFix"/>
<feColorMatrix in="SourceAlpha" type="matrix" values="0 0 0 0 0 0 0 0 0 0 0 0 0 0 0 0 0 0 127 0" result="hardAlpha"/>
<feOffset dy="1"/>
<feGaussianBlur stdDeviation="1"/>
<feColorMatrix type="matrix" values="0 0 0 0 0.0627451 0 0 0 0 0.0941176 0 0 0 0 0.156863 0 0 0 0.05 0"/>
<feBlend mode="normal" in2="BackgroundImageFix" result="effect1_dropShadow_3914_35855"/>
<feBlend mode="normal" in="SourceGraphic" in2="effect1_dropShadow_3914_35855" result="shape"/>
</filter>
<clipPath id="clip0_3914_35855">
<rect width="24" height="24" fill="white" transform="translate(41.5 8)"/>
</clipPath>
</defs>
</svg>
