<svg width="73" height="42" viewBox="0 0 73 42" fill="none" xmlns="http://www.w3.org/2000/svg">
<g filter="url(#filter0_d_3914_35718)">
<rect x="2.5" y="1" width="68" height="38" rx="14" fill="#08875D"/>
<rect x="3" y="1.5" width="67" height="37" rx="13.5" stroke="#08875D"/>
<path d="M34.5964 15.0444L34.5952 15.0426L34.1798 14.4299L34.179 14.4287L33.739 13.7876C32.9864 12.7104 32.1356 11.6313 31.0632 10.8495C30.9272 10.7511 30.7678 10.6897 30.6009 10.6713C30.4337 10.653 30.2647 10.6783 30.1103 10.745L30.109 10.7456L30.109 10.7456C28.3121 11.5155 26.798 13.4816 26.8676 15.4256L26.8829 15.7133L26.9017 15.9317L26.9291 16.1758L26.9673 16.4443L27.0159 16.7405C27.0341 16.8423 27.0537 16.9439 27.0747 17.0451L27.1502 17.3798L27.2407 17.7321L27.3464 18.1023L27.4727 18.4927C28.0756 20.269 29.2659 22.5437 31.6106 24.8884C33.9564 27.2342 36.231 28.4245 38.0073 29.0273L38.3977 29.1536L38.768 29.2594L39.1224 29.3504C39.1765 29.3631 39.2307 29.3754 39.2849 29.3873C39.2854 29.3874 39.2858 29.3875 39.2863 29.3876L39.6151 29.4581C39.6633 29.4674 39.7115 29.4765 39.7598 29.4852L40.054 29.5334L40.3234 29.5699L40.5693 29.5984L40.7876 29.6172L41.0752 29.6335C43.0268 29.7027 44.9771 28.2056 45.7505 26.401L45.7509 26.4C45.8197 26.2405 45.8444 26.0655 45.8224 25.8933C45.8005 25.7212 45.7328 25.558 45.6264 25.421C44.6596 24.1838 43.3858 23.2439 42.1484 22.3851L34.5964 15.0444ZM34.5964 15.0444C34.7357 15.2478 34.7952 15.4954 34.7637 15.7398C34.7329 15.9787 34.6173 16.1984 34.4383 16.3589L32.5062 17.7939C32.3154 17.9328 32.1811 18.1359 32.1281 18.366C32.0748 18.5973 32.1072 18.8401 32.2194 19.0493L32.2194 19.0493L32.222 19.0541C32.6776 19.8817 33.49 21.121 34.4345 22.0655L34.4347 22.0657C35.3792 23.0091 36.6728 23.8726 37.5515 24.3758L37.5515 24.3759L37.5553 24.378C37.7745 24.501 38.0325 24.5354 38.2763 24.4741C38.5187 24.4131 38.7286 24.2621 38.8636 24.0519L40.1222 22.1363C40.2778 21.9356 40.5039 21.8013 40.7549 21.7608C41.0106 21.7195 41.2724 21.7787 41.4854 21.9261C41.4855 21.9261 41.4855 21.9261 41.4855 21.9261L42.1479 22.3847L34.5964 15.0444ZM41.9709 17.0825L41.9712 17.0846C41.9895 17.2112 41.9586 17.34 41.8849 17.4445C41.8112 17.549 41.7002 17.6213 41.5748 17.6465C41.4494 17.6716 41.3191 17.6478 41.2107 17.5798C41.1056 17.5139 41.0288 17.4113 40.9952 17.2921L40.978 17.2061C40.9221 16.8294 40.7599 16.4763 40.5101 16.1884C40.2569 15.8967 39.9247 15.6845 39.5535 15.5775L39.5395 15.5735L39.5252 15.5703L39.3702 15.5353L39.3588 15.5327L39.3473 15.5306C39.2218 15.5084 39.1094 15.439 39.0334 15.3367C38.9573 15.2344 38.9231 15.1069 38.938 14.9802C38.9528 14.8536 39.0154 14.7374 39.1131 14.6554C39.2079 14.5758 39.3287 14.5343 39.4521 14.5386L39.5361 14.548C40.1542 14.6603 40.7217 14.9638 41.1582 15.416C41.5983 15.8717 41.8828 16.4551 41.9709 17.0825ZM39.7946 12.51L39.7869 12.5095L39.7792 12.5093L39.5172 12.5003L39.5086 12.5H39.5C39.3674 12.5 39.2403 12.4473 39.1465 12.3535C39.0527 12.2598 39 12.1326 39 12C39 11.8674 39.0527 11.7402 39.1465 11.6464C39.2403 11.5526 39.3674 11.5 39.5 11.5C40.9587 11.5 42.3577 12.0794 43.3891 13.1109C44.4205 14.1422 44.9999 15.5409 45 16.9994C44.9999 17.1269 44.9511 17.2494 44.8636 17.3421C44.7761 17.4348 44.6566 17.4905 44.5293 17.498C44.4021 17.5055 44.2769 17.4641 44.1791 17.3823C44.0845 17.3031 44.0226 17.1918 44.0051 17.07L44 16.9847C43.9965 15.8476 43.5625 14.7539 42.785 13.9237C42.0039 13.0898 40.9347 12.5843 39.7946 12.51Z" fill="white" stroke="white"/>
</g>
<defs>
<filter id="filter0_d_3914_35718" x="0.5" y="0" width="72" height="42" filterUnits="userSpaceOnUse" color-interpolation-filters="sRGB">
<feFlood flood-opacity="0" result="BackgroundImageFix"/>
<feColorMatrix in="SourceAlpha" type="matrix" values="0 0 0 0 0 0 0 0 0 0 0 0 0 0 0 0 0 0 127 0" result="hardAlpha"/>
<feOffset dy="1"/>
<feGaussianBlur stdDeviation="1"/>
<feColorMatrix type="matrix" values="0 0 0 0 0.0627451 0 0 0 0 0.0941176 0 0 0 0 0.156863 0 0 0 0.05 0"/>
<feBlend mode="normal" in2="BackgroundImageFix" result="effect1_dropShadow_3914_35718"/>
<feBlend mode="normal" in="SourceGraphic" in2="effect1_dropShadow_3914_35718" result="shape"/>
</filter>
</defs>
</svg>
