<svg width="20" height="18" viewBox="0 0 20 18" fill="none" xmlns="http://www.w3.org/2000/svg">
<path fill-rule="evenodd" clip-rule="evenodd" d="M12.793 0C13.1394 0.000230924 13.4751 0.120365 13.743 0.34L13.853 0.44L15.415 2H18C18.5046 1.99984 18.9906 2.19041 19.3605 2.5335C19.7305 2.87659 19.9572 3.34684 19.995 3.85L20 4V16C20.0002 16.5046 19.8096 16.9906 19.4665 17.3605C19.1234 17.7305 18.6532 17.9572 18.15 17.995L18 18H2C1.49542 18.0002 1.00943 17.8096 0.639452 17.4665C0.269471 17.1234 0.0428434 16.6532 0.00500021 16.15L1.00268e-07 16V4C-0.000159579 3.49542 0.190406 3.00943 0.533497 2.63945C0.876588 2.26947 1.34684 2.04284 1.85 2.005L2 2H4.586L6.146 0.44C6.3911 0.194419 6.71375 0.0413975 7.059 0.00699997L7.207 0H12.793ZM12.586 2H7.414L5.854 3.56C5.6089 3.80558 5.28625 3.9586 4.941 3.993L4.793 4H2V16H18V4H15.207C14.8606 3.99977 14.5249 3.87963 14.257 3.66L14.147 3.56L12.585 2H12.586ZM10 4.5C11.3261 4.5 12.5979 5.02678 13.5355 5.96447C14.4732 6.90215 15 8.17392 15 9.5C15 10.8261 14.4732 12.0979 13.5355 13.0355C12.5979 13.9732 11.3261 14.5 10 14.5C8.67392 14.5 7.40215 13.9732 6.46447 13.0355C5.52678 12.0979 5 10.8261 5 9.5C5 8.17392 5.52678 6.90215 6.46447 5.96447C7.40215 5.02678 8.67392 4.5 10 4.5ZM10 6.5C9.60603 6.5 9.21593 6.5776 8.85195 6.72836C8.48797 6.87913 8.15726 7.1001 7.87868 7.37868C7.6001 7.65726 7.37913 7.98797 7.22836 8.35195C7.0776 8.71593 7 9.10603 7 9.5C7 9.89397 7.0776 10.2841 7.22836 10.6481C7.37913 11.012 7.6001 11.3427 7.87868 11.6213C8.15726 11.8999 8.48797 12.1209 8.85195 12.2716C9.21593 12.4224 9.60603 12.5 10 12.5C10.7956 12.5 11.5587 12.1839 12.1213 11.6213C12.6839 11.0587 13 10.2956 13 9.5C13 8.70435 12.6839 7.94129 12.1213 7.37868C11.5587 6.81607 10.7956 6.5 10 6.5Z" fill="#1D2433" fill-opacity="0.8"/>
</svg>
