<svg width="20" height="20" viewBox="0 0 20 20" fill="none" xmlns="http://www.w3.org/2000/svg">
<g clip-path="url(#clip0_290_40128)">
<path d="M11.6666 2.5C12.3297 2.5 12.9656 2.76339 13.4344 3.23223C13.9032 3.70107 14.1666 4.33696 14.1666 5H16.6666C17.1087 5 17.5326 5.17559 17.8451 5.48816C18.1577 5.80072 18.3333 6.22464 18.3333 6.66667V15.8333C18.3333 16.2754 18.1577 16.6993 17.8451 17.0118C17.5326 17.3244 17.1087 17.5 16.6666 17.5H3.33329C2.89127 17.5 2.46734 17.3244 2.15478 17.0118C1.84222 16.6993 1.66663 16.2754 1.66663 15.8333V6.66667C1.66663 6.22464 1.84222 5.80072 2.15478 5.48816C2.46734 5.17559 2.89127 5 3.33329 5H5.83329C5.83329 4.33696 6.09668 3.70107 6.56553 3.23223C7.03437 2.76339 7.67025 2.5 8.33329 2.5H11.6666ZM9.16663 10H3.33329V15.8333H16.6666V10H10.8333V10.8333C10.8331 11.0457 10.7517 11.25 10.6059 11.4045C10.4601 11.5589 10.2608 11.6519 10.0488 11.6643C9.83676 11.6768 9.62798 11.6078 9.4651 11.4714C9.30222 11.3351 9.19755 11.1417 9.17246 10.9308L9.16663 10.8333V10ZM16.6666 6.66667H3.33329V8.33333H16.6666V6.66667ZM11.6666 4.16667H8.33329C8.12918 4.16669 7.93218 4.24163 7.77965 4.37726C7.62712 4.5129 7.52967 4.69979 7.50579 4.9025L7.49996 5H12.5C12.4999 4.79589 12.425 4.59889 12.2894 4.44636C12.1537 4.29383 11.9668 4.19638 11.7641 4.1725L11.6666 4.16667Z" fill="#1D2433" fill-opacity="0.8"/>
</g>
<defs>
<clipPath id="clip0_290_40128">
<rect width="20" height="20" fill="white"/>
</clipPath>
</defs>
</svg>
