<svg width="21" height="20" viewBox="0 0 21 20" fill="none" xmlns="http://www.w3.org/2000/svg">
<path d="M10.375 0C15.898 0 20.375 4.477 20.375 10C20.375 15.523 15.898 20 10.375 20H2.375C1.84457 20 1.33586 19.7893 0.960786 19.4142C0.585714 19.0391 0.375 18.5304 0.375 18V10C0.375 4.477 4.852 0 10.375 0ZM10.375 2C8.25327 2 6.21844 2.84285 4.71815 4.34315C3.21785 5.84344 2.375 7.87827 2.375 10V18H10.375C12.4967 18 14.5316 17.1571 16.0319 15.6569C17.5321 14.1566 18.375 12.1217 18.375 10C18.375 7.87827 17.5321 5.84344 16.0319 4.34315C14.5316 2.84285 12.4967 2 10.375 2ZM10.375 12C10.6299 12.0003 10.875 12.0979 11.0604 12.2728C11.2457 12.4478 11.3572 12.687 11.3722 12.9414C11.3871 13.1958 11.3043 13.4464 11.1407 13.6418C10.9771 13.8373 10.7451 13.9629 10.492 13.993L10.375 14H7.375C7.12012 13.9997 6.87497 13.9021 6.68963 13.7272C6.5043 13.5522 6.39276 13.313 6.37783 13.0586C6.36289 12.8042 6.44567 12.5536 6.60926 12.3582C6.77285 12.1627 7.0049 12.0371 7.258 12.007L7.375 12H10.375ZM13.375 8C13.6402 8 13.8946 8.10536 14.0821 8.29289C14.2696 8.48043 14.375 8.73478 14.375 9C14.375 9.26522 14.2696 9.51957 14.0821 9.70711C13.8946 9.89464 13.6402 10 13.375 10H7.375C7.10978 10 6.85543 9.89464 6.66789 9.70711C6.48036 9.51957 6.375 9.26522 6.375 9C6.375 8.73478 6.48036 8.48043 6.66789 8.29289C6.85543 8.10536 7.10978 8 7.375 8H13.375Z" fill="#1D2433" fill-opacity="0.65"/>
</svg>
