<svg width="25" height="24" viewBox="0 0 25 24" fill="none" xmlns="http://www.w3.org/2000/svg">
<path d="M12.5 2C18.023 2 22.5 6.477 22.5 12C22.5 17.523 18.023 22 12.5 22H4.5C3.96957 22 3.46086 21.7893 3.08579 21.4142C2.71071 21.0391 2.5 20.5304 2.5 20V12C2.5 6.477 6.977 2 12.5 2ZM12.5 4C10.3783 4 8.34344 4.84285 6.84315 6.34315C5.34285 7.84344 4.5 9.87827 4.5 12V20H12.5C14.6217 20 16.6566 19.1571 18.1569 17.6569C19.6571 16.1566 20.5 14.1217 20.5 12C20.5 9.87827 19.6571 7.84344 18.1569 6.34315C16.6566 4.84285 14.6217 4 12.5 4ZM12.5 14C12.7549 14.0003 13 14.0979 13.1854 14.2728C13.3707 14.4478 13.4822 14.687 13.4972 14.9414C13.5121 15.1958 13.4293 15.4464 13.2657 15.6418C13.1021 15.8373 12.8701 15.9629 12.617 15.993L12.5 16H9.5C9.24512 15.9997 8.99997 15.9021 8.81463 15.7272C8.6293 15.5522 8.51776 15.313 8.50283 15.0586C8.48789 14.8042 8.57067 14.5536 8.73426 14.3582C8.89785 14.1627 9.1299 14.0371 9.383 14.007L9.5 14H12.5ZM15.5 10C15.7652 10 16.0196 10.1054 16.2071 10.2929C16.3946 10.4804 16.5 10.7348 16.5 11C16.5 11.2652 16.3946 11.5196 16.2071 11.7071C16.0196 11.8946 15.7652 12 15.5 12H9.5C9.23478 12 8.98043 11.8946 8.79289 11.7071C8.60536 11.5196 8.5 11.2652 8.5 11C8.5 10.7348 8.60536 10.4804 8.79289 10.2929C8.98043 10.1054 9.23478 10 9.5 10H15.5Z" fill="#2F6FED"/>
</svg>
