<svg width="139" height="42" viewBox="0 0 139 42" fill="none" xmlns="http://www.w3.org/2000/svg">
<g filter="url(#filter0_d_3914_35854)">
<rect x="2.5" y="1" width="134" height="38" rx="14" fill="#2F6FED"/>
<rect x="3" y="1.5" width="133" height="37" rx="13.5" stroke="#2F6FED"/>
<g clip-path="url(#clip0_3914_35854)">
<path d="M50.5 10C56.023 10 60.5 14.477 60.5 20C60.5 25.523 56.023 30 50.5 30H42.5C41.9696 30 41.4609 29.7893 41.0858 29.4142C40.7107 29.0391 40.5 28.5304 40.5 28V20C40.5 14.477 44.977 10 50.5 10ZM50.5 12C48.3783 12 46.3434 12.8429 44.8431 14.3431C43.3429 15.8434 42.5 17.8783 42.5 20V28H50.5C52.6217 28 54.6566 27.1571 56.1569 25.6569C57.6571 24.1566 58.5 22.1217 58.5 20C58.5 17.8783 57.6571 15.8434 56.1569 14.3431C54.6566 12.8429 52.6217 12 50.5 12ZM50.5 22C50.7549 22.0003 51 22.0979 51.1854 22.2728C51.3707 22.4478 51.4822 22.687 51.4972 22.9414C51.5121 23.1958 51.4293 23.4464 51.2657 23.6418C51.1021 23.8373 50.8701 23.9629 50.617 23.993L50.5 24H47.5C47.2451 23.9997 47 23.9021 46.8146 23.7272C46.6293 23.5522 46.5178 23.313 46.5028 23.0586C46.4879 22.8042 46.5707 22.5536 46.7343 22.3582C46.8979 22.1627 47.1299 22.0371 47.383 22.007L47.5 22H50.5ZM53.5 18C53.7652 18 54.0196 18.1054 54.2071 18.2929C54.3946 18.4804 54.5 18.7348 54.5 19C54.5 19.2652 54.3946 19.5196 54.2071 19.7071C54.0196 19.8946 53.7652 20 53.5 20H47.5C47.2348 20 46.9804 19.8946 46.7929 19.7071C46.6054 19.5196 46.5 19.2652 46.5 19C46.5 18.7348 46.6054 18.4804 46.7929 18.2929C46.9804 18.1054 47.2348 18 47.5 18H53.5Z" fill="white"/>
</g>
<path d="M78.697 22.753C78.7857 22.753 78.8627 22.788 78.928 22.858L79.579 23.565C79.1683 24.0597 78.6643 24.4423 78.067 24.713C77.4697 24.979 76.7557 25.112 75.925 25.112C75.1877 25.112 74.5203 24.986 73.923 24.734C73.3303 24.4773 72.824 24.1227 72.404 23.67C71.984 23.2127 71.6597 22.669 71.431 22.039C71.207 21.409 71.095 20.716 71.095 19.96C71.095 19.204 71.214 18.511 71.452 17.881C71.6947 17.2463 72.033 16.7027 72.467 16.25C72.9057 15.7927 73.4283 15.438 74.035 15.186C74.6463 14.934 75.3183 14.808 76.051 14.808C76.779 14.808 77.4207 14.927 77.976 15.165C78.536 15.3983 79.0213 15.711 79.432 16.103L78.893 16.866C78.8557 16.9173 78.8113 16.9617 78.76 16.999C78.7087 17.0363 78.6387 17.055 78.55 17.055C78.4567 17.055 78.3493 17.013 78.228 16.929C78.1113 16.8403 77.9597 16.7447 77.773 16.642C77.591 16.5347 77.36 16.439 77.08 16.355C76.8047 16.2663 76.4593 16.222 76.044 16.222C75.5633 16.222 75.1223 16.306 74.721 16.474C74.3197 16.642 73.9743 16.887 73.685 17.209C73.3957 17.531 73.1693 17.923 73.006 18.385C72.8473 18.847 72.768 19.372 72.768 19.96C72.768 20.5527 72.852 21.0823 73.02 21.549C73.188 22.011 73.419 22.403 73.713 22.725C74.007 23.0423 74.3523 23.285 74.749 23.453C75.1457 23.621 75.5727 23.705 76.03 23.705C76.31 23.705 76.5597 23.691 76.779 23.663C77.003 23.6303 77.2083 23.5813 77.395 23.516C77.5817 23.446 77.7567 23.3597 77.92 23.257C78.088 23.1543 78.2537 23.0283 78.417 22.879C78.5103 22.795 78.6037 22.753 78.697 22.753ZM82.2189 18.707C82.5129 18.4177 82.8349 18.1867 83.1849 18.014C83.5349 17.8367 83.9432 17.748 84.4099 17.748C84.8019 17.748 85.1449 17.8133 85.4389 17.944C85.7375 18.0747 85.9872 18.259 86.1879 18.497C86.3932 18.735 86.5472 19.022 86.6499 19.358C86.7525 19.6893 86.8039 20.0557 86.8039 20.457V25H85.3059V20.457C85.3059 19.9763 85.1939 19.603 84.9699 19.337C84.7505 19.071 84.4145 18.938 83.9619 18.938C83.6259 18.938 83.3132 19.015 83.0239 19.169C82.7392 19.323 82.4709 19.533 82.2189 19.799V25H80.7139V14.64H82.2189V18.707ZM92.3765 21.878C91.8399 21.8967 91.3872 21.941 91.0185 22.011C90.6499 22.0763 90.3512 22.1627 90.1225 22.27C89.8939 22.3727 89.7282 22.4963 89.6255 22.641C89.5275 22.7857 89.4785 22.9443 89.4785 23.117C89.4785 23.285 89.5042 23.4297 89.5555 23.551C89.6115 23.6677 89.6862 23.7657 89.7795 23.845C89.8775 23.9197 89.9895 23.9757 90.1155 24.013C90.2462 24.0457 90.3885 24.062 90.5425 24.062C90.9345 24.062 91.2705 23.9897 91.5505 23.845C91.8352 23.6957 92.1105 23.481 92.3765 23.201V21.878ZM88.3865 18.854C89.1939 18.1027 90.1552 17.727 91.2705 17.727C91.6812 17.727 92.0452 17.7947 92.3625 17.93C92.6845 18.0607 92.9529 18.2473 93.1675 18.49C93.3869 18.7327 93.5525 19.022 93.6645 19.358C93.7812 19.6893 93.8395 20.058 93.8395 20.464V25H93.1675C93.0229 25 92.9132 24.979 92.8385 24.937C92.7639 24.8903 92.7009 24.7993 92.6495 24.664L92.5025 24.083C92.3205 24.2463 92.1409 24.3933 91.9635 24.524C91.7862 24.65 91.6019 24.7573 91.4105 24.846C91.2239 24.9347 91.0209 25 90.8015 25.042C90.5869 25.0887 90.3489 25.112 90.0875 25.112C89.7982 25.112 89.5275 25.0723 89.2755 24.993C89.0282 24.9137 88.8135 24.7947 88.6315 24.636C88.4495 24.4727 88.3049 24.272 88.1975 24.034C88.0949 23.796 88.0435 23.516 88.0435 23.194C88.0435 22.9187 88.1159 22.6503 88.2605 22.389C88.4099 22.1277 88.6525 21.8943 88.9885 21.689C89.3292 21.479 89.7749 21.3063 90.3255 21.171C90.8809 21.0357 91.5645 20.9587 92.3765 20.94V20.464C92.3765 19.9507 92.2669 19.568 92.0475 19.316C91.8282 19.064 91.5062 18.938 91.0815 18.938C90.7922 18.938 90.5495 18.9753 90.3535 19.05C90.1575 19.12 89.9872 19.197 89.8425 19.281C89.6979 19.365 89.5695 19.4443 89.4575 19.519C89.3455 19.589 89.2265 19.624 89.1005 19.624C88.9979 19.624 88.9092 19.5983 88.8345 19.547C88.7645 19.491 88.7062 19.4233 88.6595 19.344L88.3865 18.854ZM97.7958 25.112C97.2032 25.112 96.7458 24.9463 96.4238 24.615C96.1065 24.279 95.9478 23.8077 95.9478 23.201V19.043H95.1638C95.0798 19.043 95.0075 19.0173 94.9468 18.966C94.8862 18.91 94.8558 18.8283 94.8558 18.721V18.112L96.0108 17.944L96.3398 15.879C96.3632 15.7997 96.4028 15.7367 96.4588 15.69C96.5148 15.6387 96.5895 15.613 96.6828 15.613H97.4528V17.958H99.4338V19.043H97.4528V23.096C97.4528 23.3527 97.5158 23.5487 97.6418 23.684C97.7678 23.8193 97.9358 23.887 98.1458 23.887C98.2625 23.887 98.3628 23.873 98.4468 23.845C98.5308 23.8123 98.6032 23.7797 98.6638 23.747C98.7245 23.7097 98.7758 23.677 98.8178 23.649C98.8645 23.6163 98.9088 23.6 98.9508 23.6C99.0348 23.6 99.1025 23.6467 99.1538 23.74L99.6018 24.475C99.3685 24.6803 99.0932 24.839 98.7758 24.951C98.4585 25.0583 98.1318 25.112 97.7958 25.112Z" fill="white"/>
</g>
<defs>
<filter id="filter0_d_3914_35854" x="0.5" y="0" width="138" height="42" filterUnits="userSpaceOnUse" color-interpolation-filters="sRGB">
<feFlood flood-opacity="0" result="BackgroundImageFix"/>
<feColorMatrix in="SourceAlpha" type="matrix" values="0 0 0 0 0 0 0 0 0 0 0 0 0 0 0 0 0 0 127 0" result="hardAlpha"/>
<feOffset dy="1"/>
<feGaussianBlur stdDeviation="1"/>
<feColorMatrix type="matrix" values="0 0 0 0 0.0627451 0 0 0 0 0.0941176 0 0 0 0 0.156863 0 0 0 0.05 0"/>
<feBlend mode="normal" in2="BackgroundImageFix" result="effect1_dropShadow_3914_35854"/>
<feBlend mode="normal" in="SourceGraphic" in2="effect1_dropShadow_3914_35854" result="shape"/>
</filter>
<clipPath id="clip0_3914_35854">
<rect width="24" height="24" fill="white" transform="translate(38.5 8)"/>
</clipPath>
</defs>
</svg>
