<svg width="73" height="42" viewBox="0 0 73 42" fill="none" xmlns="http://www.w3.org/2000/svg">
<g filter="url(#filter0_d_3914_35717)">
<rect x="2.5" y="1" width="68" height="38" rx="14" fill="#2F6FED"/>
<rect x="3" y="1.5" width="67" height="37" rx="13.5" stroke="#2F6FED"/>
<path d="M39.5299 17.5009L39.5149 17.5H39.5L33.5 17.5L33.4994 17.5C33.1171 17.5004 32.7494 17.6468 32.4714 17.9093C32.1934 18.1717 32.0261 18.5304 32.0037 18.9121C31.9813 19.2938 32.1055 19.6696 32.3508 19.9627C32.5962 20.2559 32.9443 20.4443 33.3239 20.4895L33.3385 20.4912L33.3531 20.4921L33.4701 20.4991L33.4851 20.5H33.5H39.5H39.5006C39.8829 20.4996 40.2506 20.3532 40.5286 20.0907C40.8066 19.8283 40.9739 19.4696 40.9963 19.0879C41.0187 18.7062 40.8945 18.3304 40.6492 18.0373C40.4038 17.7441 40.0557 17.5557 39.6761 17.5105L39.6615 17.5088L39.6469 17.5079L39.5299 17.5009ZM36.5 10.5C41.7469 10.5 46 14.7531 46 20C46 25.2469 41.7469 29.5 36.5 29.5H28.5C28.1022 29.5 27.7206 29.342 27.4393 29.0607C27.158 28.7794 27 28.3978 27 28V20C27 14.7531 31.2531 10.5 36.5 10.5ZM36.5 21.5H33.5C33.1022 21.5 32.7206 21.658 32.4393 21.9393C32.158 22.2206 32 22.6022 32 23C32 23.3978 32.158 23.7794 32.4393 24.0607C32.7206 24.342 33.1022 24.5 33.5 24.5H36.5C36.8978 24.5 37.2794 24.342 37.5607 24.0607C37.842 23.7794 38 23.3978 38 23C38 22.6022 37.842 22.2206 37.5607 21.9393C37.2794 21.658 36.8978 21.5 36.5 21.5Z" fill="white" stroke="white"/>
</g>
<defs>
<filter id="filter0_d_3914_35717" x="0.5" y="0" width="72" height="42" filterUnits="userSpaceOnUse" color-interpolation-filters="sRGB">
<feFlood flood-opacity="0" result="BackgroundImageFix"/>
<feColorMatrix in="SourceAlpha" type="matrix" values="0 0 0 0 0 0 0 0 0 0 0 0 0 0 0 0 0 0 127 0" result="hardAlpha"/>
<feOffset dy="1"/>
<feGaussianBlur stdDeviation="1"/>
<feColorMatrix type="matrix" values="0 0 0 0 0.0627451 0 0 0 0 0.0941176 0 0 0 0 0.156863 0 0 0 0.05 0"/>
<feBlend mode="normal" in2="BackgroundImageFix" result="effect1_dropShadow_3914_35717"/>
<feBlend mode="normal" in="SourceGraphic" in2="effect1_dropShadow_3914_35717" result="shape"/>
</filter>
</defs>
</svg>
