<svg width="22" height="20" viewBox="0 0 22 20" fill="none" xmlns="http://www.w3.org/2000/svg">
<path d="M17.8 4.4C15.916 1.888 13.52 0.5 11 0.5C8.48001 0.5 6.08401 1.888 4.20001 4.4C2.78301 6.289 1.07401 8.84 0.838014 11.524C0.717014 12.908 0.985014 14.325 1.85701 15.674C2.71801 17.006 4.12501 18.205 6.17201 19.254C7.43101 19.899 8.80201 19.034 8.98101 17.771C8.57701 17.501 8.18101 17.164 7.81901 16.77C6.80601 15.665 5.99901 14.047 5.99901 12C5.99901 8.572 7.76901 6.265 9.89901 5.656C10.181 5.576 10.499 5.788 10.533 6.08C10.6742 7.28899 11.2515 8.40498 12.1567 9.21871C13.0619 10.0324 14.2329 10.488 15.45 10.5C16.124 10.506 16 11.56 16 12C16 14.047 15.194 15.665 14.18 16.77C13.818 17.166 13.42 17.504 13.016 17.773C13.176 19.041 14.534 19.913 15.794 19.304C17.959 18.26 19.437 17.061 20.332 15.719C21.239 14.357 21.495 12.922 21.339 11.525C21.039 8.835 19.202 6.268 17.8 4.4Z" fill="#2F6FED"/>
</svg>
