<svg width="21" height="20" viewBox="0 0 21 20" fill="none" xmlns="http://www.w3.org/2000/svg">
<path d="M10.375 0C15.898 0 20.375 4.477 20.375 10C20.375 15.523 15.898 20 10.375 20H2.375C1.84457 20 1.33586 19.7893 0.960786 19.4142C0.585714 19.0391 0.375 18.5304 0.375 18V10C0.375 4.477 4.852 0 10.375 0ZM10.375 12H7.375C7.10978 12 6.85543 12.1054 6.66789 12.2929C6.48036 12.4804 6.375 12.7348 6.375 13C6.375 13.2652 6.48036 13.5196 6.66789 13.7071C6.85543 13.8946 7.10978 14 7.375 14H10.375C10.6402 14 10.8946 13.8946 11.0821 13.7071C11.2696 13.5196 11.375 13.2652 11.375 13C11.375 12.7348 11.2696 12.4804 11.0821 12.2929C10.8946 12.1054 10.6402 12 10.375 12ZM13.375 8H7.375C7.12012 8.00028 6.87497 8.09788 6.68963 8.27285C6.5043 8.44782 6.39276 8.68695 6.37783 8.94139C6.36289 9.19584 6.44567 9.44638 6.60926 9.64183C6.77285 9.83729 7.0049 9.9629 7.258 9.993L7.375 10H13.375C13.6299 9.99972 13.875 9.90212 14.0604 9.72715C14.2457 9.55218 14.3572 9.31305 14.3722 9.05861C14.3871 8.80416 14.3043 8.55362 14.1407 8.35817C13.9771 8.16271 13.7451 8.0371 13.492 8.007L13.375 8Z" fill="#2F6FED"/>
</svg>
