<svg width="21" height="20" viewBox="0 0 21 20" fill="none" xmlns="http://www.w3.org/2000/svg">
<path d="M13.5299 7.50089L13.5149 7.5H13.5L7.5 7.5L7.49945 7.5C7.11713 7.50042 6.7494 7.64682 6.47139 7.90927C6.19339 8.17173 6.02609 8.53043 6.00369 8.91209C5.98128 9.29375 6.10546 9.66957 6.35084 9.96275C6.59623 10.2559 6.9443 10.4443 7.32395 10.4895L7.3385 10.4912L7.35314 10.4921L7.47014 10.4991L7.48506 10.5H7.5H13.5H13.5006C13.8829 10.4996 14.2506 10.3532 14.5286 10.0907C14.8066 9.82827 14.9739 9.46957 14.9963 9.08791C15.0187 8.70625 14.8945 8.33043 14.6492 8.03725C14.4038 7.74407 14.0557 7.55566 13.6761 7.5105L13.6615 7.50877L13.6469 7.50789L13.5299 7.50089ZM10.5 0.5C15.7469 0.5 20 4.75314 20 10C20 15.2469 15.7469 19.5 10.5 19.5H2.5C2.10218 19.5 1.72064 19.342 1.43934 19.0607C1.15804 18.7794 1 18.3978 1 18V10C1 4.75314 5.25314 0.5 10.5 0.5ZM10.5 11.5H7.5C7.10218 11.5 6.72064 11.658 6.43934 11.9393C6.15804 12.2206 6 12.6022 6 13C6 13.3978 6.15804 13.7794 6.43934 14.0607C6.72064 14.342 7.10218 14.5 7.5 14.5H10.5C10.8978 14.5 11.2794 14.342 11.5607 14.0607C11.842 13.7794 12 13.3978 12 13C12 12.6022 11.842 12.2206 11.5607 11.9393C11.2794 11.658 10.8978 11.5 10.5 11.5Z" fill="white" stroke="white"/>
</svg>
