<svg width="32" height="32" viewBox="0 0 32 32" fill="none" xmlns="http://www.w3.org/2000/svg">
<rect width="32" height="32" rx="10" fill="#D30BA7"/>
<g clip-path="url(#clip0_253_14859)">
<path d="M10.167 13.5003C10.167 11.9532 10.7816 10.4695 11.8755 9.37554C12.9695 8.28157 14.4532 7.66699 16.0003 7.66699C17.5474 7.66699 19.0312 8.28157 20.1251 9.37554C21.2191 10.4695 21.8337 11.9532 21.8337 13.5003V14.3628C23.247 14.5653 24.3337 15.7812 24.3337 17.2503V17.4587C24.3337 18.9378 23.0578 20.2345 21.557 20.1653C20.9403 21.932 19.372 23.1228 17.6795 23.4245C17.2878 23.5678 16.8245 23.5003 16.417 23.5003C16.0855 23.5003 15.7675 23.3686 15.5331 23.1342C15.2987 22.8998 15.167 22.5818 15.167 22.2503C15.167 21.9188 15.2987 21.6009 15.5331 21.3664C15.7675 21.132 16.0855 21.0003 16.417 21.0003C17.0778 21.0003 17.8095 20.9045 18.2562 21.5078C19.3362 20.9937 20.167 19.9078 20.167 18.5003V13.5003C20.167 12.3953 19.728 11.3354 18.9466 10.554C18.1652 9.77265 17.1054 9.33366 16.0003 9.33366C14.8953 9.33366 13.8354 9.77265 13.054 10.554C12.2726 11.3354 11.8337 12.3953 11.8337 13.5003V18.7087C11.8337 19.0954 11.68 19.4664 11.4065 19.7399C11.133 20.0133 10.7621 20.167 10.3753 20.167C9.65703 20.167 8.96816 19.8816 8.46024 19.3737C7.95233 18.8658 7.66699 18.177 7.66699 17.4587V17.2503C7.66681 16.5488 7.91946 15.8708 8.37862 15.3405C8.83778 14.8101 9.4727 14.463 10.167 14.3628V13.5003Z" fill="white"/>
</g>
<defs>
<clipPath id="clip0_253_14859">
<rect width="20" height="20" fill="white" transform="translate(6 6)"/>
</clipPath>
</defs>
</svg>
