<svg width="32" height="32" viewBox="0 0 32 32" fill="none" xmlns="http://www.w3.org/2000/svg">
<rect width="32" height="32" rx="10" fill="#3FD30B"/>
<path d="M15.9997 16C17.5604 16 18.9753 16.5163 20.0118 17.2392C20.9981 17.9269 21.833 18.9484 21.833 20.0476C21.833 20.6512 21.5758 21.1509 21.1701 21.5232C20.7883 21.8734 20.2899 22.1005 19.7766 22.2558C18.7505 22.5664 17.3999 22.6667 15.9997 22.6667C14.5994 22.6667 13.2489 22.5664 12.2227 22.2558C11.7094 22.1005 11.211 21.8734 10.8292 21.5232C10.4235 21.1509 10.1663 20.6512 10.1663 20.0476C10.1663 18.9484 11.0013 17.9269 11.9875 17.2392C13.024 16.5163 14.4389 16 15.9997 16ZM21.833 16.8333C22.7034 16.8333 23.4933 17.1204 24.0774 17.5278C24.6113 17.9001 25.1663 18.5198 25.1663 19.2738C25.1663 19.7048 24.9791 20.0624 24.6999 20.3186C24.4447 20.5528 24.1293 20.6898 23.8422 20.7768C23.4504 20.8953 22.9879 20.956 22.5079 20.9827C22.6098 20.6953 22.6663 20.3826 22.6663 20.0476C22.6663 18.7681 21.8672 17.682 20.9729 16.9275C21.2468 16.8669 21.5352 16.8333 21.833 16.8333ZM10.1663 16.8333C10.4641 16.8333 10.7525 16.8669 11.0264 16.9275C10.1322 17.682 9.33301 18.7681 9.33301 20.0476C9.33301 20.3826 9.38953 20.6953 9.4914 20.9827C9.01142 20.956 8.54891 20.8953 8.15718 20.7768C7.87005 20.6898 7.55467 20.5528 7.29943 20.3186C7.02023 20.0624 6.83301 19.7048 6.83301 19.2738C6.83301 18.5198 7.38811 17.9001 7.9219 17.5278C8.50607 17.1204 9.29593 16.8333 10.1663 16.8333ZM21.4163 11.8333C22.5669 11.8333 23.4997 12.7661 23.4997 13.9167C23.4997 15.0673 22.5669 16 21.4163 16C20.2658 16 19.333 15.0673 19.333 13.9167C19.333 12.7661 20.2658 11.8333 21.4163 11.8333ZM10.583 11.8333C11.7336 11.8333 12.6663 12.7661 12.6663 13.9167C12.6663 15.0673 11.7336 16 10.583 16C9.43242 16 8.49967 15.0673 8.49967 13.9167C8.49967 12.7661 9.43242 11.8333 10.583 11.8333ZM15.9997 8.5C17.8406 8.5 19.333 9.99238 19.333 11.8333C19.333 13.6743 17.8406 15.1667 15.9997 15.1667C14.1587 15.1667 12.6663 13.6743 12.6663 11.8333C12.6663 9.99238 14.1587 8.5 15.9997 8.5Z" fill="white"/>
</svg>
