<svg width="17" height="17" viewBox="0 0 17 17" fill="none" xmlns="http://www.w3.org/2000/svg">
<path d="M15.011 5.40586L15.0113 5.40558C15.197 5.21986 15.3444 4.99937 15.4449 4.7567L15.9068 4.94806L15.4449 4.75669C15.5454 4.51402 15.5972 4.25392 15.5972 3.99125C15.5972 3.72858 15.5454 3.46848 15.4449 3.22581L15.9068 3.03444L15.4449 3.2258C15.3444 2.98313 15.197 2.76264 15.0113 2.57692L15.011 2.57664L14.4221 1.98694L15.011 5.40586ZM15.011 5.40586L14.7762 5.64098L11.3583 2.22308L11.5941 1.98694L15.011 5.40586ZM12.8902 7.52667L5.66789 14.7489L5.66782 14.749C5.56848 14.8484 5.44322 14.9179 5.30632 14.9495L1.59321 15.8061L1.59269 15.8063C1.53756 15.819 1.48009 15.8176 1.42568 15.802C1.37128 15.7864 1.32173 15.7572 1.28171 15.7172C1.2417 15.6772 1.21253 15.6277 1.19695 15.5733L0.717261 15.7106L1.19695 15.5733C1.18138 15.5189 1.17991 15.4614 1.19269 15.4063L1.19278 15.4059L2.05028 11.6934L2.05036 11.693C2.08192 11.5559 2.1514 11.4305 2.25085 11.331C2.25085 11.331 2.25086 11.331 2.25086 11.331L9.4723 4.10879L12.8902 7.52667ZM13.0081 1.40137C13.5383 1.40137 14.0468 1.61188 14.4218 1.98664H11.5944C11.9694 1.61188 12.4779 1.40137 13.0081 1.40137Z" fill="#2F6FED" stroke="#2F6FED"/>
</svg>
