<svg width="20" height="20" viewBox="0 0 20 20" fill="none" xmlns="http://www.w3.org/2000/svg">
<path d="M10 0C15.523 0 20 4.477 20 10C20 15.523 15.523 20 10 20C4.477 20 0 15.523 0 10C0 4.477 4.477 0 10 0ZM10 2C7.87827 2 5.84344 2.84285 4.34315 4.34315C2.84285 5.84344 2 7.87827 2 10C2 12.1217 2.84285 14.1566 4.34315 15.6569C5.84344 17.1571 7.87827 18 10 18C12.1217 18 14.1566 17.1571 15.6569 15.6569C17.1571 14.1566 18 12.1217 18 10C18 7.87827 17.1571 5.84344 15.6569 4.34315C14.1566 2.84285 12.1217 2 10 2ZM12.8 11.857C12.8933 11.7629 13.0044 11.6882 13.1268 11.6374C13.2492 11.5866 13.3804 11.5606 13.513 11.561C13.6455 11.5614 13.7766 11.5881 13.8987 11.6396C14.0208 11.6911 14.1315 11.7663 14.2243 11.8609C14.317 11.9556 14.3901 12.0677 14.4391 12.1908C14.4882 12.3139 14.5123 12.4455 14.5101 12.578C14.5078 12.7105 14.4792 12.8413 14.426 12.9626C14.3728 13.084 14.2959 13.1936 14.2 13.285C13.0794 14.3858 11.5708 15.0018 10 15C8.42917 15.0018 6.92064 14.3858 5.8 13.285C5.61503 13.0984 5.51093 12.8465 5.5102 12.5838C5.50948 12.321 5.61219 12.0685 5.79613 11.8809C5.98006 11.6933 6.23045 11.5856 6.49316 11.5811C6.75586 11.5767 7.00977 11.6758 7.2 11.857C7.94682 12.5912 8.95271 13.0018 10 13C11.09 13 12.077 12.565 12.8 11.857ZM6.5 6C6.89782 6 7.27936 6.15804 7.56066 6.43934C7.84196 6.72064 8 7.10218 8 7.5C8 7.89782 7.84196 8.27936 7.56066 8.56066C7.27936 8.84196 6.89782 9 6.5 9C6.10218 9 5.72064 8.84196 5.43934 8.56066C5.15804 8.27936 5 7.89782 5 7.5C5 7.10218 5.15804 6.72064 5.43934 6.43934C5.72064 6.15804 6.10218 6 6.5 6ZM13.5 6C13.8978 6 14.2794 6.15804 14.5607 6.43934C14.842 6.72064 15 7.10218 15 7.5C15 7.89782 14.842 8.27936 14.5607 8.56066C14.2794 8.84196 13.8978 9 13.5 9C13.1022 9 12.7206 8.84196 12.4393 8.56066C12.158 8.27936 12 7.89782 12 7.5C12 7.10218 12.158 6.72064 12.4393 6.43934C12.7206 6.15804 13.1022 6 13.5 6Z" fill="#1D2433" fill-opacity="0.8"/>
</svg>
