<svg width="16" height="16" viewBox="0 0 16 16" fill="none" xmlns="http://www.w3.org/2000/svg">
<path d="M8.00004 15.1667C4.04671 15.1667 0.833374 11.9533 0.833374 8C0.833374 4.04667 4.04671 0.833336 8.00004 0.833336C11.9534 0.833336 15.1667 4.04667 15.1667 8C15.1667 11.9533 11.9534 15.1667 8.00004 15.1667ZM8.00004 1.83334C4.60004 1.83334 1.83337 4.6 1.83337 8C1.83337 11.4 4.60004 14.1667 8.00004 14.1667C11.4 14.1667 14.1667 11.4 14.1667 8C14.1667 4.6 11.4 1.83334 8.00004 1.83334Z" fill="#E02D3C"/>
<path d="M8 9.16667C7.72667 9.16667 7.5 8.94 7.5 8.66667V5.33334C7.5 5.06 7.72667 4.83334 8 4.83334C8.27333 4.83334 8.5 5.06 8.5 5.33334V8.66667C8.5 8.94 8.27333 9.16667 8 9.16667Z" fill="#E02D3C"/>
<path d="M8.00004 11.3333C7.91337 11.3333 7.82671 11.3133 7.74671 11.28C7.66671 11.2467 7.59337 11.2 7.52671 11.14C7.46671 11.0733 7.42004 11.0067 7.38671 10.92C7.35337 10.84 7.33337 10.7533 7.33337 10.6667C7.33337 10.58 7.35337 10.4933 7.38671 10.4133C7.42004 10.3333 7.46671 10.26 7.52671 10.1933C7.59337 10.1333 7.66671 10.0867 7.74671 10.0533C7.90671 9.98667 8.09337 9.98667 8.25337 10.0533C8.33337 10.0867 8.40671 10.1333 8.47337 10.1933C8.53337 10.26 8.58004 10.3333 8.61337 10.4133C8.64671 10.4933 8.66671 10.58 8.66671 10.6667C8.66671 10.7533 8.64671 10.84 8.61337 10.92C8.58004 11.0067 8.53337 11.0733 8.47337 11.14C8.40671 11.2 8.33337 11.2467 8.25337 11.28C8.17337 11.3133 8.08671 11.3333 8.00004 11.3333Z" fill="#E02D3C"/>
</svg>
