<svg width="24" height="23" viewBox="0 0 24 23" fill="none" xmlns="http://www.w3.org/2000/svg">
<path d="M23.0557 11.5001C23.0557 5.14878 17.9069 5.53131e-05 11.5557 5.53131e-05C5.20438 5.53131e-05 0.0556641 5.14878 0.0556641 11.5001C0.0556641 17.24 4.26105 21.9976 9.75879 22.8604V14.8243H6.83887V11.5001H9.75879V8.96646C9.75879 6.08427 11.4757 4.49224 14.1025 4.49224C15.3607 4.49224 16.6768 4.71685 16.6768 4.71685V7.54693H15.2266C13.7981 7.54693 13.3525 8.4334 13.3525 9.34284V11.5001H16.542L16.0321 14.8243H13.3525V22.8604C18.8503 21.9976 23.0557 17.24 23.0557 11.5001Z" fill="#1877F2"/>
</svg>
