<svg width="22" height="22" viewBox="0 0 22 22" fill="none" xmlns="http://www.w3.org/2000/svg">
<path fill-rule="evenodd" clip-rule="evenodd" d="M15.6667 14.5C17.1903 14.5 18.4877 15.4742 18.9683 16.8333H20.3333C20.6428 16.8333 20.9395 16.9562 21.1583 17.175C21.3771 17.3938 21.5 17.6906 21.5 18C21.5 18.3094 21.3771 18.6062 21.1583 18.825C20.9395 19.0438 20.6428 19.1667 20.3333 19.1667H18.9683C18.7273 19.8498 18.2803 20.4413 17.689 20.8597C17.0976 21.2782 16.3911 21.5029 15.6667 21.5029C14.9423 21.5029 14.2357 21.2782 13.6444 20.8597C13.053 20.4413 12.606 19.8498 12.365 19.1667H1.66667C1.35725 19.1667 1.0605 19.0438 0.841709 18.825C0.622916 18.6062 0.5 18.3094 0.5 18C0.5 17.6906 0.622916 17.3938 0.841709 17.175C1.0605 16.9562 1.35725 16.8333 1.66667 16.8333H12.365C12.6065 16.1507 13.0537 15.5598 13.645 15.1419C14.2363 14.7241 14.9426 14.4998 15.6667 14.5ZM15.6667 16.8333C15.3572 16.8333 15.0605 16.9562 14.8417 17.175C14.6229 17.3938 14.5 17.6906 14.5 18C14.5 18.3094 14.6229 18.6062 14.8417 18.825C15.0605 19.0438 15.3572 19.1667 15.6667 19.1667C15.9761 19.1667 16.2728 19.0438 16.4916 18.825C16.7104 18.6062 16.8333 18.3094 16.8333 18C16.8333 17.6906 16.7104 17.3938 16.4916 17.175C16.2728 16.9562 15.9761 16.8333 15.6667 16.8333ZM6.33333 7.5C7.02049 7.49991 7.69247 7.70209 8.26549 8.08134C8.83851 8.46058 9.28722 9.00012 9.55567 9.63267L9.63383 9.83333H20.3333C20.6307 9.83366 20.9167 9.94753 21.1329 10.1517C21.3492 10.3558 21.4793 10.6348 21.4967 10.9316C21.5141 11.2285 21.4175 11.5208 21.2267 11.7488C21.0358 11.9768 20.7651 12.1234 20.4698 12.1585L20.3333 12.1667H9.635C9.3998 12.832 8.96903 13.4107 8.39919 13.827C7.82934 14.2432 7.14701 14.4776 6.44166 14.4993C5.73631 14.521 5.04087 14.329 4.44652 13.9486C3.85216 13.5681 3.38665 13.017 3.111 12.3673L3.03167 12.1667H1.66667C1.36931 12.1663 1.0833 12.0525 0.86707 11.8483C0.650845 11.6442 0.520726 11.3652 0.503299 11.0684C0.485873 10.7715 0.582454 10.4792 0.773309 10.2512C0.964164 10.0232 1.23489 9.87662 1.53017 9.8415L1.66667 9.83333H3.03167C3.27318 9.15075 3.72038 8.55982 4.31167 8.14195C4.90297 7.72407 5.60928 7.49979 6.33333 7.5ZM6.33333 9.83333C6.02391 9.83333 5.72717 9.95625 5.50838 10.175C5.28958 10.3938 5.16667 10.6906 5.16667 11C5.16667 11.3094 5.28958 11.6062 5.50838 11.825C5.72717 12.0437 6.02391 12.1667 6.33333 12.1667C6.64275 12.1667 6.9395 12.0437 7.15829 11.825C7.37708 11.6062 7.5 11.3094 7.5 11C7.5 10.6906 7.37708 10.3938 7.15829 10.175C6.9395 9.95625 6.64275 9.83333 6.33333 9.83333ZM15.6667 0.5C17.1903 0.5 18.4877 1.47417 18.9683 2.83333H20.3333C20.6428 2.83333 20.9395 2.95625 21.1583 3.17504C21.3771 3.39383 21.5 3.69058 21.5 4C21.5 4.30942 21.3771 4.60617 21.1583 4.82496C20.9395 5.04375 20.6428 5.16667 20.3333 5.16667H18.9683C18.7273 5.84979 18.2803 6.44133 17.689 6.85975C17.0976 7.27816 16.3911 7.50286 15.6667 7.50286C14.9423 7.50286 14.2357 7.27816 13.6444 6.85975C13.053 6.44133 12.606 5.84979 12.365 5.16667H1.66667C1.35725 5.16667 1.0605 5.04375 0.841709 4.82496C0.622916 4.60617 0.5 4.30942 0.5 4C0.5 3.69058 0.622916 3.39383 0.841709 3.17504C1.0605 2.95625 1.35725 2.83333 1.66667 2.83333H12.365C12.6065 2.15075 13.0537 1.55982 13.645 1.14195C14.2363 0.724069 14.9426 0.499791 15.6667 0.5ZM15.6667 2.83333C15.3572 2.83333 15.0605 2.95625 14.8417 3.17504C14.6229 3.39383 14.5 3.69058 14.5 4C14.5 4.30942 14.6229 4.60617 14.8417 4.82496C15.0605 5.04375 15.3572 5.16667 15.6667 5.16667C15.9761 5.16667 16.2728 5.04375 16.4916 4.82496C16.7104 4.60617 16.8333 4.30942 16.8333 4C16.8333 3.69058 16.7104 3.39383 16.4916 3.17504C16.2728 2.95625 15.9761 2.83333 15.6667 2.83333Z" fill="white"/>
</svg>
