<svg width="20" height="20" viewBox="0 0 20 20" fill="none" xmlns="http://www.w3.org/2000/svg">
<path d="M14.1666 10.8333C14.1666 11.1648 14.0349 11.4827 13.8005 11.7171C13.5661 11.9516 13.2481 12.0833 12.9166 12.0833C12.5851 12.0833 12.2672 11.9516 12.0327 11.7171C11.7983 11.4827 11.6666 11.1648 11.6666 10.8333C11.6666 10.5017 11.7983 10.1838 12.0327 9.94937C12.2672 9.71495 12.5851 9.58325 12.9166 9.58325C13.2481 9.58325 13.5661 9.71495 13.8005 9.94937C14.0349 10.1838 14.1666 10.5017 14.1666 10.8333Z" fill="#1D2433" fill-opacity="0.8"/>
<path fill-rule="evenodd" clip-rule="evenodd" d="M4.01083 4.77335L13.1775 2.15418C13.4876 2.06556 13.814 2.05013 14.131 2.10912C14.4481 2.1681 14.7471 2.29989 15.0046 2.49409C15.262 2.6883 15.4709 2.93962 15.6147 3.22827C15.7585 3.51692 15.8334 3.83502 15.8333 4.15751V5.00001C16.2754 5.00001 16.6993 5.17561 17.0118 5.48817C17.3244 5.80073 17.5 6.22465 17.5 6.66668V15C17.5 15.442 17.3244 15.866 17.0118 16.1785C16.6993 16.4911 16.2754 16.6667 15.8333 16.6667H4.16667C3.72464 16.6667 3.30072 16.4911 2.98816 16.1785C2.67559 15.866 2.5 15.442 2.5 15V6.66668C2.5 5.79585 3.19583 5.00585 4.01083 4.77335ZM13.6358 3.75668C13.6978 3.73903 13.763 3.73599 13.8263 3.74778C13.8896 3.75957 13.9493 3.78587 14.0008 3.82463C14.0522 3.86339 14.0939 3.91355 14.1227 3.97116C14.1515 4.02877 14.1666 4.09228 14.1667 4.15668V5.00001H9.28333L13.6358 3.75668ZM4.16667 6.66668H15.8333V15H4.16667V6.66668Z" fill="#1D2433" fill-opacity="0.8"/>
</svg>
