<svg width="19" height="23" viewBox="0 0 19 23" fill="none" xmlns="http://www.w3.org/2000/svg">
<path fill-rule="evenodd" clip-rule="evenodd" d="M14.1665 1.89831V21.1016C14.1664 21.3558 14.111 21.6069 14.004 21.8374C13.8971 22.068 13.7412 22.2725 13.5472 22.4367C13.3533 22.6009 13.1259 22.7209 12.8808 22.7883C12.6358 22.8557 12.379 22.869 12.1283 22.8271L2.116 21.1588C1.57118 21.068 1.07626 20.7868 0.719288 20.3653C0.362313 19.9438 0.166436 19.4093 0.166504 18.857V4.14298C0.166436 3.59064 0.362313 3.05618 0.719288 2.63469C1.07626 2.2132 1.57118 1.93201 2.116 1.84115L12.1283 0.172815C12.3791 0.130949 12.636 0.144228 12.8811 0.211728C13.1262 0.279227 13.3537 0.399326 13.5477 0.563667C13.7417 0.728008 13.8975 0.932645 14.0044 1.16334C14.1113 1.39403 14.1666 1.64407 14.1665 1.89831ZM16.4998 3.33331C17.0885 3.33313 17.6555 3.55546 18.0871 3.95573C18.5188 4.356 18.7832 4.90463 18.8273 5.49165L18.8332 5.66665V17.3333C18.8334 17.922 18.611 18.489 18.2108 18.9206C17.8105 19.3523 17.2619 19.6167 16.6748 19.6608L16.4998 19.6666H15.3332V3.33331H16.4998ZM8.9165 9.74998C8.45238 9.74998 8.00726 9.93435 7.67907 10.2625C7.35088 10.5907 7.1665 11.0359 7.1665 11.5C7.1665 11.9641 7.35088 12.4092 7.67907 12.7374C8.00726 13.0656 8.45238 13.25 8.9165 13.25C9.38063 13.25 9.82575 13.0656 10.1539 12.7374C10.4821 12.4092 10.6665 11.9641 10.6665 11.5C10.6665 11.0359 10.4821 10.5907 10.1539 10.2625C9.82575 9.93435 9.38063 9.74998 8.9165 9.74998Z" fill="white"/>
</svg>
