<svg width="18" height="19" viewBox="0 0 18 19" fill="none" xmlns="http://www.w3.org/2000/svg">
<path fill-rule="evenodd" clip-rule="evenodd" d="M18 12V16C18 16.7652 17.7077 17.5015 17.1827 18.0583C16.6578 18.615 15.9399 18.9501 15.176 18.995L15 19H10V12H18ZM8 12V19H3C2.23479 19 1.49849 18.7077 0.941739 18.1827C0.384993 17.6578 0.0498925 16.9399 0.00500012 16.176L4.66045e-09 16V12H8ZM5.667 0C7.007 0 8.205 0.608 9 1.564C9.37947 1.10648 9.84917 0.732088 10.3798 0.464198C10.9104 0.196309 11.4905 0.0406707 12.084 0.00699997L12.334 0H12.4C13.0896 0 13.7509 0.273928 14.2385 0.761522C14.7261 1.24912 15 1.91044 15 2.6C15 3.016 14.925 3.414 14.789 3.783L14.699 4H15C15.7652 3.99996 16.5015 4.29233 17.0583 4.81728C17.615 5.34224 17.9501 6.06011 17.995 6.824L18 7V10H10V4H8V10H4.66045e-09V7C-4.26217e-05 6.23479 0.292325 5.49849 0.817284 4.94174C1.34224 4.38499 2.06011 4.04989 2.824 4.005L3 4H3.3C3.108 3.573 3 3.1 3 2.6C2.99995 1.9388 3.25183 1.30241 3.70437 0.820337C4.1569 0.33826 4.77611 0.0467068 5.436 0.00500011L5.6 0H5.667ZM5.667 2H5.6C5.44087 2 5.28826 2.06321 5.17574 2.17574C5.06321 2.28826 5 2.44087 5 2.6C5 2.9713 5.1475 3.3274 5.41005 3.58995C5.6726 3.8525 6.0287 4 6.4 4H7.976C7.8957 3.44462 7.61799 2.93677 7.19376 2.56947C6.76952 2.20216 6.22815 1.99999 5.667 2ZM12.4 2H12.333C11.213 2 10.278 2.788 10.053 3.84L10.023 4H11.6C11.9713 4 12.3274 3.8525 12.5899 3.58995C12.8525 3.3274 13 2.9713 13 2.6C13 2.4577 12.9494 2.32005 12.8572 2.21161C12.7651 2.10317 12.6374 2.031 12.497 2.008L12.4 2Z" fill="#2F6FED"/>
</svg>
