<svg width="24" height="23" viewBox="0 0 24 23" fill="none" xmlns="http://www.w3.org/2000/svg">
<path fill-rule="evenodd" clip-rule="evenodd" d="M23.2067 11.7614C23.2067 10.9459 23.1335 10.1618 22.9976 9.40909H12.1667V13.8575H18.3558C18.0892 15.295 17.2789 16.513 16.061 17.3284V20.2139H19.7776C21.9521 18.2118 23.2067 15.2636 23.2067 11.7614Z" fill="#4285F4"/>
<path fill-rule="evenodd" clip-rule="evenodd" d="M12.1666 22.9998C15.2716 22.9998 17.8748 21.9701 19.7775 20.2137L16.0609 17.3283C15.0311 18.0183 13.7139 18.426 12.1666 18.426C9.17136 18.426 6.63613 16.403 5.73182 13.6848H1.88977V16.6644C3.78204 20.4228 7.67113 22.9998 12.1666 22.9998Z" fill="#34A853"/>
<path fill-rule="evenodd" clip-rule="evenodd" d="M5.7319 13.6851C5.5019 12.9951 5.37122 12.258 5.37122 11.5001C5.37122 10.7421 5.5019 10.0051 5.7319 9.31506V6.33551H1.88985C1.11099 7.88801 0.666672 9.64437 0.666672 11.5001C0.666672 13.3557 1.11099 15.1121 1.88985 16.6646L5.7319 13.6851Z" fill="#FBBC05"/>
<path fill-rule="evenodd" clip-rule="evenodd" d="M12.1666 4.57386C13.855 4.57386 15.3709 5.15409 16.5627 6.29364L19.8611 2.99523C17.8695 1.13955 15.2664 0 12.1666 0C7.67113 0 3.78204 2.57705 1.88977 6.33545L5.73182 9.315C6.63613 6.59682 9.17136 4.57386 12.1666 4.57386Z" fill="#EA4335"/>
</svg>
