<svg width="21" height="16" viewBox="0 0 21 16" fill="none" xmlns="http://www.w3.org/2000/svg">
<path d="M2.75 0C2.21957 0 1.71086 0.210714 1.33579 0.585786C0.960714 0.960859 0.75 1.46957 0.75 2V14C0.75 14.5304 0.960714 15.0391 1.33579 15.4142C1.71086 15.7893 2.21957 16 2.75 16H14.75C15.2804 16 15.7891 15.7893 16.1642 15.4142C16.5393 15.0391 16.75 14.5304 16.75 14V11.79L18.844 13.08C19.0332 13.1967 19.2502 13.2608 19.4724 13.2657C19.6947 13.2706 19.9142 13.2161 20.1084 13.1079C20.3026 12.9997 20.4644 12.8417 20.5772 12.6501C20.69 12.4585 20.7496 12.2403 20.75 12.018V3.984C20.7502 3.76144 20.6909 3.54286 20.5784 3.35086C20.4658 3.15885 20.304 3.00039 20.1097 2.89182C19.9154 2.78326 19.6957 2.72854 19.4732 2.73332C19.2507 2.7381 19.0335 2.8022 18.844 2.919L16.75 4.21V2C16.75 1.46957 16.5393 0.960859 16.1642 0.585786C15.7891 0.210714 15.2804 0 14.75 0H2.75Z" fill="#1D2433" fill-opacity="0.65"/>
</svg>
