<svg width="21" height="20" viewBox="0 0 21 20" fill="none" xmlns="http://www.w3.org/2000/svg">
<path d="M10.75 0C16.273 0 20.75 4.477 20.75 10C20.75 15.523 16.273 20 10.75 20H2.75C2.21957 20 1.71086 19.7893 1.33579 19.4142C0.960714 19.0391 0.75 18.5304 0.75 18V10C0.75 4.477 5.227 0 10.75 0ZM10.75 12H7.75C7.48478 12 7.23043 12.1054 7.04289 12.2929C6.85536 12.4804 6.75 12.7348 6.75 13C6.75 13.2652 6.85536 13.5196 7.04289 13.7071C7.23043 13.8946 7.48478 14 7.75 14H10.75C11.0152 14 11.2696 13.8946 11.4571 13.7071C11.6446 13.5196 11.75 13.2652 11.75 13C11.75 12.7348 11.6446 12.4804 11.4571 12.2929C11.2696 12.1054 11.0152 12 10.75 12ZM13.75 8H7.75C7.49512 8.00028 7.24997 8.09788 7.06463 8.27285C6.8793 8.44782 6.76776 8.68695 6.75283 8.94139C6.73789 9.19584 6.82067 9.44638 6.98426 9.64183C7.14785 9.83729 7.3799 9.9629 7.633 9.993L7.75 10H13.75C14.0049 9.99972 14.25 9.90212 14.4354 9.72715C14.6207 9.55218 14.7322 9.31305 14.7472 9.05861C14.7621 8.80416 14.6793 8.55362 14.5157 8.35817C14.3521 8.16271 14.1201 8.0371 13.867 8.007L13.75 8Z" fill="#1D2433" fill-opacity="0.65"/>
</svg>
