<svg width="17" height="15" viewBox="0 0 17 15" fill="none" xmlns="http://www.w3.org/2000/svg">
<g opacity="0.8">
<path fill-rule="evenodd" clip-rule="evenodd" d="M11.0115 3.46526C11.2722 3.14339 11.2227 2.67111 10.9008 2.41039C10.5789 2.14968 10.1066 2.19925 9.84592 2.52112L3.88829 9.8761L1.45729 7.46111C1.16343 7.16919 0.688554 7.17075 0.396631 7.46461C0.104707 7.75847 0.106277 8.23335 0.400137 8.52527L3.42003 11.5253C3.57051 11.6748 3.77725 11.7535 3.98905 11.7421C4.20084 11.7307 4.3979 11.6301 4.5314 11.4653L11.0115 3.46526ZM15.9938 3.48631C16.2662 3.1742 16.2339 2.70042 15.9218 2.4281C15.6097 2.15577 15.1359 2.18803 14.8636 2.50014L8.40609 9.90117L7.95379 9.4577C7.65803 9.1677 7.18318 9.17238 6.89318 9.46814C6.60319 9.76391 6.60787 10.2388 6.90363 10.5288L7.92353 11.5288C8.07096 11.6733 8.27147 11.7507 8.47779 11.7427C8.68411 11.7346 8.87799 11.6419 9.01374 11.4863L15.9938 3.48631Z" fill="#1D2433" fill-opacity="0.65"/>
</g>
</svg>
