<svg width="21" height="21" viewBox="0 0 21 21" fill="none" xmlns="http://www.w3.org/2000/svg">
<path d="M6.25614 7.79392L8.18827 6.35894C8.36731 6.19838 8.48291 5.97873 8.51371 5.73985C8.54522 5.49536 8.48569 5.24782 8.34645 5.04439L8.3452 5.04258L7.9298 4.42991L7.929 4.42875L7.48895 3.78759C6.73638 2.71036 5.88558 1.63124 4.81323 0.849539C4.67715 0.751119 4.51783 0.689717 4.35089 0.671347C4.18373 0.652954 4.01465 0.678336 3.86026 0.745004L3.85898 0.745558L3.85898 0.745556C2.06214 1.5155 0.548013 3.48158 0.617562 5.42557L0.632905 5.71327L0.651651 5.93166L0.679093 6.1758L0.717312 6.44429L0.765874 6.74051C0.784098 6.84232 0.803721 6.94387 0.824736 7.04514L0.900174 7.37978L0.990656 7.73208L1.09644 8.10232L1.22269 8.49271C1.82557 10.269 3.01585 12.5437 5.3606 14.8884C7.70637 17.2342 9.98104 18.4245 11.7573 19.0273L12.1477 19.1536L12.518 19.2594L12.8724 19.3504C12.9265 19.3631 12.9807 19.3754 13.035 19.3873C13.0354 19.3874 13.0359 19.3875 13.0363 19.3876L13.3651 19.4581C13.4133 19.4674 13.4616 19.4765 13.5099 19.4852L13.804 19.5334L14.0734 19.5699L14.3193 19.5984L14.5376 19.6172L14.8252 19.6335C16.7768 19.7027 18.7271 18.2056 19.5005 16.401L19.5009 16.4C19.5697 16.2405 19.5944 16.0655 19.5724 15.8933C19.5505 15.7212 19.4829 15.5582 19.3766 15.4212C18.4097 14.1839 17.1358 13.244 15.8984 12.3851L6.25614 7.79392ZM6.25614 7.79392C6.06539 7.93284 5.93113 8.13595 5.8781 8.36598C5.82478 8.59729 5.85722 8.84009 5.96941 9.04928L5.96938 9.04929L5.97202 9.05408C6.42759 9.88174 7.24 11.121 8.18449 12.0655L8.18469 12.0657C9.12916 13.0091 10.4228 13.8726 11.3015 14.3758L11.3015 14.3759L11.3053 14.378C11.5245 14.501 11.7825 14.5354 12.0263 14.4741C12.2686 14.4131 12.4786 14.2622 12.6136 14.052L13.8722 12.1363C14.0278 11.9356 14.2539 11.8013 14.5049 11.7608C14.7606 11.7195 15.0224 11.7787 15.2354 11.9261C15.2355 11.9261 15.2355 11.9261 15.2355 11.9261L15.8979 12.3847L6.25614 7.79392ZM15.7209 7.08251L15.7212 7.08461C15.7395 7.2112 15.7086 7.34 15.6349 7.44451C15.5612 7.54902 15.4502 7.6213 15.3248 7.64647C15.1994 7.67164 15.0691 7.6478 14.9607 7.57983C14.8556 7.51389 14.7788 7.41129 14.7452 7.29212L14.728 7.20612C14.6721 6.82937 14.5099 6.47627 14.2601 6.18845C14.0069 5.89671 13.6747 5.68452 13.3035 5.57753L13.2895 5.57348L13.2752 5.57025L13.1202 5.53525L13.1088 5.53268L13.0973 5.53064C12.9718 5.50839 12.8594 5.43901 12.7834 5.3367C12.7073 5.23438 12.6731 5.10686 12.688 4.98022C12.7028 4.85357 12.7654 4.73737 12.8631 4.65539C12.9579 4.5758 13.0787 4.53429 13.2021 4.53863L13.2861 4.54804C13.9042 4.66029 14.4717 4.96381 14.9082 5.41595C15.3483 5.87173 15.6328 6.45512 15.7209 7.08251ZM13.5446 2.51003L13.5369 2.50953L13.5292 2.50927L13.2672 2.50027L13.2586 2.49997H13.25C13.1174 2.49997 12.9903 2.44729 12.8965 2.35352C12.8027 2.25976 12.75 2.13258 12.75 1.99997C12.75 1.86736 12.8027 1.74019 12.8965 1.64642C12.9903 1.55265 13.1174 1.49997 13.25 1.49997C14.7087 1.49997 16.1077 2.07943 17.1391 3.11088C18.1705 4.1422 18.7499 5.54093 18.75 6.99942C18.7499 7.12686 18.7011 7.24943 18.6136 7.3421C18.5261 7.43477 18.4066 7.49053 18.2793 7.498C18.1521 7.50547 18.0269 7.46408 17.9291 7.38228C17.8345 7.30309 17.7726 7.19181 17.7551 7.06996L17.75 6.98468C17.7465 5.84764 17.3125 4.75387 16.535 3.9237C15.7539 3.08977 14.6847 2.58434 13.5446 2.51003Z" stroke="#08875D"/>
</svg>
