<svg width="51" height="50" viewBox="0 0 51 50" fill="none" xmlns="http://www.w3.org/2000/svg">
<g clip-path="url(#clip0_2001_48246)">
<ellipse cx="10.5" cy="25" rx="5" ry="2" fill="#75CFEA"/>
<ellipse cx="14.759" cy="14.2267" rx="5.41466" ry="2.16586" transform="rotate(44.6174 14.759 14.2267)" fill="#CADD5E"/>
<ellipse cx="24.9301" cy="10.5149" rx="5.41466" ry="2.16586" transform="rotate(92.8246 24.9301 10.5149)" fill="#FFCF34"/>
<ellipse cx="35.8602" cy="14.3602" rx="5.41466" ry="2.16586" transform="rotate(135 35.8602 14.3602)" fill="#FBAF45"/>
<ellipse cx="40.9715" cy="25.312" rx="5.41466" ry="2.16586" transform="rotate(178.444 40.9715 25.312)" fill="#EF4C83"/>
<ellipse cx="35.9607" cy="35.2484" rx="5.41466" ry="2.16586" transform="rotate(-137.649 35.9607 35.2484)" fill="#AB4C9D"/>
<ellipse cx="26.0114" cy="40.5433" rx="5.41466" ry="2.16586" transform="rotate(-93.707 26.0114 40.5433)" fill="#5350A2"/>
<ellipse cx="14.9874" cy="35.2141" rx="5.41466" ry="2.16586" transform="rotate(-41.5904 14.9874 35.2141)" fill="#828DC6"/>
<mask id="mask0_2001_48246" style="mask-type:luminance" maskUnits="userSpaceOnUse" x="0" y="0" width="51" height="51">
<path d="M18.272 17.7484C18.1186 16.8988 17.8354 16.0314 17.4105 15.2053C16.6376 13.7184 15.3749 12.3672 13.4927 11.5176C12.8436 11.2226 12.1238 10.9865 11.3213 10.8213C11.4452 11.4232 11.6046 11.9837 11.7993 12.4971C12.5899 14.5976 13.9588 15.9783 15.4988 16.8043C16.3898 17.2882 17.3397 17.5891 18.272 17.7484ZM15.2569 24.9823C14.5489 24.4926 13.7405 24.0795 12.8554 23.7963C11.2505 23.2889 9.3978 23.224 7.46837 23.9556C6.80753 24.2034 6.12898 24.5516 5.44454 25C5.95787 25.3422 6.4594 25.6195 6.96094 25.8438C9.00838 26.7701 10.9496 26.776 12.6312 26.2745C13.6048 25.9913 14.4899 25.531 15.2569 24.9823ZM18.2484 32.228C17.3987 32.3814 16.5314 32.6587 15.7053 33.0895C14.2184 33.8624 12.8672 35.1251 12.0176 37.0073C11.7226 37.6564 11.4865 38.3762 11.3213 39.1787C11.9232 39.0548 12.4837 38.8955 12.997 38.7007C15.0976 37.9101 16.4783 36.5412 17.3043 35.0012C17.7882 34.1102 18.0891 33.1603 18.2484 32.228ZM25.4823 35.2431C24.9926 35.9511 24.5795 36.7595 24.2963 37.6446C23.7889 39.2495 23.724 41.1022 24.4556 43.0316C24.7034 43.6925 25.0516 44.371 25.5 45.0555C25.8422 44.5421 26.1195 44.0406 26.3438 43.5391C27.2701 41.4916 27.276 39.5504 26.7745 37.8688C26.4913 36.8952 26.031 36.0102 25.4823 35.2431ZM32.728 32.2516C32.8814 33.1013 33.1587 33.9686 33.5894 34.7947C34.3624 36.2816 35.6251 37.6328 37.5073 38.4824C38.1564 38.7774 38.8762 39.0135 39.6787 39.1787C39.5548 38.5768 39.3954 38.0163 39.2007 37.503C38.4101 35.4024 37.0412 34.0217 35.5012 33.1957C34.6102 32.7118 33.6603 32.4109 32.728 32.2516ZM35.7431 25.0177C36.4511 25.5074 37.2595 25.9205 38.1446 26.2037C39.7495 26.7111 41.6022 26.776 43.5316 26.0444C44.1925 25.7966 44.871 25.4484 45.5555 25C45.0421 24.6578 44.5406 24.3805 44.0391 24.1562C41.9916 23.2299 40.0504 23.224 38.3688 23.7255C37.3952 24.0146 36.5101 24.469 35.7431 25.0177ZM32.7516 17.772C33.6012 17.6186 34.4686 17.3413 35.2947 16.9106C36.7816 16.1376 38.1328 14.8749 38.9824 12.9927C39.2774 12.3436 39.5134 11.6238 39.6787 10.8213C39.0768 10.9452 38.5163 11.1046 38.0029 11.2993C35.9024 12.0899 34.5217 13.4588 33.6957 14.9988C33.2118 15.8898 32.9109 16.8397 32.7516 17.772ZM27.2878 20.321C26.7096 20.0614 26.1136 19.7014 25.5295 19.2648C24.851 19.7722 24.1429 20.1676 23.4526 20.4272C22.8566 20.6514 22.1899 20.8225 21.4641 20.9228C21.3402 21.7666 21.1219 22.5454 20.821 23.2122C20.5614 23.7904 20.2014 24.3864 19.7648 24.9705C20.2722 25.649 20.6676 26.3571 20.9272 27.0474C21.1514 27.6434 21.3225 28.3101 21.4228 29.0359C22.2666 29.1598 23.0454 29.3781 23.7122 29.679C24.2904 29.9386 24.8864 30.2986 25.4705 30.7352C26.149 30.2278 26.8571 29.8324 27.5474 29.5728C28.1434 29.3486 28.8101 29.1775 29.5359 29.0772C29.6598 28.2334 29.8781 27.4546 30.179 26.7878C30.4386 26.2096 30.7986 25.6136 31.2352 25.0295C30.7278 24.351 30.3324 23.6429 30.0728 22.9526C29.8486 22.3566 29.6775 21.6899 29.5772 20.9641C28.7334 20.8402 27.9546 20.6219 27.2878 20.321ZM21.7709 5.16875C22.3492 3.89426 23.1752 2.60798 24.3199 1.32759L25.5 0L26.6801 1.32759C28.0195 2.83219 28.9281 4.3604 29.5005 5.865C30.5094 8.53788 30.4268 11.0928 29.7188 13.3172C29.2822 14.6979 28.6036 15.9429 27.7953 17.005C28.0608 17.182 28.3263 17.3295 28.5859 17.4475C28.875 17.5773 29.2054 17.6835 29.5654 17.7661C29.7424 16.35 30.1731 14.8808 30.9107 13.5119C32.073 11.3583 33.9907 9.44654 36.8878 8.34907C38.1918 7.85933 39.6905 7.53481 41.4075 7.43451L43.1717 7.3342L43.0714 9.09842C42.9534 11.1164 42.5227 12.8393 41.8618 14.3026C40.6876 16.9046 38.8113 18.6512 36.7403 19.7309C35.454 20.3977 34.0969 20.7989 32.7811 20.9759C32.846 21.2886 32.9286 21.5837 33.0289 21.8492C33.141 22.1442 33.3003 22.451 33.5009 22.7637C34.6279 21.8905 35.9732 21.1529 37.466 20.7104C39.8085 20.0083 42.5168 20.0142 45.3371 21.2886C46.6116 21.8669 47.8979 22.6929 49.1783 23.8376L50.5059 25.0177L49.1783 26.1978C47.6737 27.5372 46.1455 28.4458 44.6409 29.0182C41.968 30.0271 39.4072 29.9445 37.1887 29.2365C35.808 28.7999 34.563 28.1213 33.5009 27.313C33.3239 27.5785 33.1764 27.844 33.0584 28.1036C32.9286 28.3927 32.8224 28.7232 32.7398 29.0831C34.1559 29.2601 35.6251 29.6908 36.994 30.4284C39.1476 31.5908 41.0594 33.5084 42.1568 36.4055C42.6466 37.7095 42.9711 39.2082 43.0714 40.9252L43.1717 42.6894L41.4075 42.5891C39.3895 42.4711 37.6666 42.0404 36.2033 41.3795C33.6012 40.2053 31.8547 38.329 30.775 36.258C30.1082 34.9717 29.707 33.6146 29.53 32.2988C29.2172 32.3637 28.9222 32.4463 28.6567 32.5466C28.3617 32.6587 28.0549 32.818 27.7421 33.0186C28.6154 34.1456 29.353 35.4909 29.7955 36.9837C30.4976 39.3262 30.4917 42.0345 29.2173 44.8549C28.6449 46.1293 27.813 47.4156 26.6683 48.696L25.4882 50.0236L24.3081 48.696C22.9687 47.1914 22.0601 45.6632 21.4877 44.1586C20.4788 41.4857 20.5614 38.9308 21.2694 36.7064C21.706 35.3257 22.3846 34.0807 23.1929 33.0186C22.9274 32.8416 22.6619 32.6941 22.4023 32.5761C22.1132 32.4463 21.7827 32.3401 21.4228 32.2575C21.2458 33.6736 20.8151 35.1428 20.0775 36.5117C18.9151 38.6653 16.9975 40.5771 14.1004 41.6745C12.7964 42.1643 11.2977 42.4888 9.58072 42.5891L7.8165 42.6894L7.9168 40.9252C8.03481 38.9072 8.46554 37.1843 9.12639 35.721C10.3006 33.119 12.1769 31.3724 14.2479 30.2927C15.5342 29.6259 16.8913 29.2247 18.2071 29.0477C18.1422 28.735 18.0596 28.4399 17.9593 28.1744C17.8472 27.8794 17.6879 27.5726 17.4873 27.2599C16.3603 28.1331 15.015 28.8707 13.5222 29.3132C11.1797 30.0153 8.47144 30.0094 5.65105 28.735C4.37656 28.1626 3.09028 27.3307 1.80989 26.186L0.5 25L1.82759 23.8199C3.33219 22.4805 4.8604 21.5719 6.365 20.9995C9.03788 19.9906 11.5928 20.0732 13.8172 20.7812C15.1979 21.2178 16.4429 21.8964 17.505 22.7047C17.682 22.4392 17.8295 22.1737 17.9475 21.9141C18.0773 21.625 18.1835 21.2945 18.2661 20.9346C16.85 20.7576 15.3808 20.3269 14.0119 19.5893C11.8583 18.427 9.94654 16.5093 8.84907 13.6122C8.35933 12.3082 8.03481 10.8095 7.9345 9.09252L7.8342 7.3283L9.59842 7.42861C11.6164 7.54661 13.3393 7.97734 14.8026 8.63819C17.4046 9.81237 19.1512 11.6887 20.2309 13.7597C20.8977 15.046 21.2989 16.4031 21.4759 17.7189C21.7886 17.654 22.0837 17.5714 22.3492 17.4711C22.6442 17.359 22.951 17.1997 23.2637 16.9991C22.3905 15.8721 21.6529 14.5268 21.2104 13.034C20.4906 10.6915 20.4965 7.98914 21.7709 5.16875ZM25.5 4.95044C25.1578 5.46377 24.8805 5.96531 24.6562 6.46684C23.7299 8.51428 23.724 10.4555 24.2255 12.1371C24.5146 13.1048 24.969 13.9899 25.5177 14.7569C26.0074 14.0489 26.4205 13.2405 26.7037 12.3554C27.2111 10.7505 27.276 8.89781 26.5444 6.96837C26.2966 6.31343 25.9484 5.63488 25.5 4.95044Z" fill="white"/>
</mask>
<g mask="url(#mask0_2001_48246)">
<path d="M50.5 0H0.5V50H50.5V0Z" fill="url(#paint0_linear_2001_48246)"/>
</g>
<g style="mix-blend-mode:multiply" opacity="0.5">
<path d="M21.4641 17.7189C21.4641 17.7189 21.6765 19.5008 21.4641 20.9228C22.184 20.8225 22.8566 20.6514 23.4526 20.4272C24.1429 20.1676 24.851 19.7722 25.5295 19.2648L23.2519 17.005C22.9392 17.2056 22.6324 17.3649 22.3374 17.477C22.0719 17.5714 21.7768 17.654 21.4641 17.7189Z" fill="url(#paint1_linear_2001_48246)"/>
</g>
<g style="mix-blend-mode:multiply" opacity="0.5">
<path d="M17.505 22.6989C17.505 22.6989 18.9152 23.8081 19.7707 24.9646C20.2073 24.3805 20.5614 23.7904 20.8269 23.2122C21.1337 22.5395 21.352 21.7607 21.4759 20.9169L18.2661 20.9287C18.1894 21.2887 18.0832 21.6191 17.9534 21.9082C17.8295 22.1678 17.682 22.4333 17.505 22.6989Z" fill="url(#paint2_linear_2001_48246)"/>
</g>
<g style="mix-blend-mode:multiply" opacity="0.5">
<path d="M27.7953 16.9991C27.7953 16.9991 26.686 18.4092 25.5295 19.2648C26.1136 19.7014 26.7037 20.0555 27.2819 20.321C27.9546 20.6278 28.7334 20.8461 29.5772 20.97L29.5654 17.7602C29.2055 17.6835 28.875 17.5773 28.5859 17.4475C28.3322 17.3236 28.0608 17.1761 27.7953 16.9991Z" fill="url(#paint3_linear_2001_48246)"/>
</g>
<g style="mix-blend-mode:multiply" opacity="0.5">
<path d="M32.7811 20.9641C32.7811 20.9641 30.9992 21.1765 29.5772 20.9641C29.6775 21.684 29.8486 22.3566 30.0728 22.9526C30.3324 23.6429 30.7278 24.351 31.2352 25.0295L33.495 22.7519C33.2944 22.4392 33.1351 22.1324 33.023 21.8374C32.9286 21.5719 32.846 21.2768 32.7811 20.9641Z" fill="url(#paint4_linear_2001_48246)"/>
</g>
<g style="mix-blend-mode:multiply" opacity="0.5">
<path d="M33.5009 27.2953C33.5009 27.2953 32.0908 26.186 31.2352 25.0295C30.7986 25.6137 30.4445 26.2037 30.179 26.7819C29.8722 27.4546 29.6539 28.2334 29.53 29.0772L32.7398 29.0654C32.8165 28.7055 32.9227 28.375 33.0525 28.0859C33.1764 27.8322 33.3239 27.5608 33.5009 27.2953Z" fill="url(#paint5_linear_2001_48246)"/>
</g>
<g style="mix-blend-mode:multiply" opacity="0.5">
<path d="M29.5359 32.2811C29.5359 32.2811 29.3235 30.4992 29.5359 29.0772C28.816 29.1775 28.1434 29.3486 27.5474 29.5728C26.8571 29.8324 26.149 30.2278 25.4705 30.7352L27.7481 32.995C28.0608 32.7944 28.3676 32.6351 28.6626 32.523C28.9281 32.4286 29.2232 32.346 29.5359 32.2811Z" fill="url(#paint6_linear_2001_48246)"/>
</g>
<g style="mix-blend-mode:multiply" opacity="0.5">
<path d="M23.2047 33.0009C23.2047 33.0009 24.314 31.5907 25.4705 30.7352C24.8864 30.2986 24.2963 29.9445 23.7181 29.679C23.0454 29.3722 22.2666 29.1539 21.4228 29.03L21.4346 32.2398C21.7945 32.3165 22.125 32.4227 22.4141 32.5525C22.6737 32.6764 22.9392 32.8239 23.2047 33.0009Z" fill="url(#paint7_linear_2001_48246)"/>
</g>
<g style="mix-blend-mode:multiply" opacity="0.5">
<path d="M18.2189 29.0359C18.2189 29.0359 20.0008 28.8235 21.4228 29.0359C21.3225 28.316 21.1514 27.6434 20.9272 27.0474C20.6676 26.3571 20.2722 25.649 19.7648 24.9705L17.505 27.248C17.7056 27.5608 17.8649 27.8676 17.977 28.1626C18.0714 28.4281 18.154 28.7231 18.2189 29.0359Z" fill="url(#paint8_linear_2001_48246)"/>
</g>
<g style="mix-blend-mode:multiply" opacity="0.5">
<path d="M25.5 4.95043C25.1578 5.46377 24.8805 5.9653 24.6562 6.46683C23.7299 8.51427 23.724 10.4555 24.2255 12.1371C24.5146 13.1048 24.969 13.9898 25.5177 14.7569C25.5177 14.7569 24.5205 16.1789 23.2519 16.9991C22.3787 15.8721 21.6411 14.5268 21.1986 13.034C20.4965 10.6915 20.5024 7.98324 21.7768 5.16285C22.3551 3.88836 23.1811 2.60207 24.3258 1.32168L25.5059 -0.00590515L25.5 4.95043Z" fill="url(#paint9_linear_2001_48246)"/>
</g>
<g style="mix-blend-mode:multiply" opacity="0.5">
<path d="M39.6787 10.8213C39.0768 10.9452 38.5222 11.1046 38.0089 11.2934C35.9083 12.084 34.5276 13.4588 33.6957 14.9988C33.2177 15.8898 32.9109 16.8398 32.7575 17.7661C32.7575 17.7661 31.0464 18.067 29.5654 17.7484C29.7424 16.3323 30.1731 14.8631 30.9166 13.4942C32.0789 11.3406 33.9907 9.42885 36.8937 8.33727C38.1977 7.84164 39.7023 7.52302 41.4134 7.42271L43.1835 7.3224L39.6787 10.8213Z" fill="url(#paint10_linear_2001_48246)"/>
</g>
<g style="mix-blend-mode:multiply" opacity="0.5">
<path d="M45.5496 25C45.0362 24.6578 44.5347 24.3805 44.0332 24.1562C41.9857 23.2299 40.0445 23.224 38.3629 23.7255C37.3952 24.0146 36.5101 24.4749 35.7431 25.0177C35.7431 25.0177 34.3211 24.0205 33.5009 22.7519C34.6279 21.8787 35.9732 21.1411 37.466 20.6986C39.8085 19.9965 42.5168 20.0024 45.3371 21.2768C46.6116 21.8492 47.8979 22.6811 49.1783 23.8258L50.5059 25.0059L45.5496 25Z" fill="url(#paint11_linear_2001_48246)"/>
</g>
<g style="mix-blend-mode:multiply" opacity="0.5">
<path d="M39.6787 39.1787C39.5548 38.5768 39.3954 38.0222 39.2066 37.5088C38.416 35.4083 37.0412 34.0276 35.5012 33.1956C34.6102 32.7177 33.6603 32.4109 32.7339 32.2575C32.7339 32.2575 32.433 30.5464 32.7516 29.0654C34.1677 29.2424 35.6369 29.6731 37.0058 30.4166C39.1594 31.5789 41.0712 33.4966 42.1627 36.3937C42.6584 37.7036 42.977 39.2023 43.0773 40.9134L43.1776 42.6835L39.6787 39.1787Z" fill="url(#paint12_linear_2001_48246)"/>
</g>
<g style="mix-blend-mode:multiply" opacity="0.5">
<path d="M25.5059 45.0496C25.8481 44.5362 26.1254 44.0347 26.3497 43.5332C27.276 41.4857 27.2819 39.5445 26.7804 37.8629C26.4913 36.8952 26.031 36.0102 25.4882 35.2431C25.4882 35.2431 26.4854 33.8211 27.7599 33.0009C28.6331 34.1279 29.3707 35.4732 29.8132 36.966C30.5153 39.3085 30.5094 42.0168 29.235 44.8372C28.6567 46.1116 27.8307 47.3979 26.686 48.6783L25.5059 50.0059V45.0496Z" fill="url(#paint13_linear_2001_48246)"/>
</g>
<g style="mix-blend-mode:multiply" opacity="0.5">
<path d="M11.3272 39.1787C11.9291 39.0548 12.4837 38.8954 12.9971 38.7066C15.0976 37.916 16.4783 36.5412 17.3102 35.0012C17.7882 34.1102 18.095 33.1603 18.2484 32.2339C18.2484 32.2339 19.9595 31.933 21.4405 32.2516C21.2635 33.6677 20.8328 35.1369 20.0893 36.5058C18.927 38.6594 17.0093 40.5712 14.1122 41.6627C12.8082 42.1584 11.3036 42.477 9.59252 42.5773L7.8224 42.6776L11.3272 39.1787Z" fill="url(#paint14_linear_2001_48246)"/>
</g>
<g style="mix-blend-mode:multiply" opacity="0.5">
<path d="M5.45044 25.0059C5.96377 25.3481 6.46531 25.6254 6.96684 25.8496C9.01428 26.776 10.9555 26.7819 12.6371 26.2804C13.6048 25.9913 14.4899 25.5369 15.2569 24.9882C15.2569 24.9882 16.6789 25.9854 17.4991 27.2598C16.3721 28.1331 15.0268 28.8707 13.534 29.3132C11.1915 30.0153 8.48324 30.0094 5.66285 28.7349C4.38836 28.1626 3.10208 27.3306 1.82169 26.186L0.5 25L5.45044 25.0059Z" fill="url(#paint15_linear_2001_48246)"/>
</g>
<g style="mix-blend-mode:multiply" opacity="0.5">
<path d="M11.3213 10.8272C11.4452 11.4291 11.6046 11.9837 11.7934 12.4971C12.584 14.5976 13.9588 15.9783 15.4988 16.8102C16.3898 17.2882 17.3397 17.595 18.2661 17.7484C18.2661 17.7484 18.567 19.4595 18.2484 20.9405C16.8323 20.7635 15.3631 20.3328 13.9942 19.5893C11.8406 18.427 9.92884 16.5093 8.83727 13.6122C8.34163 12.3082 8.02301 10.8036 7.92271 9.09252L7.8224 7.3224L11.3213 10.8272Z" fill="url(#paint16_linear_2001_48246)"/>
</g>
</g>
<defs>
<linearGradient id="paint0_linear_2001_48246" x1="25.5008" y1="47.463" x2="25.5008" y2="3.72618" gradientUnits="userSpaceOnUse">
<stop stop-color="#1A85F8"/>
<stop offset="1" stop-color="#3EDC81"/>
</linearGradient>
<linearGradient id="paint1_linear_2001_48246" x1="21.4091" y1="19.5455" x2="23.6826" y2="17.7283" gradientUnits="userSpaceOnUse">
<stop stop-color="#01052D"/>
<stop offset="1" stop-color="#01052D" stop-opacity="0"/>
</linearGradient>
<linearGradient id="paint2_linear_2001_48246" x1="18.6818" y1="23.6364" x2="19.0588" y2="20.8374" gradientUnits="userSpaceOnUse">
<stop stop-color="#01052D"/>
<stop offset="1" stop-color="#01052D" stop-opacity="0"/>
</linearGradient>
<linearGradient id="paint3_linear_2001_48246" x1="26.8636" y1="18.1818" x2="29.1467" y2="19.0642" gradientUnits="userSpaceOnUse">
<stop stop-color="#01052D"/>
<stop offset="1" stop-color="#01052D" stop-opacity="0"/>
</linearGradient>
<linearGradient id="paint4_linear_2001_48246" x1="31.4091" y1="20.9091" x2="32.927" y2="23.5476" gradientUnits="userSpaceOnUse">
<stop stop-color="#01052D"/>
<stop offset="1" stop-color="#01052D" stop-opacity="0"/>
</linearGradient>
<linearGradient id="paint5_linear_2001_48246" x1="32.3182" y1="26.3636" x2="31.5984" y2="29.14" gradientUnits="userSpaceOnUse">
<stop stop-color="#01052D"/>
<stop offset="1" stop-color="#01052D" stop-opacity="0"/>
</linearGradient>
<linearGradient id="paint6_linear_2001_48246" x1="29.5909" y1="30.4546" x2="27.0575" y2="32.1142" gradientUnits="userSpaceOnUse">
<stop stop-color="#01052D"/>
<stop offset="1" stop-color="#01052D" stop-opacity="0"/>
</linearGradient>
<linearGradient id="paint7_linear_2001_48246" x1="24.1364" y1="31.8182" x2="21.726" y2="30.7713" gradientUnits="userSpaceOnUse">
<stop stop-color="#01052D"/>
<stop offset="1" stop-color="#01052D" stop-opacity="0"/>
</linearGradient>
<linearGradient id="paint8_linear_2001_48246" x1="20.0455" y1="29.0909" x2="18.2447" y2="26.6917" gradientUnits="userSpaceOnUse">
<stop stop-color="#01052D"/>
<stop offset="1" stop-color="#01052D" stop-opacity="0"/>
</linearGradient>
<linearGradient id="paint9_linear_2001_48246" x1="23.1239" y1="-0.00590515" x2="23.1239" y2="16.9991" gradientUnits="userSpaceOnUse">
<stop stop-color="#01052D" stop-opacity="0"/>
<stop offset="1" stop-color="#01052D"/>
</linearGradient>
<linearGradient id="paint10_linear_2001_48246" x1="30.9545" y1="17.7273" x2="42.3182" y2="8.18183" gradientUnits="userSpaceOnUse">
<stop stop-color="#01052D"/>
<stop offset="1" stop-color="#01052D" stop-opacity="0"/>
</linearGradient>
<linearGradient id="paint11_linear_2001_48246" x1="34.5909" y1="23.6364" x2="50.5" y2="24.5455" gradientUnits="userSpaceOnUse">
<stop stop-color="#01052D"/>
<stop offset="1" stop-color="#01052D" stop-opacity="0"/>
</linearGradient>
<linearGradient id="paint12_linear_2001_48246" x1="32.3182" y1="30.4545" x2="43.6818" y2="42.2727" gradientUnits="userSpaceOnUse">
<stop stop-color="#01052D"/>
<stop offset="1" stop-color="#01052D" stop-opacity="0"/>
</linearGradient>
<linearGradient id="paint13_linear_2001_48246" x1="27.885" y1="33.0009" x2="25.9545" y2="49.5455" gradientUnits="userSpaceOnUse">
<stop stop-color="#01052D"/>
<stop offset="1" stop-color="#01052D" stop-opacity="0"/>
</linearGradient>
<linearGradient id="paint14_linear_2001_48246" x1="20.0455" y1="31.8182" x2="7.77274" y2="42.7272" gradientUnits="userSpaceOnUse">
<stop stop-color="#01052D"/>
<stop offset="1" stop-color="#01052D" stop-opacity="0"/>
</linearGradient>
<linearGradient id="paint15_linear_2001_48246" x1="16.4091" y1="25.9091" x2="0.5" y2="25" gradientUnits="userSpaceOnUse">
<stop stop-color="#01052D"/>
<stop offset="1" stop-color="#01052D" stop-opacity="0"/>
</linearGradient>
<linearGradient id="paint16_linear_2001_48246" x1="18.6818" y1="19.0909" x2="7.77274" y2="7.72729" gradientUnits="userSpaceOnUse">
<stop stop-color="#01052D"/>
<stop offset="1" stop-color="#01052D" stop-opacity="0"/>
</linearGradient>
<clipPath id="clip0_2001_48246">
<rect width="50" height="50" fill="white" transform="translate(0.5)"/>
</clipPath>
</defs>
</svg>
