<svg width="41" height="41" viewBox="0 0 41 41" fill="none" xmlns="http://www.w3.org/2000/svg">
<g clip-path="url(#clip0_290_40274)">
<mask id="mask0_290_40274" style="mask-type:luminance" maskUnits="userSpaceOnUse" x="0" y="0" width="42" height="42">
<path d="M14.573 14.5537C14.4472 13.857 14.215 13.1457 13.8666 12.4684C13.2328 11.2491 12.1974 10.1411 10.654 9.44442C10.1218 9.2025 9.53151 9.00897 8.87349 8.8735C8.9751 9.367 9.10573 9.82665 9.2654 10.2476C9.91374 11.97 11.0362 13.1022 12.299 13.7796C13.0296 14.1763 13.8086 14.4231 14.573 14.5537ZM12.1007 20.4855C11.5201 20.0839 10.8572 19.7452 10.1315 19.513C8.81543 19.0969 7.2962 19.0437 5.71407 19.6436C5.17217 19.8468 4.61577 20.1323 4.05452 20.5C4.47545 20.7806 4.88671 21.008 5.29797 21.1919C6.97687 21.9515 8.56868 21.9563 9.9476 21.5451C10.7459 21.3128 11.4717 20.9354 12.1007 20.4855ZM14.5537 26.427C13.857 26.5527 13.1457 26.7801 12.4684 27.1333C11.2491 27.7672 10.1411 28.8026 9.44442 30.346C9.2025 30.8782 9.00897 31.4685 8.87349 32.1265C9.367 32.0249 9.82664 31.8943 10.2476 31.7346C11.97 31.0863 13.1022 29.9638 13.7796 28.701C14.1763 27.9704 14.4231 27.1914 14.5537 26.427ZM20.4855 28.8993C20.0839 29.4799 19.7452 30.1428 19.513 30.8685C19.0969 32.1846 19.0437 33.7038 19.6436 35.2859C19.8468 35.8278 20.1323 36.3842 20.5 36.9455C20.7806 36.5245 21.008 36.1133 21.1919 35.702C21.9515 34.0231 21.9563 32.4313 21.5451 31.0524C21.3128 30.2541 20.9354 29.5283 20.4855 28.8993ZM26.427 26.4463C26.5527 27.143 26.7801 27.8543 27.1333 28.5316C27.7672 29.7509 28.8026 30.8589 30.346 31.5556C30.8782 31.7975 31.4685 31.991 32.1265 32.1265C32.0249 31.633 31.8943 31.1734 31.7346 30.7524C31.0863 29.03 29.9638 27.8978 28.701 27.2204C27.9704 26.8237 27.1914 26.5769 26.427 26.4463ZM28.8993 20.5145C29.4799 20.9161 30.1428 21.2548 30.8685 21.487C32.1846 21.9031 33.7038 21.9563 35.2859 21.3564C35.8278 21.1532 36.3842 20.8677 36.9455 20.5C36.5245 20.2194 36.1133 19.992 35.702 19.8081C34.0231 19.0485 32.4313 19.0437 31.0524 19.4549C30.2541 19.692 29.5283 20.0646 28.8993 20.5145ZM26.4463 14.573C27.143 14.4473 27.8543 14.2198 28.5316 13.8667C29.7509 13.2328 30.8589 12.1974 31.5556 10.654C31.7975 10.1218 31.991 9.53151 32.1265 8.8735C31.633 8.9751 31.1733 9.10573 30.7524 9.2654C29.03 9.91374 27.8978 11.0362 27.2204 12.299C26.8237 13.0296 26.5769 13.8086 26.4463 14.573ZM21.966 16.6632C21.4919 16.4503 21.0032 16.1552 20.5242 15.7971C19.9678 16.2132 19.3872 16.5374 18.8211 16.7503C18.3324 16.9342 17.7857 17.0745 17.1906 17.1567C17.089 17.8486 16.91 18.4873 16.6632 19.034C16.4503 19.5081 16.1552 19.9968 15.7971 20.4758C16.2132 21.0322 16.5374 21.6128 16.7503 22.1789C16.9342 22.6676 17.0745 23.2143 17.1567 23.8094C17.8486 23.911 18.4873 24.09 19.034 24.3368C19.5081 24.5497 19.9968 24.8448 20.4758 25.2029C21.0322 24.7868 21.6128 24.4626 22.1789 24.2497C22.6676 24.0658 23.2143 23.9255 23.8094 23.8433C23.911 23.1514 24.09 22.5127 24.3368 21.966C24.5497 21.4919 24.8448 21.0032 25.2029 20.5242C24.7868 19.9678 24.4626 19.3872 24.2497 18.8211C24.0658 18.3324 23.9255 17.7857 23.8433 17.1906C23.1514 17.089 22.5127 16.91 21.966 16.6632ZM17.4422 4.23838C17.9163 3.1933 18.5937 2.13854 19.5323 1.08862L20.5 0L21.4677 1.08862C22.566 2.3224 23.3111 3.57553 23.7804 4.8093C24.6077 7.00106 24.54 9.09606 23.9594 10.9201C23.6014 12.0523 23.045 13.0732 22.3821 13.9441C22.5998 14.0892 22.8176 14.2102 23.0304 14.3069C23.2675 14.4134 23.5385 14.5005 23.8336 14.5682C23.9788 13.407 24.332 12.2023 24.9367 11.0798C25.8899 9.31378 27.4624 7.74616 29.838 6.84624C30.9072 6.44465 32.1362 6.17855 33.5441 6.09629L34.9908 6.01404L34.9085 7.4607C34.8118 9.11541 34.4586 10.5282 33.9167 11.7281C32.9539 13.8618 31.4153 15.294 29.717 16.1794C28.6623 16.7261 27.5494 17.0551 26.4705 17.2003C26.5237 17.4567 26.5915 17.6986 26.6737 17.9163C26.7656 18.1582 26.8963 18.4098 27.0608 18.6663C27.9849 17.9502 29.088 17.3454 30.3121 16.9825C32.2329 16.4068 34.4537 16.4116 36.7665 17.4567C37.8115 17.9308 38.8663 18.6082 39.9162 19.5468L41.0048 20.5145L39.9162 21.4822C38.6824 22.5805 37.4293 23.3256 36.1955 23.7949C34.0038 24.6223 31.9039 24.5545 30.0847 23.9739C28.9526 23.6159 27.9317 23.0595 27.0608 22.3966C26.9156 22.6143 26.7947 22.8321 26.6979 23.045C26.5915 23.282 26.5044 23.553 26.4366 23.8481C27.5978 23.9933 28.8026 24.3465 29.9251 24.9513C31.6911 25.9044 33.2587 27.4769 34.1586 29.8525C34.5602 30.9218 34.8263 32.1507 34.9085 33.5586L34.9908 35.0053L33.5441 34.9231C31.8894 34.8263 30.4766 34.4731 29.2767 33.9312C27.143 32.9684 25.7109 31.4298 24.8255 29.7315C24.2787 28.6768 23.9497 27.564 23.8046 26.485C23.5481 26.5382 23.3062 26.606 23.0885 26.6882C22.8466 26.7801 22.595 26.9108 22.3386 27.0753C23.0546 27.9994 23.6594 29.1025 24.0223 30.3266C24.5981 32.2475 24.5932 34.4683 23.5481 36.781C23.0788 37.8261 22.3966 38.8808 21.458 39.9307L20.4903 41.0194L19.5227 39.9307C18.4244 38.697 17.6793 37.4438 17.2099 36.2101C16.3826 34.0183 16.4503 31.9233 17.0309 30.0992C17.389 28.9671 17.9454 27.9462 18.6082 27.0753C18.3905 26.9301 18.1728 26.8092 17.9599 26.7124C17.7228 26.606 17.4519 26.5189 17.1567 26.4511C17.0116 27.6123 16.6584 28.8171 16.0536 29.9396C15.1004 31.7056 13.528 33.2732 11.1523 34.1731C10.0831 34.5747 8.85414 34.8408 7.44619 34.9231L5.99953 35.0053L6.08178 33.5586C6.17855 31.9039 6.53174 30.4911 7.07364 29.2912C8.03646 27.1575 9.57505 25.7254 11.2733 24.84C12.3281 24.2933 13.4409 23.9642 14.5198 23.8191C14.4666 23.5627 14.3989 23.3207 14.3166 23.103C14.2247 22.8611 14.0941 22.6095 13.9295 22.3531C13.0054 23.0692 11.9023 23.6739 10.6782 24.0368C8.75737 24.6126 6.53658 24.6077 4.22386 23.5627C3.17878 23.0933 2.12403 22.4111 1.07411 21.4725L0 20.5L1.08862 19.5323C2.3224 18.434 3.57552 17.6889 4.8093 17.2196C7.00106 16.3923 9.09606 16.46 10.9201 17.0406C12.0523 17.3986 13.0732 17.955 13.9441 18.6179C14.0892 18.4002 14.2102 18.1824 14.3069 17.9696C14.4134 17.7325 14.5005 17.4615 14.5682 17.1664C13.407 17.0212 12.2023 16.668 11.0798 16.0633C9.31378 15.1101 7.74616 13.5376 6.84623 11.162C6.44465 10.0928 6.17855 8.86382 6.09629 7.45586L6.01404 6.0092L7.4607 6.09146C9.11541 6.18822 10.5282 6.54142 11.7281 7.08331C13.8618 8.04614 15.294 9.58473 16.1794 11.283C16.7261 12.3377 17.0551 13.4506 17.2003 14.5295C17.4567 14.4763 17.6986 14.4085 17.9163 14.3263C18.1582 14.2344 18.4098 14.1037 18.6663 13.9392C17.9502 13.0151 17.3454 11.912 16.9825 10.6879C16.3923 8.76705 16.3971 6.5511 17.4422 4.23838ZM20.5 4.05936C20.2194 4.48029 19.992 4.89155 19.8081 5.30281C19.0485 6.98171 19.0437 8.57352 19.4549 9.95244C19.692 10.7459 20.0645 11.4717 20.5145 12.1007C20.9161 11.5201 21.2548 10.8572 21.487 10.1315C21.9031 8.81543 21.9563 7.2962 21.3564 5.71407C21.1532 5.17701 20.8677 4.6206 20.5 4.05936Z" fill="white"/>
</mask>
<g mask="url(#mask0_290_40274)">
<path d="M41 0H0V41H41V0Z" fill="white"/>
</g>
<g style="mix-blend-mode:multiply" opacity="0.5">
<path d="M17.1901 14.5295C17.1901 14.5295 17.3642 15.9907 17.1901 17.1567C17.7803 17.0745 18.3319 16.9342 18.8206 16.7503C19.3867 16.5374 19.9673 16.2133 20.5237 15.7972L18.6561 13.9441C18.3996 14.1086 18.1481 14.2392 17.9061 14.3312C17.6884 14.4086 17.4465 14.4763 17.1901 14.5295Z" fill="url(#paint0_linear_290_40274)"/>
</g>
<g style="mix-blend-mode:multiply" opacity="0.5">
<path d="M13.9443 18.6133C13.9443 18.6133 15.1007 19.5229 15.8023 20.4712C16.1603 19.9922 16.4506 19.5084 16.6683 19.0342C16.9199 18.4826 17.0989 17.844 17.2005 17.1521L14.5685 17.1618C14.5056 17.4569 14.4185 17.7279 14.312 17.9649C14.2104 18.1778 14.0895 18.3956 13.9443 18.6133Z" fill="url(#paint1_linear_290_40274)"/>
</g>
<g style="mix-blend-mode:multiply" opacity="0.5">
<path d="M22.3818 13.9393C22.3818 13.9393 21.4722 15.0957 20.5239 15.7972C21.0029 16.1553 21.4868 16.4456 21.9609 16.6633C22.5125 16.9149 23.1511 17.0939 23.843 17.1955L23.8333 14.5635C23.5382 14.5006 23.2673 14.4135 23.0302 14.307C22.8221 14.2054 22.5996 14.0845 22.3818 13.9393Z" fill="url(#paint2_linear_290_40274)"/>
</g>
<g style="mix-blend-mode:multiply" opacity="0.5">
<path d="M26.4704 17.1906C26.4704 17.1906 25.0092 17.3647 23.8431 17.1906C23.9254 17.7808 24.0657 18.3324 24.2496 18.8211C24.4624 19.3872 24.7866 19.9678 25.2027 20.5242L27.0558 18.6566C26.8913 18.4001 26.7607 18.1485 26.6687 17.9066C26.5913 17.6889 26.5236 17.447 26.4704 17.1906Z" fill="url(#paint3_linear_290_40274)"/>
</g>
<g style="mix-blend-mode:multiply" opacity="0.5">
<path d="M27.0609 22.3821C27.0609 22.3821 25.9045 21.4725 25.203 20.5242C24.8449 21.0032 24.5546 21.487 24.3369 21.9612C24.0853 22.5127 23.9063 23.1514 23.8047 23.8433L26.4367 23.8336C26.4996 23.5384 26.5867 23.2675 26.6932 23.0304C26.7948 22.8224 26.9157 22.5998 27.0609 22.3821Z" fill="url(#paint4_linear_290_40274)"/>
</g>
<g style="mix-blend-mode:multiply" opacity="0.5">
<path d="M23.8094 26.4707C23.8094 26.4707 23.6353 25.0095 23.8094 23.8435C23.2192 23.9258 22.6676 24.0661 22.1789 24.2499C21.6128 24.4628 21.0322 24.787 20.4758 25.2031L22.3434 27.0562C22.5999 26.8917 22.8514 26.761 23.0934 26.6691C23.3111 26.5917 23.553 26.5239 23.8094 26.4707Z" fill="url(#paint5_linear_290_40274)"/>
</g>
<g style="mix-blend-mode:multiply" opacity="0.5">
<path d="M18.618 27.0609C18.618 27.0609 19.5276 25.9045 20.476 25.203C19.997 24.8449 19.5131 24.5546 19.039 24.3369C18.4874 24.0853 17.8487 23.9063 17.1569 23.8047L17.1665 26.4367C17.4617 26.4996 17.7326 26.5867 17.9697 26.6932C18.1826 26.7948 18.4003 26.9157 18.618 27.0609Z" fill="url(#paint6_linear_290_40274)"/>
</g>
<g style="mix-blend-mode:multiply" opacity="0.5">
<path d="M14.5298 23.8094C14.5298 23.8094 15.9909 23.6353 17.157 23.8094C17.0747 23.2192 16.9344 22.6676 16.7506 22.1789C16.5377 21.6128 16.2135 21.0322 15.7974 20.4758L13.9443 22.3434C14.1088 22.5999 14.2395 22.8514 14.3314 23.0934C14.4088 23.3111 14.4766 23.553 14.5298 23.8094Z" fill="url(#paint7_linear_290_40274)"/>
</g>
<g style="mix-blend-mode:multiply" opacity="0.5">
<path d="M20.4996 4.05956C20.219 4.48049 19.9916 4.89175 19.8077 5.30301C19.0481 6.98191 19.0433 8.57372 19.4545 9.95264C19.6916 10.7461 20.0641 11.4719 20.5141 12.1009C20.5141 12.1009 19.6964 13.2669 18.6562 13.9394C17.9401 13.0153 17.3353 11.9122 16.9725 10.6881C16.3967 8.76725 16.4015 6.54646 17.4466 4.23374C17.9208 3.18866 18.5981 2.1339 19.5368 1.08399L20.5044 -0.00463867L20.4996 4.05956Z" fill="url(#paint8_linear_290_40274)"/>
</g>
<g style="mix-blend-mode:multiply" opacity="0.5">
<path d="M32.1265 8.87365C31.633 8.97525 31.1782 9.10589 30.7573 9.26071C29.0348 9.90905 27.9027 11.0364 27.2204 12.2992C26.8285 13.0298 26.577 13.8087 26.4512 14.5684C26.4512 14.5684 25.048 14.8151 23.8336 14.5538C23.9788 13.3926 24.332 12.1879 24.9416 11.0654C25.8947 9.29942 27.4624 7.7318 29.8428 6.83671C30.9121 6.43029 32.1459 6.16902 33.549 6.08677L35.0005 6.00452L32.1265 8.87365Z" fill="url(#paint9_linear_290_40274)"/>
</g>
<g style="mix-blend-mode:multiply" opacity="0.5">
<path d="M36.9408 20.5002C36.5198 20.2196 36.1086 19.9922 35.6973 19.8083C34.0184 19.0487 32.4266 19.0439 31.0477 19.4551C30.2542 19.6922 29.5285 20.0696 28.8995 20.5147C28.8995 20.5147 27.7334 19.697 27.0609 18.6568C27.985 17.9407 29.0882 17.3359 30.3123 16.9731C32.2331 16.3973 34.4539 16.4021 36.7666 17.4472C37.8117 17.9165 38.8664 18.5987 39.9164 19.5374L41.005 20.505L36.9408 20.5002Z" fill="url(#paint10_linear_290_40274)"/>
</g>
<g style="mix-blend-mode:multiply" opacity="0.5">
<path d="M32.1265 32.1266C32.0249 31.6331 31.8943 31.1783 31.7394 30.7574C31.0911 29.0349 29.9638 27.9028 28.701 27.2206C27.9704 26.8287 27.1914 26.5771 26.4318 26.4513C26.4318 26.4513 26.185 25.0482 26.4463 23.8337C27.6075 23.9789 28.8122 24.3321 29.9347 24.9417C31.7007 25.8949 33.2683 27.4673 34.1634 29.8429C34.5699 30.9171 34.8311 32.146 34.9134 33.5491L34.9956 35.0006L32.1265 32.1266Z" fill="url(#paint11_linear_290_40274)"/>
</g>
<g style="mix-blend-mode:multiply" opacity="0.5">
<path d="M20.5047 36.941C20.7854 36.5201 21.0128 36.1088 21.1966 35.6976C21.9562 34.0187 21.9611 32.4269 21.5498 31.0479C21.3128 30.2545 20.9354 29.5287 20.4902 28.8997C20.4902 28.8997 21.3079 27.7337 22.353 27.0612C23.0691 27.9853 23.6739 29.0884 24.0367 30.3125C24.6125 32.2333 24.6077 34.4541 23.5626 36.7668C23.0884 37.8119 22.4111 38.8667 21.4724 39.9166L20.5047 41.0052V36.941Z" fill="url(#paint12_linear_290_40274)"/>
</g>
<g style="mix-blend-mode:multiply" opacity="0.5">
<path d="M8.87812 32.1264C9.37163 32.0248 9.82643 31.8941 10.2474 31.7393C11.9698 31.091 13.102 29.9636 13.7842 28.7008C14.1761 27.9703 14.4277 27.1913 14.5535 26.4317C14.5535 26.4317 15.9566 26.1849 17.171 26.4462C17.0259 27.6074 16.6727 28.8121 16.063 29.9346C15.1099 31.7006 13.5374 33.2682 11.1618 34.1633C10.0925 34.5697 8.85876 34.831 7.45565 34.9133L6.00415 34.9955L8.87812 32.1264Z" fill="url(#paint13_linear_290_40274)"/>
</g>
<g style="mix-blend-mode:multiply" opacity="0.5">
<path d="M4.05924 20.505C4.48017 20.7856 4.89143 21.013 5.30269 21.1969C6.98159 21.9565 8.5734 21.9613 9.95232 21.5501C10.7458 21.313 11.4716 20.9404 12.1005 20.4905C12.1005 20.4905 13.2666 21.3082 13.9391 22.3532C13.015 23.0693 11.9118 23.6741 10.6877 24.037C8.76693 24.6127 6.54614 24.6079 4.23342 23.5628C3.18834 23.0935 2.13358 22.4113 1.08366 21.4727L-0.00012207 20.5002L4.05924 20.505Z" fill="url(#paint14_linear_290_40274)"/>
</g>
<g style="mix-blend-mode:multiply" opacity="0.5">
<path d="M8.87328 8.87848C8.97488 9.37199 9.10552 9.8268 9.26035 10.2477C9.90868 11.9702 11.036 13.1023 12.2988 13.7845C13.0294 14.1765 13.8084 14.428 14.568 14.5538C14.568 14.5538 14.8147 15.957 14.5535 17.1714C13.3923 17.0262 12.1875 16.673 11.065 16.0634C9.29905 15.1103 7.73143 13.5378 6.83634 11.1622C6.42992 10.0929 6.16865 8.85913 6.0864 7.45602L6.00415 6.00452L8.87328 8.87848Z" fill="url(#paint15_linear_290_40274)"/>
</g>
</g>
<defs>
<linearGradient id="paint0_linear_290_40274" x1="17.1449" y1="16.0273" x2="19.0092" y2="14.5372" gradientUnits="userSpaceOnUse">
<stop stop-color="#01052D"/>
<stop offset="1" stop-color="#01052D" stop-opacity="0"/>
</linearGradient>
<linearGradient id="paint1_linear_290_40274" x1="14.9094" y1="19.382" x2="15.2185" y2="17.0869" gradientUnits="userSpaceOnUse">
<stop stop-color="#01052D"/>
<stop offset="1" stop-color="#01052D" stop-opacity="0"/>
</linearGradient>
<linearGradient id="paint2_linear_290_40274" x1="21.6179" y1="14.9092" x2="23.49" y2="15.6328" gradientUnits="userSpaceOnUse">
<stop stop-color="#01052D"/>
<stop offset="1" stop-color="#01052D" stop-opacity="0"/>
</linearGradient>
<linearGradient id="paint3_linear_290_40274" x1="25.3453" y1="17.1454" x2="26.59" y2="19.309" gradientUnits="userSpaceOnUse">
<stop stop-color="#01052D"/>
<stop offset="1" stop-color="#01052D" stop-opacity="0"/>
</linearGradient>
<linearGradient id="paint4_linear_290_40274" x1="26.091" y1="21.6181" x2="25.5008" y2="23.8948" gradientUnits="userSpaceOnUse">
<stop stop-color="#01052D"/>
<stop offset="1" stop-color="#01052D" stop-opacity="0"/>
</linearGradient>
<linearGradient id="paint5_linear_290_40274" x1="23.8546" y1="24.973" x2="21.7772" y2="26.3338" gradientUnits="userSpaceOnUse">
<stop stop-color="#01052D"/>
<stop offset="1" stop-color="#01052D" stop-opacity="0"/>
</linearGradient>
<linearGradient id="paint6_linear_290_40274" x1="19.382" y1="26.091" x2="17.4055" y2="25.2326" gradientUnits="userSpaceOnUse">
<stop stop-color="#01052D"/>
<stop offset="1" stop-color="#01052D" stop-opacity="0"/>
</linearGradient>
<linearGradient id="paint7_linear_290_40274" x1="16.0276" y1="23.8546" x2="14.551" y2="21.8872" gradientUnits="userSpaceOnUse">
<stop stop-color="#01052D"/>
<stop offset="1" stop-color="#01052D" stop-opacity="0"/>
</linearGradient>
<linearGradient id="paint8_linear_290_40274" x1="18.5512" y1="-0.00463867" x2="18.5512" y2="13.9394" gradientUnits="userSpaceOnUse">
<stop stop-color="#01052D" stop-opacity="0"/>
<stop offset="1" stop-color="#01052D"/>
</linearGradient>
<linearGradient id="paint9_linear_290_40274" x1="24.9727" y1="14.5365" x2="34.2909" y2="6.70925" gradientUnits="userSpaceOnUse">
<stop stop-color="#01052D"/>
<stop offset="1" stop-color="#01052D" stop-opacity="0"/>
</linearGradient>
<linearGradient id="paint10_linear_290_40274" x1="27.9547" y1="19.382" x2="41.0001" y2="20.1275" gradientUnits="userSpaceOnUse">
<stop stop-color="#01052D"/>
<stop offset="1" stop-color="#01052D" stop-opacity="0"/>
</linearGradient>
<linearGradient id="paint11_linear_290_40274" x1="26.0909" y1="24.9729" x2="35.4091" y2="34.6638" gradientUnits="userSpaceOnUse">
<stop stop-color="#01052D"/>
<stop offset="1" stop-color="#01052D" stop-opacity="0"/>
</linearGradient>
<linearGradient id="paint12_linear_290_40274" x1="22.4556" y1="27.0612" x2="20.8726" y2="40.6277" gradientUnits="userSpaceOnUse">
<stop stop-color="#01052D"/>
<stop offset="1" stop-color="#01052D" stop-opacity="0"/>
</linearGradient>
<linearGradient id="paint13_linear_290_40274" x1="16.0271" y1="26.0908" x2="5.96343" y2="35.0362" gradientUnits="userSpaceOnUse">
<stop stop-color="#01052D"/>
<stop offset="1" stop-color="#01052D" stop-opacity="0"/>
</linearGradient>
<linearGradient id="paint14_linear_290_40274" x1="13.0453" y1="21.2456" x2="-0.000121972" y2="20.5002" gradientUnits="userSpaceOnUse">
<stop stop-color="#01052D"/>
<stop offset="1" stop-color="#01052D" stop-opacity="0"/>
</linearGradient>
<linearGradient id="paint15_linear_290_40274" x1="14.9089" y1="15.6547" x2="5.96343" y2="6.33652" gradientUnits="userSpaceOnUse">
<stop stop-color="#01052D"/>
<stop offset="1" stop-color="#01052D" stop-opacity="0"/>
</linearGradient>
<clipPath id="clip0_290_40274">
<rect width="41" height="41" fill="white"/>
</clipPath>
</defs>
</svg>
