<svg width="21" height="19" viewBox="0 0 21 19" fill="none" xmlns="http://www.w3.org/2000/svg">
<path d="M9.647 0.688039C9.97504 0.432835 10.3744 0.286168 10.7897 0.268425C11.2049 0.250683 11.6154 0.362747 11.964 0.589039L12.103 0.689039L20.487 7.20904C21.208 7.77004 20.857 8.90104 19.988 8.99404L19.872 9.00004H18.875V17C18.8752 17.5046 18.6846 17.9906 18.3415 18.3606C17.9984 18.7306 17.5282 18.9572 17.025 18.995L16.875 19H4.875C4.37059 18.9999 3.88485 18.8093 3.51508 18.4662C3.14531 18.1231 2.91883 17.653 2.881 17.15L2.875 17V9.00004H1.878C0.964998 9.00004 0.545998 7.89204 1.175 7.28504L1.263 7.20904L9.647 0.688039ZM10.875 2.26704L4.5 7.22504C4.729 7.41004 4.875 7.69304 4.875 8.01004V17H7.875V12C7.875 11.2044 8.19107 10.4413 8.75368 9.87872C9.31629 9.31611 10.0793 9.00004 10.875 9.00004C11.6706 9.00004 12.4337 9.31611 12.9963 9.87872C13.5589 10.4413 13.875 11.2044 13.875 12V17H16.875V8.01004C16.875 7.69304 17.021 7.41004 17.25 7.22504L10.875 2.26704ZM10.875 11C10.6098 11 10.3554 11.1054 10.1679 11.2929C9.98036 11.4805 9.875 11.7348 9.875 12V17H11.875V12C11.875 11.7348 11.7696 11.4805 11.5821 11.2929C11.3946 11.1054 11.1402 11 10.875 11Z" fill="#1D2433" fill-opacity="0.65"/>
</svg>
