<svg width="21" height="19" viewBox="0 0 21 19" fill="none" xmlns="http://www.w3.org/2000/svg">
<path d="M12.103 0.687989C11.7519 0.41488 11.3198 0.266602 10.875 0.266602C10.4302 0.266602 9.99807 0.41488 9.64698 0.687989L1.26298 7.20799C0.510982 7.79499 0.924982 8.99999 1.87798 8.99999H2.87498V17C2.87498 17.5304 3.0857 18.0391 3.46077 18.4142C3.83584 18.7893 4.34455 19 4.87498 19H8.87498V13C8.87498 12.4696 9.0857 11.9608 9.46077 11.5858C9.83584 11.2107 10.3445 11 10.875 11C11.4054 11 11.9141 11.2107 12.2892 11.5858C12.6643 11.9608 12.875 12.4696 12.875 13V19H16.875C17.4054 19 17.9141 18.7893 18.2892 18.4142C18.6643 18.0391 18.875 17.5304 18.875 17V8.99999H19.872C20.824 8.99999 21.24 7.79499 20.487 7.20899L12.103 0.687989Z" fill="#2F6FED"/>
</svg>
