<svg width="14" height="12" viewBox="0 0 14 12" fill="none" xmlns="http://www.w3.org/2000/svg">
<path d="M12.3335 0C12.6871 0 13.0263 0.140476 13.2763 0.390524C13.5264 0.640573 13.6668 0.979711 13.6668 1.33333V10.6667C13.6668 11.0203 13.5264 11.3594 13.2763 11.6095C13.0263 11.8595 12.6871 12 12.3335 12H1.66683C1.31321 12 0.974069 11.8595 0.72402 11.6095C0.473972 11.3594 0.333496 11.0203 0.333496 10.6667V1.33333C0.333496 0.979711 0.473972 0.640573 0.72402 0.390524C0.974069 0.140476 1.31321 0 1.66683 0H12.3335ZM12.3335 1.33333H1.66683V8.06667L4.99683 4.73733C5.07421 4.65993 5.16609 4.59853 5.26721 4.55663C5.36833 4.51474 5.47671 4.49318 5.58616 4.49318C5.69562 4.49318 5.804 4.51474 5.90512 4.55663C6.00624 4.59853 6.09811 4.65993 6.1755 4.73733L8.8855 7.448L9.71083 6.62267C9.78821 6.54526 9.88009 6.48386 9.98121 6.44197C10.0823 6.40007 10.1907 6.37851 10.3002 6.37851C10.4096 6.37851 10.518 6.40007 10.6191 6.44197C10.7202 6.48386 10.8121 6.54526 10.8895 6.62267L12.3335 8.06733V1.33333ZM9.3335 2.66667C9.59871 2.66667 9.85307 2.77202 10.0406 2.95956C10.2281 3.1471 10.3335 3.40145 10.3335 3.66667C10.3335 3.93188 10.2281 4.18624 10.0406 4.37377C9.85307 4.56131 9.59871 4.66667 9.3335 4.66667C9.06828 4.66667 8.81393 4.56131 8.62639 4.37377C8.43885 4.18624 8.3335 3.93188 8.3335 3.66667C8.3335 3.40145 8.43885 3.1471 8.62639 2.95956C8.81393 2.77202 9.06828 2.66667 9.3335 2.66667Z" fill="#1D2433" fill-opacity="0.8"/>
</svg>
