<svg width="20" height="20" viewBox="0 0 20 20" fill="none" xmlns="http://www.w3.org/2000/svg">
<path fill-rule="evenodd" clip-rule="evenodd" d="M9.99996 2.5C10.221 2.5 10.4329 2.5878 10.5892 2.74408C10.7455 2.90036 10.8333 3.11232 10.8333 3.33333V4.16667H11.47C11.7286 4.16668 11.9836 4.22688 12.215 4.3425L13.53 5H16.6666C16.8876 5 17.0996 5.0878 17.2559 5.24408C17.4122 5.40036 17.5 5.61232 17.5 5.83333C17.5 6.05435 17.4122 6.26631 17.2559 6.42259C17.0996 6.57887 16.8876 6.66667 16.6666 6.66667H16.3483L18.245 10.4608C18.3033 10.5767 18.3333 10.7042 18.3333 10.8333C18.3333 11.7174 17.9821 12.5652 17.357 13.1904C16.7319 13.8155 15.884 14.1667 15 14.1667C14.1159 14.1667 13.2681 13.8155 12.6429 13.1904C12.0178 12.5652 11.6666 11.7174 11.6666 10.8333C11.6666 10.7042 11.6966 10.5767 11.755 10.4608L13.6516 6.66667H13.53C13.2713 6.66665 13.0163 6.60645 12.785 6.49083L11.47 5.83333H10.8333V15.8333H13.3333C13.5543 15.8333 13.7663 15.9211 13.9225 16.0774C14.0788 16.2337 14.1666 16.4457 14.1666 16.6667C14.1666 16.8877 14.0788 17.0996 13.9225 17.2559C13.7663 17.4122 13.5543 17.5 13.3333 17.5H6.66663C6.44561 17.5 6.23365 17.4122 6.07737 17.2559C5.92109 17.0996 5.83329 16.8877 5.83329 16.6667C5.83329 16.4457 5.92109 16.2337 6.07737 16.0774C6.23365 15.9211 6.44561 15.8333 6.66663 15.8333H9.16663V5.83333H8.52996L7.21496 6.49083C6.98363 6.60645 6.72857 6.66665 6.46996 6.66667H6.34829L8.24496 10.4608C8.30291 10.5765 8.33315 10.704 8.33329 10.8333C8.33329 11.7174 7.9821 12.5652 7.35698 13.1904C6.73186 13.8155 5.88401 14.1667 4.99996 14.1667C4.1159 14.1667 3.26806 13.8155 2.64294 13.1904C2.01782 12.5652 1.66663 11.7174 1.66663 10.8333C1.66676 10.704 1.69701 10.5765 1.75496 10.4608L3.65163 6.66667H3.33329C3.11228 6.66667 2.90032 6.57887 2.74404 6.42259C2.58776 6.26631 2.49996 6.05435 2.49996 5.83333C2.49996 5.61232 2.58776 5.40036 2.74404 5.24408C2.90032 5.0878 3.11228 5 3.33329 5H6.46996L7.78496 4.3425C8.01629 4.22688 8.27135 4.16668 8.52996 4.16667H9.16663V3.33333C9.16663 3.11232 9.25442 2.90036 9.4107 2.74408C9.56698 2.5878 9.77895 2.5 9.99996 2.5ZM4.99996 7.69667L3.34246 11.0108C3.38559 11.4204 3.57881 11.7994 3.88487 12.075C4.19093 12.3505 4.58815 12.5029 4.99996 12.5029C5.41176 12.5029 5.80899 12.3505 6.11505 12.075C6.42111 11.7994 6.61433 11.4204 6.65746 11.0108L4.99996 7.6975V7.69667ZM15 7.69667L13.3425 11.0108C13.3845 11.409 13.5684 11.7787 13.8606 12.0523C14.1528 12.326 14.5338 12.4854 14.9338 12.5012C15.3338 12.5171 15.7262 12.3885 16.0392 12.1388C16.3522 11.8892 16.5648 11.5352 16.6383 11.1417L16.6575 11.0117L15 7.69667Z" fill="#1D2433" fill-opacity="0.8"/>
</svg>
