<svg width="18" height="17" viewBox="0 0 18 17" fill="#000" xmlns="http://www.w3.org/2000/svg">
<path fill-rule="evenodd" clip-rule="evenodd" d="M8.37758 7.82508L8.56591 7.86675L11.6626 8.64008C12.6384 8.88425 13.1292 9.91342 12.8209 10.8401L13.0876 10.6568L13.6259 10.2718C13.8967 10.0801 14.1734 9.89842 14.4609 9.75508C15.7409 9.11508 17.2392 9.99758 17.3292 11.3976L17.3334 11.5309V11.5768C17.3334 12.1576 17.0834 12.7076 16.6501 13.0884L16.5276 13.1884L13.9692 15.1068C13.7201 15.2934 13.4392 15.4318 13.1409 15.5151L12.9592 15.5584L10.2842 16.0934C9.45346 16.2593 8.59183 16.1681 7.81425 15.8318L7.60425 15.7343L5.64591 14.7551C5.55951 14.7115 5.46617 14.6833 5.37008 14.6718L5.27341 14.6668H4.61008C4.47576 14.8995 4.28716 15.0962 4.06037 15.2403C3.83358 15.3844 3.57531 15.4715 3.30758 15.4943L3.16675 15.5001H2.33341C1.91293 15.5002 1.50794 15.3414 1.19962 15.0555C0.891307 14.7696 0.702451 14.3777 0.670915 13.9584L0.666748 13.8334V10.5001C0.666825 10.0797 0.825724 9.67496 1.11161 9.36682C1.3975 9.05868 1.78926 8.86994 2.20841 8.83842L2.33341 8.83342H3.16675C3.57008 8.83342 3.94008 8.97675 4.22841 9.21592L4.33258 9.30925L5.99091 8.27342C6.64555 7.86412 7.42196 7.69476 8.18758 7.79425L8.37758 7.82425V7.82508ZM6.87425 9.68675L4.83341 10.9618V13.0001H5.27341C5.66165 13.0001 6.04454 13.0906 6.39175 13.2643L8.35008 14.2434C8.84738 14.4919 9.41331 14.5676 9.95841 14.4584L12.6326 13.9234C12.7546 13.8992 12.8697 13.848 12.9692 13.7734L15.5276 11.8543C15.6342 11.7743 15.6667 11.6568 15.6667 11.5301C15.6667 11.3059 15.4426 11.1559 15.2392 11.2309L13.2159 12.5809C12.805 12.8546 12.3222 13.0004 11.8284 13.0001H9.00008V11.3334H10.2992C10.4741 11.3333 10.6444 11.2782 10.7862 11.1759C10.928 11.0736 11.034 10.9293 11.0892 10.7634L11.2584 10.2568L8.16175 9.48342C7.94449 9.42907 7.71851 9.41907 7.4973 9.454C7.27609 9.48894 7.06418 9.5681 6.87425 9.68675ZM3.16675 10.5001H2.33341V13.8334H3.16675V10.5001ZM12.3334 0.891751C13.1917 0.355084 14.1767 0.397584 14.9717 0.860918C15.8984 1.40092 16.5267 2.47925 16.4992 3.71258C16.4651 5.24175 15.3242 6.49925 13.6342 7.54592L13.3026 7.74508C13.0042 7.92175 12.6859 8.09342 12.3334 8.09342C11.9809 8.09342 11.6626 7.92175 11.3642 7.74508L11.0326 7.54508C9.34175 6.49842 8.20175 5.24175 8.16675 3.71175C8.13925 2.47842 8.76758 1.40008 9.69425 0.860084C10.4892 0.396751 11.4734 0.354251 12.3326 0.890918L12.3334 0.891751ZM14.1326 2.30092C13.8167 2.11758 13.4409 2.09592 13.0676 2.41425L12.8959 2.57258C12.736 2.69982 12.5377 2.76909 12.3334 2.76909C12.1291 2.76909 11.9308 2.69982 11.7709 2.57258L11.5992 2.41425C11.2251 2.09592 10.8492 2.11675 10.5342 2.30092C10.1501 2.52508 9.81925 3.02592 9.83425 3.67592C9.84841 4.32425 10.3492 5.15925 11.8909 6.11675L12.0892 6.23675L12.3334 6.37925L12.5776 6.23758C14.2751 5.22758 14.8176 4.35008 14.8334 3.67342C14.8484 3.02425 14.5176 2.52342 14.1334 2.29925L14.1326 2.30092Z" fill="#1D2433" fill-opacity="0.8"/>
</svg>
