<svg width="32" height="32" viewBox="0 0 32 32" fill="none" xmlns="http://www.w3.org/2000/svg">
<rect width="32" height="32" rx="16" fill="#08875D"/>
<g clip-path="url(#clip0_498_147630)">
<path d="M16 7.66675C20.6025 7.66675 24.3333 11.3976 24.3333 16.0001C24.3333 20.6026 20.6025 24.3334 16 24.3334H9.33332C8.8913 24.3334 8.46737 24.1578 8.15481 23.8453C7.84225 23.5327 7.66666 23.1088 7.66666 22.6667V16.0001C7.66666 11.3976 11.3975 7.66675 16 7.66675ZM16 17.6667H13.5C13.279 17.6667 13.067 17.7545 12.9107 17.9108C12.7545 18.0671 12.6667 18.2791 12.6667 18.5001C12.6667 18.7211 12.7545 18.9331 12.9107 19.0893C13.067 19.2456 13.279 19.3334 13.5 19.3334H16C16.221 19.3334 16.433 19.2456 16.5892 19.0893C16.7455 18.9331 16.8333 18.7211 16.8333 18.5001C16.8333 18.2791 16.7455 18.0671 16.5892 17.9108C16.433 17.7545 16.221 17.6667 16 17.6667ZM18.5 14.3334H13.5C13.2876 14.3337 13.0833 14.415 12.9288 14.5608C12.7744 14.7066 12.6815 14.9059 12.669 15.1179C12.6566 15.3299 12.7256 15.5387 12.8619 15.7016C12.9982 15.8645 13.1916 15.9692 13.4025 15.9942L13.5 16.0001H18.5C18.7124 15.9998 18.9167 15.9185 19.0711 15.7727C19.2256 15.6269 19.3185 15.4276 19.331 15.2156C19.3434 15.0036 19.2744 14.7948 19.1381 14.6319C19.0018 14.469 18.8084 14.3643 18.5975 14.3392L18.5 14.3334Z" fill="white"/>
</g>
<defs>
<clipPath id="clip0_498_147630">
<rect width="20" height="20" fill="white" transform="translate(6 6)"/>
</clipPath>
</defs>
</svg>
