<svg width="18" height="18" viewBox="0 0 18 18" fill="none" xmlns="http://www.w3.org/2000/svg">
<path d="M9.00002 0.666626C13.6025 0.666626 17.3334 4.39746 17.3334 8.99996C17.3334 13.6025 13.6025 17.3333 9.00002 17.3333H2.33335C1.89133 17.3333 1.4674 17.1577 1.15484 16.8451C0.842282 16.5326 0.666687 16.1087 0.666687 15.6666V8.99996C0.666687 4.39746 4.39752 0.666626 9.00002 0.666626ZM9.00002 10.6666H6.50002C6.27901 10.6666 6.06705 10.7544 5.91077 10.9107C5.75448 11.067 5.66669 11.2789 5.66669 11.5C5.66669 11.721 5.75448 11.9329 5.91077 12.0892C6.06705 12.2455 6.27901 12.3333 6.50002 12.3333H9.00002C9.22103 12.3333 9.433 12.2455 9.58928 12.0892C9.74556 11.9329 9.83335 11.721 9.83335 11.5C9.83335 11.2789 9.74556 11.067 9.58928 10.9107C9.433 10.7544 9.22103 10.6666 9.00002 10.6666ZM11.5 7.33329H6.50002C6.28762 7.33353 6.08333 7.41486 5.92888 7.56067C5.77443 7.70647 5.68149 7.90575 5.66904 8.11779C5.6566 8.32982 5.72558 8.53861 5.86191 8.70149C5.99823 8.86436 6.19161 8.96904 6.40252 8.99413L6.50002 8.99996H11.5C11.7124 8.99972 11.9167 8.91839 12.0712 8.77259C12.2256 8.62678 12.3186 8.4275 12.331 8.21546C12.3434 8.00343 12.2745 7.79464 12.1381 7.63177C12.0018 7.46889 11.8084 7.36421 11.5975 7.33913L11.5 7.33329Z" fill="#1D2433"/>
</svg>
