<svg width="16" height="20" viewBox="0 0 16 20" fill="none" xmlns="http://www.w3.org/2000/svg">
<path fill-rule="evenodd" clip-rule="evenodd" d="M15.0699 10.01C15.2001 10.0284 15.3254 10.0723 15.4386 10.1392C15.5518 10.206 15.6508 10.2946 15.7297 10.3997C15.8087 10.5049 15.8661 10.6245 15.8987 10.7519C15.9314 10.8793 15.9386 11.0118 15.9199 11.142C15.6693 12.876 14.8566 14.4799 13.6066 15.7075C12.3565 16.9352 10.7382 17.7187 8.99994 17.938V19C8.99994 19.2652 8.89458 19.5196 8.70704 19.7071C8.51951 19.8946 8.26515 20 7.99994 20C7.73472 20 7.48037 19.8946 7.29283 19.7071C7.10529 19.5196 6.99994 19.2652 6.99994 19V17.938C5.26191 17.7184 3.64391 16.9347 2.3941 15.7071C1.1443 14.4795 0.331699 12.8758 0.0809369 11.142C0.0432761 10.8794 0.111461 10.6127 0.270492 10.4004C0.429523 10.1881 0.666373 10.0477 0.928937 10.01C1.1915 9.97234 1.45827 10.0405 1.67056 10.1996C1.88285 10.3586 2.02328 10.5954 2.06094 10.858C2.26925 12.2844 2.984 13.5882 4.07449 14.531C5.16499 15.4738 6.55839 15.9927 7.99994 15.9927C9.44149 15.9927 10.8349 15.4738 11.9254 14.531C13.0159 13.5882 13.7306 12.2844 13.9389 10.858C13.9576 10.728 14.0016 10.6029 14.0686 10.4899C14.1356 10.3769 14.2242 10.2783 14.3293 10.1995C14.4344 10.1208 14.554 10.0635 14.6813 10.031C14.8085 9.99846 14.9399 9.99133 15.0699 10.01ZM7.99994 0C9.32602 0 10.5978 0.526784 11.5355 1.46447C12.4732 2.40215 12.9999 3.67392 12.9999 5V10C12.9999 11.3261 12.4732 12.5979 11.5355 13.5355C10.5978 14.4732 9.32602 15 7.99994 15C6.67385 15 5.40209 14.4732 4.4644 13.5355C3.52672 12.5979 2.99994 11.3261 2.99994 10V5C2.99994 3.67392 3.52672 2.40215 4.4644 1.46447C5.40209 0.526784 6.67385 0 7.99994 0ZM7.99994 2C7.20429 2 6.44123 2.31607 5.87862 2.87868C5.31601 3.44129 4.99994 4.20435 4.99994 5V10C4.99994 10.7956 5.31601 11.5587 5.87862 12.1213C6.44123 12.6839 7.20429 13 7.99994 13C8.79559 13 9.55865 12.6839 10.1213 12.1213C10.6839 11.5587 10.9999 10.7956 10.9999 10V5C10.9999 4.20435 10.6839 3.44129 10.1213 2.87868C9.55865 2.31607 8.79559 2 7.99994 2Z" fill="#1D2433" fill-opacity="0.8"/>
</svg>
