<svg width="20" height="20" viewBox="0 0 20 20" fill="none" xmlns="http://www.w3.org/2000/svg">
<mask id="path-1-inside-1_3914_113445" fill="white">
<path d="M5.71416 2.03756C6.76666 2.80506 7.56333 3.88339 8.24166 4.87422L8.77333 5.65589C8.93843 5.89719 9.01398 6.18862 8.98689 6.47975C8.9598 6.77087 8.83179 7.04336 8.625 7.25006L7.495 8.38006L7.61416 8.63339C7.90583 9.22422 8.40916 10.0751 9.16666 10.8334C9.75 11.4167 10.3875 11.8484 10.92 12.1501L11.2258 12.3142L11.4983 12.4492L11.62 12.5051L12.7492 11.3751C12.9567 11.1678 13.2304 11.04 13.5225 11.014C13.8146 10.9879 14.1066 11.0653 14.3475 11.2326L15.1925 11.8184C16.1525 12.4934 17.155 13.2626 17.9342 14.2609C18.0689 14.4341 18.1545 14.6404 18.1822 14.8581C18.2099 15.0758 18.1787 15.2969 18.0917 15.4984C17.3942 17.1259 15.6292 18.5117 13.7933 18.4434L13.5433 18.4301L13.3492 18.4134L13.1342 18.3884L12.9 18.3567L12.6458 18.3142L12.3742 18.2609L12.0858 18.1967L11.7808 18.1184L11.46 18.0267L11.125 17.9184C9.58667 17.3967 7.63416 16.3717 5.63083 14.3684C3.62833 12.3659 2.60333 10.4134 2.08166 8.87506L1.97333 8.54006L1.88166 8.21922L1.80333 7.91422L1.73833 7.62589C1.71956 7.53559 1.70205 7.44502 1.68583 7.35422L1.64416 7.10006L1.61083 6.86589L1.58666 6.65089L1.57 6.45672L1.55666 6.20672C1.48916 4.37672 2.89 2.59922 4.51 1.90506C4.70498 1.82086 4.9185 1.78881 5.12961 1.81204C5.34071 1.83527 5.54216 1.91298 5.71416 2.03756ZM4.94166 3.54422C4.04833 4.01089 3.18333 5.07756 3.2225 6.14506L3.23916 6.41839L3.2575 6.58922L3.28166 6.78089L3.315 6.99172L3.3575 7.22256L3.41166 7.47089L3.47833 7.73756L3.55833 8.02006L3.65333 8.31839C3.68833 8.42006 3.725 8.52422 3.765 8.63089L3.89333 8.95756L4.04 9.29672C4.56333 10.4484 5.41666 11.7967 6.81083 13.1901C8.20416 14.5834 9.5525 15.4376 10.7042 15.9609L11.0433 16.1076L11.37 16.2359C11.4767 16.2759 11.5808 16.3126 11.6825 16.3476L11.9808 16.4426L12.2642 16.5226L12.53 16.5892L12.7783 16.6434L13.0092 16.6859L13.2208 16.7192L13.4125 16.7442L13.5825 16.7609L13.8558 16.7776C14.9092 16.8167 15.9842 15.9567 16.4492 15.0751C15.8558 14.3792 15.1192 13.8084 14.3067 13.2334L13.6833 12.7992L13.525 12.9651L13.1867 13.3342L13.0075 13.5226C12.5192 14.0201 11.9492 14.4426 11.2658 14.1667L11.0775 14.0876L10.8475 13.9842L10.7192 13.9234L10.4375 13.7826L10.1283 13.6159C9.34594 13.1805 8.6263 12.6408 7.98916 12.0117C7.36006 11.3746 6.82041 10.6549 6.385 9.87256L6.21833 9.56422L6.07666 9.28172L5.91333 8.92339L5.83333 8.73339C5.57416 8.09256 5.93083 7.55172 6.38666 7.08339L6.57333 6.90006L7.0375 6.47256L7.20416 6.31422L6.81 5.73672C6.22416 4.88672 5.65166 4.12006 4.94083 3.54339L4.94166 3.54422ZM12.4942 5.03339L12.5908 5.04422C13.1974 5.15122 13.7546 5.44751 14.1824 5.89062C14.6103 6.33374 14.8868 6.90092 14.9725 7.51089C15.003 7.72187 14.9516 7.93654 14.8287 8.11073C14.7058 8.28491 14.5208 8.40537 14.3118 8.44733C14.1027 8.48928 13.8856 8.44953 13.705 8.33626C13.5244 8.223 13.3941 8.04482 13.3408 7.83839L13.3217 7.74256C13.2881 7.50347 13.1861 7.27922 13.0279 7.09688C12.8696 6.91454 12.662 6.78193 12.43 6.71506L12.3008 6.68589C12.0916 6.6488 11.9044 6.53317 11.7776 6.36265C11.6508 6.19212 11.5939 5.97959 11.6186 5.76851C11.6433 5.55744 11.7477 5.36377 11.9104 5.22713C12.0732 5.09048 12.282 5.02118 12.4942 5.03339ZM12.5 2.50006C13.8261 2.50006 15.0979 3.02684 16.0355 3.96452C16.9732 4.90221 17.5 6.17397 17.5 7.50006C17.4998 7.71246 17.4184 7.91675 17.2726 8.0712C17.1268 8.22564 16.9275 8.31859 16.7155 8.33103C16.5035 8.34348 16.2947 8.2745 16.1318 8.13817C15.9689 8.00185 15.8643 7.80847 15.8392 7.59756L15.8333 7.50006C15.8336 6.65374 15.5119 5.83902 14.9333 5.22133C14.3548 4.60364 13.5629 4.22926 12.7183 4.17422L12.5 4.16672C12.279 4.16672 12.067 4.07893 11.9107 3.92265C11.7545 3.76637 11.6667 3.5544 11.6667 3.33339C11.6667 3.11238 11.7545 2.90042 11.9107 2.74414C12.067 2.58785 12.279 2.50006 12.5 2.50006Z"/>
</mask>
<path d="M5.71416 2.03756C6.76666 2.80506 7.56333 3.88339 8.24166 4.87422L8.77333 5.65589C8.93843 5.89719 9.01398 6.18862 8.98689 6.47975C8.9598 6.77087 8.83179 7.04336 8.625 7.25006L7.495 8.38006L7.61416 8.63339C7.90583 9.22422 8.40916 10.0751 9.16666 10.8334C9.75 11.4167 10.3875 11.8484 10.92 12.1501L11.2258 12.3142L11.4983 12.4492L11.62 12.5051L12.7492 11.3751C12.9567 11.1678 13.2304 11.04 13.5225 11.014C13.8146 10.9879 14.1066 11.0653 14.3475 11.2326L15.1925 11.8184C16.1525 12.4934 17.155 13.2626 17.9342 14.2609C18.0689 14.4341 18.1545 14.6404 18.1822 14.8581C18.2099 15.0758 18.1787 15.2969 18.0917 15.4984C17.3942 17.1259 15.6292 18.5117 13.7933 18.4434L13.5433 18.4301L13.3492 18.4134L13.1342 18.3884L12.9 18.3567L12.6458 18.3142L12.3742 18.2609L12.0858 18.1967L11.7808 18.1184L11.46 18.0267L11.125 17.9184C9.58667 17.3967 7.63416 16.3717 5.63083 14.3684C3.62833 12.3659 2.60333 10.4134 2.08166 8.87506L1.97333 8.54006L1.88166 8.21922L1.80333 7.91422L1.73833 7.62589C1.71956 7.53559 1.70205 7.44502 1.68583 7.35422L1.64416 7.10006L1.61083 6.86589L1.58666 6.65089L1.57 6.45672L1.55666 6.20672C1.48916 4.37672 2.89 2.59922 4.51 1.90506C4.70498 1.82086 4.9185 1.78881 5.12961 1.81204C5.34071 1.83527 5.54216 1.91298 5.71416 2.03756ZM4.94166 3.54422C4.04833 4.01089 3.18333 5.07756 3.2225 6.14506L3.23916 6.41839L3.2575 6.58922L3.28166 6.78089L3.315 6.99172L3.3575 7.22256L3.41166 7.47089L3.47833 7.73756L3.55833 8.02006L3.65333 8.31839C3.68833 8.42006 3.725 8.52422 3.765 8.63089L3.89333 8.95756L4.04 9.29672C4.56333 10.4484 5.41666 11.7967 6.81083 13.1901C8.20416 14.5834 9.5525 15.4376 10.7042 15.9609L11.0433 16.1076L11.37 16.2359C11.4767 16.2759 11.5808 16.3126 11.6825 16.3476L11.9808 16.4426L12.2642 16.5226L12.53 16.5892L12.7783 16.6434L13.0092 16.6859L13.2208 16.7192L13.4125 16.7442L13.5825 16.7609L13.8558 16.7776C14.9092 16.8167 15.9842 15.9567 16.4492 15.0751C15.8558 14.3792 15.1192 13.8084 14.3067 13.2334L13.6833 12.7992L13.525 12.9651L13.1867 13.3342L13.0075 13.5226C12.5192 14.0201 11.9492 14.4426 11.2658 14.1667L11.0775 14.0876L10.8475 13.9842L10.7192 13.9234L10.4375 13.7826L10.1283 13.6159C9.34594 13.1805 8.6263 12.6408 7.98916 12.0117C7.36006 11.3746 6.82041 10.6549 6.385 9.87256L6.21833 9.56422L6.07666 9.28172L5.91333 8.92339L5.83333 8.73339C5.57416 8.09256 5.93083 7.55172 6.38666 7.08339L6.57333 6.90006L7.0375 6.47256L7.20416 6.31422L6.81 5.73672C6.22416 4.88672 5.65166 4.12006 4.94083 3.54339L4.94166 3.54422ZM12.4942 5.03339L12.5908 5.04422C13.1974 5.15122 13.7546 5.44751 14.1824 5.89062C14.6103 6.33374 14.8868 6.90092 14.9725 7.51089C15.003 7.72187 14.9516 7.93654 14.8287 8.11073C14.7058 8.28491 14.5208 8.40537 14.3118 8.44733C14.1027 8.48928 13.8856 8.44953 13.705 8.33626C13.5244 8.223 13.3941 8.04482 13.3408 7.83839L13.3217 7.74256C13.2881 7.50347 13.1861 7.27922 13.0279 7.09688C12.8696 6.91454 12.662 6.78193 12.43 6.71506L12.3008 6.68589C12.0916 6.6488 11.9044 6.53317 11.7776 6.36265C11.6508 6.19212 11.5939 5.97959 11.6186 5.76851C11.6433 5.55744 11.7477 5.36377 11.9104 5.22713C12.0732 5.09048 12.282 5.02118 12.4942 5.03339ZM12.5 2.50006C13.8261 2.50006 15.0979 3.02684 16.0355 3.96452C16.9732 4.90221 17.5 6.17397 17.5 7.50006C17.4998 7.71246 17.4184 7.91675 17.2726 8.0712C17.1268 8.22564 16.9275 8.31859 16.7155 8.33103C16.5035 8.34348 16.2947 8.2745 16.1318 8.13817C15.9689 8.00185 15.8643 7.80847 15.8392 7.59756L15.8333 7.50006C15.8336 6.65374 15.5119 5.83902 14.9333 5.22133C14.3548 4.60364 13.5629 4.22926 12.7183 4.17422L12.5 4.16672C12.279 4.16672 12.067 4.07893 11.9107 3.92265C11.7545 3.76637 11.6667 3.5544 11.6667 3.33339C11.6667 3.11238 11.7545 2.90042 11.9107 2.74414C12.067 2.58785 12.279 2.50006 12.5 2.50006Z" fill="#2F6FED" stroke="#2F6FED" stroke-width="2" mask="url(#path-1-inside-1_3914_113445)"/>
</svg>
