<svg width="25" height="24" viewBox="0 0 25 24" color="#2F6FED" fill="#2F6FED" xmlns="http://www.w3.org/2000/svg">
<g clip-path="url(#clip0_3639_2056)">
<mask id="path-1-inside-1_3639_2056" fill="white">
<path d="M7.35705 2.44497C8.62005 3.36597 9.57605 4.65997 10.39 5.84897L11.028 6.78697C11.2262 7.07653 11.3168 7.42625 11.2843 7.7756C11.2518 8.12494 11.0982 8.45193 10.85 8.69997L9.49405 10.056L9.63705 10.36C9.98705 11.069 10.591 12.09 11.5 13C12.2 13.7 12.965 14.218 13.604 14.58L13.971 14.777L14.298 14.939L14.444 15.006L15.799 13.65C16.0481 13.4013 16.3765 13.2479 16.727 13.2167C17.0776 13.1854 17.428 13.2783 17.717 13.479L18.731 14.182C19.883 14.992 21.086 15.915 22.021 17.113C22.1827 17.3209 22.2855 17.5684 22.3187 17.8296C22.352 18.0908 22.3144 18.3562 22.21 18.598C21.373 20.551 19.255 22.214 17.052 22.132L16.752 22.116L16.519 22.096L16.261 22.066L15.98 22.028L15.675 21.977L15.349 21.913L15.003 21.836L14.637 21.742L14.252 21.632L13.85 21.502C12.004 20.876 9.66105 19.646 7.25705 17.242C4.85405 14.839 3.62405 12.496 2.99805 10.65L2.86805 10.248L2.75805 9.86297L2.66405 9.49697L2.58605 9.15097C2.56352 9.04261 2.54251 8.93393 2.52305 8.82497L2.47305 8.51997L2.43305 8.23897L2.40405 7.98097L2.38405 7.74797L2.36805 7.44797C2.28705 5.25197 3.96805 3.11897 5.91205 2.28597C6.14602 2.18494 6.40225 2.14647 6.65558 2.17435C6.90891 2.20222 7.15063 2.29548 7.35705 2.44497ZM6.43005 4.25297C5.35805 4.81297 4.32005 6.09297 4.36705 7.37397L4.38705 7.70197L4.40905 7.90697L4.43805 8.13697L4.47805 8.38997L4.52905 8.66697L4.59405 8.96497L4.67405 9.28497L4.77005 9.62397L4.88405 9.98197C4.92605 10.104 4.97005 10.229 5.01805 10.357L5.17205 10.749L5.34805 11.156C5.97605 12.538 7.00005 14.156 8.67305 15.828C10.345 17.5 11.963 18.525 13.345 19.153L13.752 19.329L14.144 19.483C14.272 19.531 14.397 19.575 14.519 19.617L14.877 19.731L15.217 19.827L15.536 19.907L15.834 19.972L16.111 20.023L16.365 20.063L16.595 20.093L16.799 20.113L17.127 20.133C18.391 20.18 19.681 19.148 20.239 18.09C19.527 17.255 18.643 16.57 17.668 15.88L16.92 15.359L16.73 15.558L16.324 16.001L16.109 16.227C15.523 16.824 14.839 17.331 14.019 17L13.793 16.905L13.517 16.781L13.363 16.708L13.025 16.539L12.654 16.339C11.7152 15.8165 10.8516 15.1689 10.087 14.414C9.33213 13.6494 8.68454 12.7858 8.16205 11.847L7.96205 11.477L7.79205 11.138L7.59605 10.708L7.50005 10.48C7.18905 9.71097 7.61705 9.06197 8.16405 8.49997L8.38805 8.27997L8.94504 7.76697L9.14505 7.57697L8.67205 6.88397C7.96905 5.86397 7.28205 4.94397 6.42905 4.25197L6.43005 4.25297ZM15.493 6.03997L15.609 6.05297C16.337 6.18137 17.0055 6.53691 17.5189 7.06865C18.0324 7.60039 18.3642 8.28101 18.467 9.01297C18.5037 9.26615 18.4419 9.52375 18.2944 9.73277C18.147 9.9418 17.925 10.0864 17.6742 10.1367C17.4233 10.187 17.1628 10.1393 16.946 10.0034C16.7293 9.8675 16.5729 9.65369 16.509 9.40597L16.486 9.29097C16.4458 9.00407 16.3234 8.73496 16.1335 8.51616C15.9436 8.29735 15.6944 8.13821 15.416 8.05797L15.261 8.02297C15.0099 7.97847 14.7853 7.83971 14.6331 7.63508C14.481 7.43045 14.4127 7.17541 14.4423 6.92212C14.472 6.66883 14.5973 6.43643 14.7926 6.27245C14.9879 6.10848 15.2385 6.02531 15.493 6.03997ZM15.5 2.99997C17.0913 2.99997 18.6175 3.63211 19.7427 4.75733C20.8679 5.88255 21.5 7.40867 21.5 8.99997C21.4998 9.25485 21.4022 9.5 21.2272 9.68534C21.0522 9.87068 20.8131 9.98221 20.5587 9.99714C20.3042 10.0121 20.0537 9.9293 19.8582 9.76571C19.6628 9.60212 19.5371 9.37007 19.507 9.11697L19.5 8.99997C19.5004 7.98439 19.1143 7.00673 18.42 6.2655C17.7258 5.52426 16.7755 5.07502 15.762 5.00897L15.5 4.99997C15.2348 4.99997 14.9805 4.89461 14.7929 4.70708C14.6054 4.51954 14.5 4.26519 14.5 3.99997C14.5 3.73475 14.6054 3.4804 14.7929 3.29286C14.9805 3.10533 15.2348 2.99997 15.5 2.99997Z"/>
</mask>
<path d="M7.35705 2.44497C8.62005 3.36597 9.57605 4.65997 10.39 5.84897L11.028 6.78697C11.2262 7.07653 11.3168 7.42625 11.2843 7.7756C11.2518 8.12494 11.0982 8.45193 10.85 8.69997L9.49405 10.056L9.63705 10.36C9.98705 11.069 10.591 12.09 11.5 13C12.2 13.7 12.965 14.218 13.604 14.58L13.971 14.777L14.298 14.939L14.444 15.006L15.799 13.65C16.0481 13.4013 16.3765 13.2479 16.727 13.2167C17.0776 13.1854 17.428 13.2783 17.717 13.479L18.731 14.182C19.883 14.992 21.086 15.915 22.021 17.113C22.1827 17.3209 22.2855 17.5684 22.3187 17.8296C22.352 18.0908 22.3144 18.3562 22.21 18.598C21.373 20.551 19.255 22.214 17.052 22.132L16.752 22.116L16.519 22.096L16.261 22.066L15.98 22.028L15.675 21.977L15.349 21.913L15.003 21.836L14.637 21.742L14.252 21.632L13.85 21.502C12.004 20.876 9.66105 19.646 7.25705 17.242C4.85405 14.839 3.62405 12.496 2.99805 10.65L2.86805 10.248L2.75805 9.86297L2.66405 9.49697L2.58605 9.15097C2.56352 9.04261 2.54251 8.93393 2.52305 8.82497L2.47305 8.51997L2.43305 8.23897L2.40405 7.98097L2.38405 7.74797L2.36805 7.44797C2.28705 5.25197 3.96805 3.11897 5.91205 2.28597C6.14602 2.18494 6.40225 2.14647 6.65558 2.17435C6.90891 2.20222 7.15063 2.29548 7.35705 2.44497ZM6.43005 4.25297C5.35805 4.81297 4.32005 6.09297 4.36705 7.37397L4.38705 7.70197L4.40905 7.90697L4.43805 8.13697L4.47805 8.38997L4.52905 8.66697L4.59405 8.96497L4.67405 9.28497L4.77005 9.62397L4.88405 9.98197C4.92605 10.104 4.97005 10.229 5.01805 10.357L5.17205 10.749L5.34805 11.156C5.97605 12.538 7.00005 14.156 8.67305 15.828C10.345 17.5 11.963 18.525 13.345 19.153L13.752 19.329L14.144 19.483C14.272 19.531 14.397 19.575 14.519 19.617L14.877 19.731L15.217 19.827L15.536 19.907L15.834 19.972L16.111 20.023L16.365 20.063L16.595 20.093L16.799 20.113L17.127 20.133C18.391 20.18 19.681 19.148 20.239 18.09C19.527 17.255 18.643 16.57 17.668 15.88L16.92 15.359L16.73 15.558L16.324 16.001L16.109 16.227C15.523 16.824 14.839 17.331 14.019 17L13.793 16.905L13.517 16.781L13.363 16.708L13.025 16.539L12.654 16.339C11.7152 15.8165 10.8516 15.1689 10.087 14.414C9.33213 13.6494 8.68454 12.7858 8.16205 11.847L7.96205 11.477L7.79205 11.138L7.59605 10.708L7.50005 10.48C7.18905 9.71097 7.61705 9.06197 8.16405 8.49997L8.38805 8.27997L8.94504 7.76697L9.14505 7.57697L8.67205 6.88397C7.96905 5.86397 7.28205 4.94397 6.42905 4.25197L6.43005 4.25297ZM15.493 6.03997L15.609 6.05297C16.337 6.18137 17.0055 6.53691 17.5189 7.06865C18.0324 7.60039 18.3642 8.28101 18.467 9.01297C18.5037 9.26615 18.4419 9.52375 18.2944 9.73277C18.147 9.9418 17.925 10.0864 17.6742 10.1367C17.4233 10.187 17.1628 10.1393 16.946 10.0034C16.7293 9.8675 16.5729 9.65369 16.509 9.40597L16.486 9.29097C16.4458 9.00407 16.3234 8.73496 16.1335 8.51616C15.9436 8.29735 15.6944 8.13821 15.416 8.05797L15.261 8.02297C15.0099 7.97847 14.7853 7.83971 14.6331 7.63508C14.481 7.43045 14.4127 7.17541 14.4423 6.92212C14.472 6.66883 14.5973 6.43643 14.7926 6.27245C14.9879 6.10848 15.2385 6.02531 15.493 6.03997ZM15.5 2.99997C17.0913 2.99997 18.6175 3.63211 19.7427 4.75733C20.8679 5.88255 21.5 7.40867 21.5 8.99997C21.4998 9.25485 21.4022 9.5 21.2272 9.68534C21.0522 9.87068 20.8131 9.98221 20.5587 9.99714C20.3042 10.0121 20.0537 9.9293 19.8582 9.76571C19.6628 9.60212 19.5371 9.37007 19.507 9.11697L19.5 8.99997C19.5004 7.98439 19.1143 7.00673 18.42 6.2655C17.7258 5.52426 16.7755 5.07502 15.762 5.00897L15.5 4.99997C15.2348 4.99997 14.9805 4.89461 14.7929 4.70708C14.6054 4.51954 14.5 4.26519 14.5 3.99997C14.5 3.73475 14.6054 3.4804 14.7929 3.29286C14.9805 3.10533 15.2348 2.99997 15.5 2.99997Z" stroke="#1D2433" stroke-opacity="0.65" stroke-width="2" mask="url(#path-1-inside-1_3639_2056)"/>
</g>
<defs>
<clipPath id="clip0_3639_2056">
<rect width="24" height="24" fill="white" transform="translate(0.5)"/>
</clipPath>
</defs>
</svg>
