<svg width="33" height="32" viewBox="0 0 33 32" fill="none" xmlns="http://www.w3.org/2000/svg">
<path d="M24.8333 10.6668H27.4999C28.2363 10.6668 28.8333 11.2638 28.8333 12.0002V28.0002C28.8333 28.7366 28.2363 29.3335 27.4999 29.3335H6.16659C5.43021 29.3335 4.83325 28.7366 4.83325 28.0002V12.0002C4.83325 11.2638 5.43021 10.6668 6.16659 10.6668H8.83325V9.3335C8.83325 4.91522 12.415 1.3335 16.8333 1.3335C21.2515 1.3335 24.8333 4.91522 24.8333 9.3335V10.6668ZM15.4999 20.9767V24.0002H18.1666V20.9767C18.9637 20.5156 19.4999 19.6539 19.4999 18.6668C19.4999 17.194 18.3061 16.0002 16.8333 16.0002C15.3605 16.0002 14.1666 17.194 14.1666 18.6668C14.1666 19.6539 14.7029 20.5156 15.4999 20.9767ZM22.1666 10.6668V9.3335C22.1666 6.38798 19.7787 4.00016 16.8333 4.00016C13.8877 4.00016 11.4999 6.38798 11.4999 9.3335V10.6668H22.1666Z" fill="#1D2433" fill-opacity="0.8"/>
</svg>
