<svg width="32" height="32" viewBox="0 0 32 32" fill="none" xmlns="http://www.w3.org/2000/svg">
<rect width="32" height="32" rx="10" fill="#930BD3"/>
<g clip-path="url(#clip0_253_14857)">
<path fill-rule="evenodd" clip-rule="evenodd" d="M16.8997 8.38975C16.808 8.23239 16.6767 8.10182 16.5187 8.01107C16.3608 7.92032 16.1819 7.87256 15.9997 7.87256C15.8176 7.87256 15.6386 7.92032 15.4807 8.01107C15.3228 8.10182 15.1914 8.23239 15.0997 8.38975L12.7714 12.3873L8.24723 13.3681C8.0693 13.4068 7.90462 13.4914 7.76959 13.6135C7.63457 13.7357 7.53392 13.8911 7.47769 14.0643C7.42145 14.2375 7.41159 14.4223 7.44909 14.6005C7.48658 14.7787 7.57013 14.9439 7.6914 15.0798L10.7747 18.5306L10.3081 23.1348C10.2897 23.3161 10.3191 23.499 10.3935 23.6654C10.4679 23.8317 10.5847 23.9756 10.7321 24.0827C10.8795 24.1898 11.0525 24.2564 11.2337 24.2758C11.4149 24.2951 11.598 24.2666 11.7647 24.1931L15.9997 22.3264L20.2347 24.1931C20.4015 24.2666 20.5846 24.2951 20.7658 24.2758C20.947 24.2564 21.1199 24.1898 21.2673 24.0827C21.4148 23.9756 21.5315 23.8317 21.6059 23.6654C21.6803 23.499 21.7098 23.3161 21.6914 23.1348L21.2247 18.5306L24.3081 15.0806C24.4295 14.9448 24.5133 14.7795 24.5509 14.6012C24.5885 14.4229 24.5787 14.2379 24.5224 14.0646C24.4662 13.8912 24.3655 13.7357 24.2303 13.6135C24.0952 13.4913 23.9303 13.4067 23.7522 13.3681L19.2289 12.3881L16.8997 8.38975ZM15.9997 20.6023C16.1431 20.6023 16.2864 20.6314 16.4197 20.6906L19.9247 22.2356L19.5389 18.4248C19.5244 18.2808 19.54 18.1354 19.5847 17.9978C19.6295 17.8602 19.7024 17.7334 19.7989 17.6256L22.3506 14.7698L18.6072 13.9589C18.4658 13.9284 18.3324 13.8688 18.2153 13.7838C18.0982 13.6989 18.0001 13.5905 17.9272 13.4656L15.9997 10.1556V20.6023Z" fill="white"/>
</g>
<defs>
<clipPath id="clip0_253_14857">
<rect width="20" height="20" fill="white" transform="translate(6 6)"/>
</clipPath>
</defs>
</svg>
