<svg width="17" height="11" viewBox="0 0 17 11" fill="none" xmlns="http://www.w3.org/2000/svg">
<path fill-rule="evenodd" clip-rule="evenodd" d="M11.6116 1.96526C11.8723 1.64339 11.8227 1.17111 11.5009 0.910395C11.179 0.649677 10.7067 0.69925 10.446 1.02112L4.48839 8.3761L2.05738 5.96111C1.76352 5.66919 1.28865 5.67075 0.996729 5.96461C0.704805 6.25847 0.706375 6.73335 1.00023 7.02527L4.02013 10.0253C4.17061 10.1748 4.37735 10.2535 4.58914 10.2421C4.80094 10.2307 4.99799 10.1301 5.1315 9.96526L11.6116 1.96526ZM16.5939 1.98631C16.8663 1.6742 16.834 1.20042 16.5219 0.928097C16.2098 0.655775 15.736 0.688031 15.4637 1.00014L9.00619 8.40117L8.55389 7.9577C8.25812 7.6677 7.78327 7.67238 7.49328 7.96814C7.20329 8.26391 7.20796 8.73876 7.50373 9.02875L8.52363 10.0288C8.67106 10.1733 8.87156 10.2507 9.07788 10.2427C9.28421 10.2346 9.47809 10.1419 9.61383 9.98631L16.5939 1.98631Z" fill="#2F6FED"/>
</svg>
