<svg width="32" height="32" viewBox="0 0 32 32" fill="none" xmlns="http://www.w3.org/2000/svg">
<rect width="32" height="32" rx="10" fill="#D77228"/>
<g clip-path="url(#clip0_253_14830)">
<path fill-rule="evenodd" clip-rule="evenodd" d="M7.66699 11.8335C7.66699 11.1705 7.93038 10.5346 8.39923 10.0657C8.86807 9.59689 9.50395 9.3335 10.167 9.3335H21.8337C22.4967 9.3335 23.1326 9.59689 23.6014 10.0657C24.0703 10.5346 24.3337 11.1705 24.3337 11.8335V20.1668C24.3337 20.8299 24.0703 21.4658 23.6014 21.9346C23.1326 22.4034 22.4967 22.6668 21.8337 22.6668H10.167C9.50395 22.6668 8.86807 22.4034 8.39923 21.9346C7.93038 21.4658 7.66699 20.8299 7.66699 20.1668V11.8335ZM10.167 11.8335C9.94598 11.8335 9.73402 11.9213 9.57774 12.0776C9.42146 12.2339 9.33366 12.4458 9.33366 12.6668C9.33366 12.8878 9.42146 13.0998 9.57774 13.2561C9.73402 13.4124 9.94598 13.5002 10.167 13.5002H21.8337C22.0547 13.5002 22.2666 13.4124 22.4229 13.2561C22.5792 13.0998 22.667 12.8878 22.667 12.6668C22.667 12.4458 22.5792 12.2339 22.4229 12.0776C22.2666 11.9213 22.0547 11.8335 21.8337 11.8335H10.167ZM9.33366 16.8335C9.33366 16.6125 9.42146 16.4005 9.57774 16.2442C9.73402 16.088 9.94598 16.0002 10.167 16.0002H13.5003C13.5237 16.0002 13.547 16.001 13.5703 16.0035C13.7544 15.9874 13.9386 16.0329 14.094 16.1329C14.2494 16.233 14.3671 16.3818 14.4287 16.556C14.5438 16.8808 14.7567 17.1619 15.0382 17.3608C15.3196 17.5596 15.6557 17.6663 16.0003 17.6663C16.3449 17.6663 16.681 17.5596 16.9625 17.3608C17.2439 17.1619 17.4569 16.8808 17.572 16.556C17.6336 16.3818 17.7513 16.233 17.9067 16.1329C18.062 16.0329 18.2462 15.9874 18.4303 16.0035C18.4528 16.0002 18.477 16.0002 18.5003 16.0002H21.8337C22.0547 16.0002 22.2666 16.088 22.4229 16.2442C22.5792 16.4005 22.667 16.6125 22.667 16.8335C22.667 17.0545 22.5792 17.2665 22.4229 17.4228C22.2666 17.579 22.0547 17.6668 21.8337 17.6668H18.887C18.5946 18.1737 18.1738 18.5945 17.6671 18.8871C17.1603 19.1797 16.5855 19.3337 16.0003 19.3335C15.415 19.3338 14.84 19.1799 14.3331 18.8873C13.8262 18.5947 13.4053 18.1738 13.1128 17.6668H10.167C9.94598 17.6668 9.73402 17.579 9.57774 17.4228C9.42146 17.2665 9.33366 17.0545 9.33366 16.8335Z" fill="white"/>
</g>
<defs>
<clipPath id="clip0_253_14830">
<rect width="20" height="20" fill="white" transform="translate(6 6)"/>
</clipPath>
</defs>
</svg>
