<svg width="14" height="14" viewBox="0 0 14 14" fill="none" xmlns="http://www.w3.org/2000/svg">
<path d="M7.00016 0.333252C10.6822 0.333252 13.6668 3.31792 13.6668 6.99992C13.6668 10.6819 10.6822 13.6666 7.00016 13.6666H1.66683C1.31321 13.6666 0.974069 13.5261 0.72402 13.2761C0.473972 13.026 0.333496 12.6869 0.333496 12.3333V6.99992C0.333496 3.31792 3.31816 0.333252 7.00016 0.333252ZM7.00016 8.33325H5.00016C4.82335 8.33325 4.65378 8.40349 4.52876 8.52851C4.40373 8.65354 4.3335 8.82311 4.3335 8.99992C4.3335 9.17673 4.40373 9.3463 4.52876 9.47132C4.65378 9.59635 4.82335 9.66659 5.00016 9.66659H7.00016C7.17697 9.66659 7.34654 9.59635 7.47157 9.47132C7.59659 9.3463 7.66683 9.17673 7.66683 8.99992C7.66683 8.82311 7.59659 8.65354 7.47157 8.52851C7.34654 8.40349 7.17697 8.33325 7.00016 8.33325ZM9.00016 5.66659H5.00016C4.83024 5.66677 4.66681 5.73184 4.54325 5.84848C4.41969 5.96513 4.34534 6.12455 4.33538 6.29418C4.32542 6.46381 4.38061 6.63084 4.48967 6.76114C4.59873 6.89144 4.75343 6.97518 4.92216 6.99525L5.00016 6.99992H9.00016C9.17008 6.99973 9.33352 6.93467 9.45708 6.81802C9.58063 6.70137 9.65499 6.54195 9.66494 6.37232C9.6749 6.20269 9.61971 6.03567 9.51065 5.90536C9.40159 5.77506 9.24689 5.69132 9.07816 5.67125L9.00016 5.66659Z" fill="#E02D3C"/>
</svg>
