<svg width="48" height="48" viewBox="0 0 48 48" fill="none" xmlns="http://www.w3.org/2000/svg">
<rect width="48" height="48" rx="12" fill="#FEF1F2"/>
<g clip-path="url(#clip0_276_15107)">
<path d="M24.0002 12.3333C30.4437 12.3333 35.6668 17.5564 35.6668 23.9999C35.6668 30.4434 30.4437 35.6666 24.0002 35.6666H14.6668C14.048 35.6666 13.4545 35.4208 13.0169 34.9832C12.5793 34.5456 12.3335 33.9521 12.3335 33.3333V23.9999C12.3335 17.5564 17.5567 12.3333 24.0002 12.3333ZM24.0002 26.3333H20.5002C20.1907 26.3333 19.894 26.4562 19.6752 26.675C19.4564 26.8938 19.3335 27.1905 19.3335 27.4999C19.3335 27.8093 19.4564 28.1061 19.6752 28.3249C19.894 28.5437 20.1907 28.6666 20.5002 28.6666H24.0002C24.3096 28.6666 24.6063 28.5437 24.8251 28.3249C25.0439 28.1061 25.1668 27.8093 25.1668 27.4999C25.1668 27.1905 25.0439 26.8938 24.8251 26.675C24.6063 26.4562 24.3096 26.3333 24.0002 26.3333ZM27.5002 21.6666H20.5002C20.2028 21.6669 19.9168 21.7808 19.7006 21.9849C19.4843 22.189 19.3542 22.468 19.3368 22.7649C19.3194 23.0617 19.4159 23.354 19.6068 23.5821C19.7977 23.8101 20.0684 23.9566 20.3637 23.9918L20.5002 23.9999H27.5002C27.7975 23.9996 28.0835 23.8857 28.2998 23.6816C28.516 23.4775 28.6461 23.1985 28.6635 22.9016C28.681 22.6048 28.5844 22.3125 28.3935 22.0844C28.2027 21.8564 27.9319 21.7099 27.6367 21.6748L27.5002 21.6666Z" fill="#E02D3C"/>
</g>
<defs>
<clipPath id="clip0_276_15107">
<rect width="28" height="28" fill="white" transform="translate(10 10)"/>
</clipPath>
</defs>
</svg>
