<svg width="19" height="18" viewBox="0 0 19 18" fill="none" xmlns="http://www.w3.org/2000/svg">
<path fill-rule="evenodd" clip-rule="evenodd" d="M2.62499 7C2.62499 5.67392 3.15177 4.40215 4.08946 3.46447C5.02714 2.52678 6.29891 2 7.62499 2C8.95107 2 10.2228 2.52678 11.1605 3.46447C12.0982 4.40215 12.625 5.67392 12.625 7C12.625 8.32608 12.0982 9.59785 11.1605 10.5355C10.2228 11.4732 8.95107 12 7.62499 12C6.29891 12 5.02714 11.4732 4.08946 10.5355C3.15177 9.59785 2.62499 8.32608 2.62499 7ZM7.62499 2.20582e-07C6.51625 2.1098e-06 5.42337 0.263375 4.43634 0.768432C3.44931 1.27349 2.59638 2.00578 1.94776 2.90501C1.29915 3.80423 0.87342 4.84467 0.705626 5.94064C0.537832 7.03661 0.632776 8.15676 0.982639 9.20885C1.3325 10.2609 1.92728 11.2149 2.71798 11.9921C3.50869 12.7693 4.47271 13.3476 5.53067 13.6794C6.58862 14.0111 7.71024 14.0868 8.80316 13.9001C9.89608 13.7135 10.929 13.27 11.817 12.606L16.917 17.707C17.1045 17.8946 17.3589 18.0001 17.6241 18.0002C17.8894 18.0003 18.1438 17.895 18.3315 17.7075C18.5191 17.52 18.6246 17.2656 18.6247 17.0004C18.6248 16.7351 18.5195 16.4806 18.332 16.293L13.232 11.193C14.0103 10.1525 14.4837 8.91592 14.5991 7.62167C14.7145 6.32741 14.4674 5.02658 13.8854 3.86481C13.3034 2.70304 12.4096 1.72618 11.3039 1.0436C10.1982 0.361026 8.92438 -0.000325925 7.62499 2.20582e-07Z" fill="#1D2433" fill-opacity="0.65"/>
</svg>
