<svg width="16" height="16" viewBox="0 0 16 16" fill="none" xmlns="http://www.w3.org/2000/svg">
<path fill-rule="evenodd" clip-rule="evenodd" d="M2.16666 6.33333C2.16666 5.22826 2.60564 4.16846 3.38705 3.38706C4.16845 2.60565 5.22826 2.16667 6.33332 2.16667C7.43839 2.16667 8.4982 2.60565 9.2796 3.38706C10.061 4.16846 10.5 5.22826 10.5 6.33333C10.5 7.4384 10.061 8.49821 9.2796 9.27961C8.4982 10.061 7.43839 10.5 6.33332 10.5C5.22826 10.5 4.16845 10.061 3.38705 9.27961C2.60564 8.49821 2.16666 7.4384 2.16666 6.33333ZM6.33332 0.5C5.40937 0.500002 4.49864 0.719479 3.67612 1.14036C2.85359 1.56124 2.14281 2.17148 1.6023 2.92084C1.06179 3.67019 0.707017 4.53722 0.567188 5.45053C0.42736 6.36384 0.50648 7.2973 0.798032 8.17404C1.08958 9.05079 1.58523 9.84574 2.24415 10.4934C2.90308 11.1411 3.70643 11.623 4.58806 11.8995C5.46968 12.1759 6.40436 12.239 7.31513 12.0835C8.2259 11.9279 9.08671 11.5583 9.82666 11.005L14.0767 15.2558C14.2329 15.4122 14.4449 15.5001 14.6659 15.5002C14.887 15.5002 15.099 15.4125 15.2554 15.2563C15.4118 15.1 15.4997 14.888 15.4997 14.667C15.4998 14.4459 15.4121 14.2339 15.2558 14.0775L11.0058 9.8275C11.6544 8.96043 12.0489 7.92994 12.1451 6.85139C12.2412 5.77284 12.0353 4.68882 11.5503 3.72067C11.0653 2.75253 10.3205 1.93848 9.39907 1.36967C8.47768 0.800855 7.41615 0.499728 6.33332 0.5Z" fill="white"/>
</svg>
