<svg width="20" height="20" viewBox="0 0 20 20" fill="none" xmlns="http://www.w3.org/2000/svg">
<path fill-rule="evenodd" clip-rule="evenodd" d="M3.12494 8C3.12494 7.40905 3.24134 6.82389 3.46748 6.27792C3.69363 5.73196 4.0251 5.23588 4.44296 4.81802C4.86082 4.40016 5.3569 4.06869 5.90287 3.84254C6.44883 3.6164 7.03399 3.5 7.62494 3.5C8.21589 3.5 8.80105 3.6164 9.34702 3.84254C9.89298 4.06869 10.3891 4.40016 10.8069 4.81802C11.2248 5.23588 11.5563 5.73196 11.7824 6.27792C12.0085 6.82389 12.1249 7.40905 12.1249 8C12.1249 9.19347 11.6508 10.3381 10.8069 11.182C9.96301 12.0259 8.81842 12.5 7.62494 12.5C6.43147 12.5 5.28687 12.0259 4.44296 11.182C3.59905 10.3381 3.12494 9.19347 3.12494 8ZM7.62494 0.5C6.45544 0.500123 5.30217 0.773742 4.25726 1.299C3.21235 1.82426 2.30476 2.5866 1.60697 3.52512C0.909188 4.46365 0.440556 5.55235 0.238508 6.70427C0.0364608 7.85619 0.106597 9.03939 0.443316 10.1594C0.780034 11.2794 1.374 12.3051 2.17778 13.1546C2.98155 14.0041 3.97285 14.6539 5.0725 15.052C6.17214 15.4502 7.34966 15.5856 8.51099 15.4476C9.67231 15.3095 10.7853 14.9018 11.7609 14.257L16.5639 19.061C16.8453 19.3424 17.227 19.5005 17.6249 19.5005C18.0229 19.5005 18.4045 19.3424 18.6859 19.061C18.9673 18.7796 19.1254 18.398 19.1254 18C19.1254 17.602 18.9673 17.2204 18.6859 16.939L13.8819 12.136C14.6292 11.0056 15.0563 9.69387 15.1177 8.34019C15.1792 6.98652 14.8728 5.64148 14.231 4.44801C13.5893 3.25454 12.6361 2.25724 11.473 1.56209C10.3098 0.866937 8.98001 0.499906 7.62494 0.5Z" fill="#2F6FED"/>
</svg>
