<svg width="20" height="20" viewBox="0 0 20 20" fill="none" xmlns="http://www.w3.org/2000/svg">
<rect width="20" height="20" rx="10" fill="#0162DD"/>
<path fill-rule="evenodd" clip-rule="evenodd" d="M15.2193 4.70323C15.7284 5.16952 15.7631 5.96021 15.2968 6.4693C13.8554 8.04296 13.1623 9.0024 12.1213 10.8652C11.7282 11.5686 11.2929 12.544 10.9459 13.3737C10.775 13.7824 10.6301 14.1447 10.5281 14.4044C10.4772 14.5341 10.437 14.638 10.4098 14.7089L10.379 14.7895L10.3714 14.8096L10.3697 14.8142C10.2145 15.2265 9.85346 15.5277 9.41992 15.6054C8.98635 15.6831 8.54388 15.5269 8.25521 15.1942L4.68087 11.0746C4.22844 10.5532 4.28439 9.76369 4.80583 9.31127C5.32727 8.85884 6.11675 8.91479 6.56917 9.43623L8.80641 12.0147C9.13661 11.2442 9.54293 10.3542 9.93895 9.64561C11.0744 7.61387 11.8812 6.49707 13.4532 4.78072C13.9195 4.27163 14.7102 4.23694 15.2193 4.70323Z" fill="white"/>
</svg>
