<svg width="36" height="36" viewBox="0 0 36 36" fill="none" xmlns="http://www.w3.org/2000/svg">
<rect width="36" height="36" rx="18" fill="#2F6FED"/>
<g clip-path="url(#clip0_174_20270)">
<path d="M27.4332 10.861L21.4332 26.361C21.3738 26.5145 21.2775 26.651 21.1528 26.7584C21.028 26.8657 20.8787 26.9407 20.718 26.9765C20.5574 27.0123 20.3904 27.0079 20.2318 26.9637C20.0733 26.9195 19.9281 26.8368 19.8092 26.723L16.4272 23.488L14.3532 25.561C14.2832 25.6308 14.1941 25.6782 14.0972 25.6974C14.0003 25.7166 13.8998 25.7066 13.8085 25.6687C13.7173 25.6308 13.6393 25.5668 13.5844 25.4846C13.5295 25.4024 13.5002 25.3058 13.5002 25.207V20.688L8.30919 15.723C8.1804 15.5998 8.08688 15.4444 8.03832 15.2729C7.98975 15.1014 7.98792 14.92 8.03299 14.7476C8.07807 14.5751 8.16842 14.4178 8.29469 14.292C8.42097 14.1662 8.57857 14.0764 8.75119 14.032L26.2512 9.53201C26.4291 9.48644 26.6161 9.49074 26.7918 9.54444C26.9674 9.59815 27.1249 9.69919 27.2469 9.83647C27.3688 9.97376 27.4507 10.142 27.4834 10.3227C27.5161 10.5034 27.4984 10.6897 27.4322 10.861H27.4332ZM25.0002 12.001L14.0322 19.152L15.7672 20.812L25.0002 12.001Z" fill="white"/>
</g>
<defs>
<clipPath id="clip0_174_20270">
<rect width="24" height="24" fill="white" transform="translate(6 6)"/>
</clipPath>
</defs>
</svg>
