<svg width="17" height="20" viewBox="0 0 17 20" fill="none" xmlns="http://www.w3.org/2000/svg">
<path d="M6.999 0.601C7.39 0.299 7.92 0 8.5 0C9.08 0 9.61 0.299 10.001 0.601C10.425 0.928 10.837 1.374 11.198 1.896C11.381 2.161 11.555 2.453 11.714 2.766C12.6272 2.29404 13.632 2.02587 14.659 1.98C15.787 1.927 16.5 2.876 16.5 3.798V6C16.5 7.94861 15.7888 9.83023 14.5 11.2917C13.2112 12.7533 11.4333 13.6942 9.5 13.938V17.008C10.576 16.339 12.162 15.554 14.258 15.03C14.3862 14.9956 14.52 14.9871 14.6516 15.0049C14.7831 15.0228 14.9098 15.0666 15.0243 15.134C15.1387 15.2013 15.2386 15.2907 15.3181 15.3971C15.3975 15.5034 15.4551 15.6245 15.4873 15.7533C15.5195 15.8821 15.5257 16.016 15.5056 16.1473C15.4855 16.2785 15.4395 16.4044 15.3702 16.5177C15.3009 16.6309 15.2098 16.7292 15.1021 16.8069C14.9944 16.8846 14.8723 16.94 14.743 16.97C11.525 17.775 9.707 19.26 9.293 19.628C9.06 19.836 8.829 20 8.5 20C8.175 20 7.944 19.84 7.713 19.633C7.312 19.275 5.493 17.779 2.257 16.97C2.12881 16.9389 2.00804 16.8827 1.90166 16.8046C1.79528 16.7266 1.70539 16.6283 1.63717 16.5154C1.56895 16.4025 1.52374 16.2772 1.50416 16.1467C1.48457 16.0163 1.49099 15.8832 1.52305 15.7553C1.55511 15.6273 1.61217 15.5069 1.69095 15.4011C1.76972 15.2953 1.86866 15.2061 1.98206 15.1387C2.09546 15.0713 2.22107 15.027 2.35167 15.0083C2.48227 14.9897 2.61526 14.997 2.743 15.03C4.838 15.554 6.423 16.34 7.5 17.008V13.938C5.5667 13.6942 3.78882 12.7533 2.5 11.2917C1.21119 9.83023 0.500033 7.94861 0.5 6V3.784C0.5 2.875 1.192 1.934 2.307 1.964C3.041 1.984 4.161 2.132 5.307 2.727C5.459 2.429 5.627 2.15 5.802 1.897C6.162 1.374 6.575 0.927 6.999 0.601Z" fill="#08875D"/>
</svg>
