<svg width="32" height="32" viewBox="0 0 32 32" fill="none" xmlns="http://www.w3.org/2000/svg">
<rect width="32" height="32" rx="10" fill="#0B7FD3"/>
<g clip-path="url(#clip0_253_14861)">
<path d="M19.3333 11.8333C19.3333 13.6743 17.8409 15.1667 16 15.1667C14.159 15.1667 12.6667 13.6743 12.6667 11.8333C12.6667 9.99238 14.159 8.5 16 8.5C17.8409 8.5 19.3333 9.99238 19.3333 11.8333ZM15.1667 19.3333C15.1667 21.1742 13.6743 22.6667 11.8333 22.6667C9.99238 22.6667 8.5 21.1742 8.5 19.3333C8.5 17.4924 9.99238 16 11.8333 16C13.6743 16 15.1667 17.4924 15.1667 19.3333ZM23.5 19.3333C23.5 21.1742 22.0076 22.6667 20.1667 22.6667C18.3257 22.6667 16.8333 21.1742 16.8333 19.3333C16.8333 17.4924 18.3257 16 20.1667 16C22.0076 16 23.5 17.4924 23.5 19.3333Z" fill="white"/>
</g>
<defs>
<clipPath id="clip0_253_14861">
<rect width="20" height="20" fill="white" transform="translate(6 6)"/>
</clipPath>
</defs>
</svg>
