<svg width="32" height="32" viewBox="0 0 32 32" fill="none" xmlns="http://www.w3.org/2000/svg">
<rect width="32" height="32" rx="10" fill="#0BD3BB"/>
<path fill-rule="evenodd" clip-rule="evenodd" d="M15.9998 7.6665C16.2209 7.6665 16.4328 7.7543 16.5891 7.91058C16.7454 8.06686 16.8332 8.27882 16.8332 8.49984V9.38484C17.4363 9.45974 18.0263 9.61733 18.5865 9.85317L19.0282 9.08817C19.0825 8.99263 19.1552 8.90878 19.242 8.84145C19.3289 8.77411 19.4282 8.72462 19.5343 8.69583C19.6403 8.66703 19.751 8.6595 19.86 8.67367C19.969 8.68783 20.0741 8.72342 20.1693 8.77837C20.2645 8.83332 20.3478 8.90655 20.4146 8.99385C20.4813 9.08116 20.5302 9.1808 20.5583 9.28705C20.5863 9.3933 20.5931 9.50405 20.5783 9.61294C20.5634 9.72183 20.5271 9.82669 20.4715 9.9215L20.029 10.6882C20.5123 11.0548 20.944 11.4873 21.3123 11.9715L22.079 11.5282C22.1738 11.4726 22.2787 11.4363 22.3876 11.4214C22.4965 11.4065 22.6072 11.4133 22.7135 11.4414C22.8197 11.4695 22.9194 11.5183 23.0067 11.5851C23.094 11.6519 23.1672 11.7352 23.2221 11.8304C23.2771 11.9256 23.3127 12.0307 23.3268 12.1397C23.341 12.2486 23.3335 12.3594 23.3047 12.4654C23.2759 12.5715 23.2264 12.6708 23.1591 12.7576C23.0917 12.8445 23.0079 12.9172 22.9123 12.9715L22.1457 13.4132C22.3782 13.964 22.5382 14.5523 22.6148 15.1665H23.4998C23.7209 15.1665 23.9328 15.2543 24.0891 15.4106C24.2454 15.5669 24.3332 15.7788 24.3332 15.9998C24.3332 16.2209 24.2454 16.4328 24.0891 16.5891C23.9328 16.7454 23.7209 16.8332 23.4998 16.8332H22.6148C22.5399 17.4363 22.3823 18.0263 22.1465 18.5865L22.9115 19.0282C23.007 19.0825 23.0909 19.1552 23.1582 19.242C23.2256 19.3289 23.2751 19.4282 23.3038 19.5343C23.3326 19.6403 23.3402 19.751 23.326 19.86C23.3118 19.969 23.2763 20.0741 23.2213 20.1693C23.1664 20.2645 23.0931 20.3478 23.0058 20.4146C22.9185 20.4813 22.8189 20.5302 22.7126 20.5583C22.6064 20.5863 22.4956 20.5931 22.3867 20.5783C22.2778 20.5634 22.173 20.5271 22.0782 20.4715L21.3115 20.029C20.9439 20.513 20.5121 20.9447 20.0282 21.3123L20.4715 22.079C20.5271 22.1738 20.5634 22.2787 20.5783 22.3876C20.5931 22.4965 20.5863 22.6072 20.5583 22.7135C20.5302 22.8197 20.4813 22.9194 20.4146 23.0067C20.3478 23.094 20.2645 23.1672 20.1693 23.2221C20.0741 23.2771 19.969 23.3127 19.86 23.3268C19.751 23.341 19.6403 23.3335 19.5343 23.3047C19.4282 23.2759 19.3289 23.2264 19.242 23.1591C19.1552 23.0917 19.0825 23.0079 19.0282 22.9123L18.5865 22.1457C18.0357 22.3782 17.4473 22.5382 16.8332 22.6148V23.4998C16.8332 23.7209 16.7454 23.9328 16.5891 24.0891C16.4328 24.2454 16.2209 24.3332 15.9998 24.3332C15.7788 24.3332 15.5669 24.2454 15.4106 24.0891C15.2543 23.9328 15.1665 23.7209 15.1665 23.4998V22.6148C14.5633 22.5399 13.9734 22.3823 13.4132 22.1465L12.9715 22.9115C12.9172 23.007 12.8445 23.0909 12.7576 23.1582C12.6708 23.2256 12.5715 23.2751 12.4654 23.3038C12.3594 23.3326 12.2486 23.3402 12.1397 23.326C12.0307 23.3118 11.9256 23.2763 11.8304 23.2213C11.7352 23.1664 11.6519 23.0931 11.5851 23.0058C11.5183 22.9185 11.4695 22.8189 11.4414 22.7126C11.4133 22.6064 11.4065 22.4956 11.4214 22.3867C11.4363 22.2778 11.4726 22.173 11.5282 22.0782L11.9707 21.3115C11.4867 20.9439 11.055 20.5121 10.6873 20.0282L9.92067 20.4715C9.82586 20.5271 9.72099 20.5634 9.61211 20.5783C9.50322 20.5931 9.39246 20.5863 9.28622 20.5583C9.17997 20.5302 9.08032 20.4813 8.99302 20.4146C8.90572 20.3478 8.83249 20.2645 8.77753 20.1693C8.72258 20.0741 8.687 19.969 8.67283 19.86C8.65867 19.751 8.6662 19.6403 8.695 19.5343C8.72379 19.4282 8.77328 19.3289 8.84061 19.242C8.90795 19.1552 8.9918 19.0825 9.08734 19.0282L9.854 18.5865C9.6176 18.0264 9.45945 17.4364 9.384 16.8332H8.49984C8.27882 16.8332 8.06686 16.7454 7.91058 16.5891C7.7543 16.4328 7.6665 16.2209 7.6665 15.9998C7.6665 15.7788 7.7543 15.5669 7.91058 15.4106C8.06686 15.2543 8.27882 15.1665 8.49984 15.1665H9.38484C9.45974 14.5633 9.61733 13.9734 9.85317 13.4132L9.08817 12.9715C8.89833 12.8602 8.76022 12.6783 8.70397 12.4656C8.64773 12.2529 8.67791 12.0265 8.78794 11.8359C8.89797 11.6454 9.07892 11.506 9.29128 11.4484C9.50365 11.3907 9.73021 11.4194 9.9215 11.5282L10.6882 11.9707C11.0548 11.4873 11.4873 11.0557 11.9715 10.6873L11.5282 9.92067C11.4194 9.72937 11.3907 9.50282 11.4484 9.29045C11.506 9.07808 11.6454 8.89714 11.8359 8.78711C12.0265 8.67708 12.2529 8.64689 12.4656 8.70314C12.6783 8.75939 12.8602 8.8975 12.9715 9.08734L13.4132 9.854C13.9733 9.61759 14.5633 9.45944 15.1665 9.384V8.49984C15.1665 8.27882 15.2543 8.06686 15.4106 7.91058C15.5669 7.7543 15.7788 7.6665 15.9998 7.6665ZM15.9998 16.9623L12.1465 19.1873C12.5182 19.6348 12.9657 20.0165 13.4698 20.3132L13.5307 20.349C14.2831 20.777 15.1342 21.0013 15.9998 20.9998C16.8082 20.9998 17.5715 20.8082 18.2473 20.4673L18.5307 20.3132C19.0336 20.0173 19.4811 19.636 19.8532 19.1865L15.9998 16.9623ZM15.1665 11.069C14.6727 11.1518 14.1942 11.3089 13.7473 11.5348L13.5307 11.6515L13.4698 11.6865C12.8079 12.0759 12.244 12.6119 11.8215 13.2532L11.6865 13.4698L11.6515 13.5307C11.2233 14.283 10.9986 15.1341 10.9998 15.9998C10.9998 16.5248 11.0807 17.0332 11.2315 17.5082L11.3123 17.744L15.1665 15.519V11.069ZM16.8332 11.069V15.519L20.6873 17.744C20.8947 17.1859 21.0006 16.5952 20.9998 15.9998C20.9998 15.1915 20.8082 14.4282 20.4673 13.7523L20.3482 13.5307L20.3215 13.4848L20.3132 13.4698C19.9237 12.8079 19.3878 12.244 18.7465 11.8215L18.469 11.6507C18.0361 11.4044 17.5687 11.2246 17.0823 11.1173L16.8332 11.069Z" fill="white"/>
</svg>
