<svg width="28" height="28" viewBox="0 0 28 28" fill="none" xmlns="http://www.w3.org/2000/svg">
<g clip-path="url(#clip0_67_11924)">
<path fill-rule="evenodd" clip-rule="evenodd" d="M17.5002 6.41664C17.5001 5.4697 17.8291 4.55217 18.4309 3.82107C19.0328 3.08998 19.87 2.59078 20.7993 2.40891C21.7286 2.22704 22.6922 2.37381 23.5252 2.8241C24.3582 3.27439 25.0089 4.0002 25.3658 4.87732C25.7226 5.75443 25.7636 6.72831 25.4816 7.63228C25.1996 8.53625 24.6121 9.31411 23.8198 9.83272C23.0275 10.3513 22.0796 10.5785 21.1383 10.4752C20.1971 10.372 19.3209 9.94481 18.6598 9.2668L13.6152 11.9116C13.8637 12.5591 14.0002 13.265 14.0002 14C14.001 14.7138 13.8705 15.4217 13.6152 16.0883L18.6598 18.7331C19.345 18.0313 20.2598 17.5995 21.2371 17.5167C22.2145 17.4339 23.1889 17.7057 23.9823 18.2823C24.7757 18.8589 25.3351 19.7018 25.5581 20.657C25.7812 21.6121 25.653 22.6156 25.197 23.4839C24.741 24.3523 23.9876 25.0275 23.0747 25.3861C22.1618 25.7447 21.1504 25.7627 20.2253 25.4369C19.3001 25.1111 18.5232 24.4631 18.0366 23.6116C17.5499 22.76 17.386 21.7618 17.5748 20.7993L12.354 18.0623C11.5454 18.8958 10.5065 19.469 9.37017 19.7085C8.23388 19.948 7.05196 19.8429 5.97575 19.4066C4.89955 18.9704 3.97804 18.2228 3.32922 17.2597C2.6804 16.2966 2.3338 15.1618 2.3338 14.0006C2.3338 12.8393 2.6804 11.7045 3.32922 10.7414C3.97804 9.77826 4.89955 9.03073 5.97575 8.59448C7.05196 8.15823 8.23388 8.05313 9.37017 8.29262C10.5065 8.53211 11.5454 9.10531 12.354 9.9388L17.5748 7.20064C17.5249 6.94229 17.4999 6.67976 17.5002 6.41664Z" fill="white"/>
</g>
<defs>
<clipPath id="clip0_67_11924">
<rect width="28" height="28" fill="white"/>
</clipPath>
</defs>
</svg>
