<svg width="32" height="32" viewBox="0 0 32 32" fill="none" xmlns="http://www.w3.org/2000/svg">
<rect width="32" height="32" rx="10" fill="#2F6FED"/>
<g clip-path="url(#clip0_253_14884)">
<path fill-rule="evenodd" clip-rule="evenodd" d="M19.333 9.14165V22.8583C19.3329 23.0399 19.2933 23.2192 19.217 23.3839C19.1406 23.5486 19.0292 23.6946 18.8907 23.8119C18.7521 23.9292 18.5897 24.0149 18.4147 24.0631C18.2396 24.1112 18.0562 24.1207 17.8772 24.0908L10.7255 22.8992C10.3364 22.8343 9.98283 22.6334 9.72785 22.3323C9.47287 22.0313 9.33296 21.6495 9.33301 21.255V10.745C9.33296 10.3505 9.47287 9.9687 9.72785 9.66763C9.98283 9.36657 10.3364 9.16572 10.7255 9.10082L17.8772 7.90915C18.0563 7.87925 18.2398 7.88873 18.4149 7.93695C18.59 7.98516 18.7524 8.07095 18.891 8.18833C19.0296 8.30572 19.1409 8.45189 19.2172 8.61667C19.2936 8.78145 19.3331 8.96005 19.333 9.14165ZM20.9997 10.1667C21.4202 10.1665 21.8251 10.3253 22.1335 10.6112C22.4418 10.8971 22.6306 11.289 22.6622 11.7083L22.6663 11.8333V20.1667C22.6665 20.5871 22.5077 20.9921 22.2218 21.3004C21.9359 21.6088 21.544 21.7976 21.1247 21.8292L20.9997 21.8333H20.1663V10.1667H20.9997ZM15.583 14.75C15.2515 14.75 14.9335 14.8817 14.6991 15.1161C14.4647 15.3505 14.333 15.6685 14.333 16C14.333 16.3315 14.4647 16.6495 14.6991 16.8839C14.9335 17.1183 15.2515 17.25 15.583 17.25C15.9145 17.25 16.2325 17.1183 16.4669 16.8839C16.7013 16.6495 16.833 16.3315 16.833 16C16.833 15.6685 16.7013 15.3505 16.4669 15.1161C16.2325 14.8817 15.9145 14.75 15.583 14.75Z" fill="white"/>
</g>
<defs>
<clipPath id="clip0_253_14884">
<rect width="20" height="20" fill="white" transform="translate(6 6)"/>
</clipPath>
</defs>
</svg>
