<svg width="159" height="29" viewBox="0 0 159 29" fill="none" xmlns="http://www.w3.org/2000/svg">
<path d="M2 2.04175V26.9874" stroke="#1D2433" stroke-opacity="0.3" stroke-width="3.33296" stroke-linecap="round"/>
<path d="M6.99902 6.75684L6.99902 22.2721" stroke="#1D2433" stroke-opacity="0.3" stroke-width="3.33296" stroke-linecap="round"/>
<path d="M11.999 5.84375L11.999 23.1858" stroke="#1D2433" stroke-opacity="0.3" stroke-width="3.33296" stroke-linecap="round"/>
<path d="M16.998 2.04175L16.998 26.9874" stroke="#1D2433" stroke-opacity="0.3" stroke-width="3.33296" stroke-linecap="round"/>
<path d="M21.998 3.59082L21.998 25.4387" stroke="#1D2433" stroke-opacity="0.3" stroke-width="3.33296" stroke-linecap="round"/>
<path d="M26.9971 8.03564L26.9971 20.9937" stroke="#1D2433" stroke-opacity="0.3" stroke-width="3.33296" stroke-linecap="round"/>
<path d="M31.9971 2.04175L31.9971 26.9874" stroke="#1D2433" stroke-opacity="0.3" stroke-width="3.33296" stroke-linecap="round"/>
<path d="M36.9961 2.61646L36.9961 26.4129" stroke="#1D2433" stroke-opacity="0.3" stroke-width="3.33296" stroke-linecap="round"/>
<path d="M41.9951 2.04175L41.9951 26.9874" stroke="#1D2433" stroke-opacity="0.3" stroke-width="3.33296" stroke-linecap="round"/>
<path d="M46.9951 3.59082L46.9951 25.4387" stroke="#1D2433" stroke-opacity="0.3" stroke-width="3.33296" stroke-linecap="round"/>
<path d="M51.9941 3.59082L51.9941 25.4387" stroke="#1D2433" stroke-opacity="0.3" stroke-width="3.33296" stroke-linecap="round"/>
<path d="M56.9941 2.04175L56.9941 26.9874" stroke="#1D2433" stroke-opacity="0.3" stroke-width="3.33296" stroke-linecap="round"/>
<path d="M61.9932 4.01709L61.9932 25.0125" stroke="#1D2433" stroke-opacity="0.3" stroke-width="3.33296" stroke-linecap="round"/>
<path d="M66.9932 2.61646L66.9932 26.4129" stroke="#1D2433" stroke-opacity="0.3" stroke-width="3.33296" stroke-linecap="round"/>
<path d="M71.9922 7.85303L71.9922 21.1765" stroke="#1D2433" stroke-opacity="0.3" stroke-width="3.33296" stroke-linecap="round"/>
<path d="M76.9912 2.61646L76.9912 26.4129" stroke="#1D2433" stroke-opacity="0.3" stroke-width="3.33296" stroke-linecap="round"/>
<path d="M81.9912 3.16455L81.9912 25.8649" stroke="#1D2433" stroke-opacity="0.3" stroke-width="3.33296" stroke-linecap="round"/>
<path d="M86.9902 2.61646L86.9902 26.4129" stroke="#1D2433" stroke-opacity="0.3" stroke-width="3.33296" stroke-linecap="round"/>
<path d="M91.9902 4.86938L91.9902 24.16" stroke="#1D2433" stroke-opacity="0.3" stroke-width="3.33296" stroke-linecap="round"/>
<path d="M96.9893 3.16431L96.9893 25.8647" stroke="#1D2433" stroke-opacity="0.3" stroke-width="3.33296" stroke-linecap="round"/>
<path d="M101.989 6.81787L101.989 22.2117" stroke="#1D2433" stroke-opacity="0.3" stroke-width="3.33296" stroke-linecap="round"/>
<path d="M106.988 4.86938L106.988 24.16" stroke="#1D2433" stroke-opacity="0.3" stroke-width="3.33296" stroke-linecap="round"/>
<path d="M111.987 8.15747L111.987 20.872" stroke="#1D2433" stroke-opacity="0.3" stroke-width="3.33296" stroke-linecap="round"/>
<path d="M116.987 2.49463L116.987 26.5346" stroke="#1D2433" stroke-opacity="0.3" stroke-width="3.33296" stroke-linecap="round"/>
<path d="M121.986 7.18311L121.986 21.8462" stroke="#1D2433" stroke-opacity="0.3" stroke-width="3.33296" stroke-linecap="round"/>
<path d="M126.986 2.49463L126.986 26.5346" stroke="#1D2433" stroke-opacity="0.3" stroke-width="3.33296" stroke-linecap="round"/>
<path d="M131.985 2.49463L131.985 26.5346" stroke="#1D2433" stroke-opacity="0.3" stroke-width="3.33296" stroke-linecap="round"/>
<path d="M136.985 2.49463L136.985 26.5346" stroke="#1D2433" stroke-opacity="0.3" stroke-width="3.33296" stroke-linecap="round"/>
<path d="M141.984 8.94897L141.984 20.0803" stroke="#1D2433" stroke-opacity="0.3" stroke-width="3.33296" stroke-linecap="round"/>
<path d="M146.983 1.94678L146.983 27.0826" stroke="#1D2433" stroke-opacity="0.3" stroke-width="3.33296" stroke-linecap="round"/>
<path d="M151.983 3.34717L151.983 25.6822" stroke="#1D2433" stroke-opacity="0.3" stroke-width="3.33296" stroke-linecap="round"/>
<path d="M156.982 5.96533L156.982 23.0638" stroke="#1D2433" stroke-opacity="0.3" stroke-width="3.33296" stroke-linecap="round"/>
</svg>
