<svg width="22" height="20" viewBox="0 0 22 20" fill="none" xmlns="http://www.w3.org/2000/svg">
<path d="M9.92023 0.86795C10.0303 0.679109 10.1879 0.522424 10.3774 0.413523C10.5669 0.304623 10.7817 0.247314 11.0002 0.247314C11.2188 0.247314 11.4335 0.304623 11.623 0.413523C11.8125 0.522424 11.9702 0.679109 12.0802 0.86795L14.8752 5.66595L20.3032 6.84195C20.5167 6.88835 20.7144 6.9899 20.8764 7.13648C21.0384 7.28307 21.1592 7.46956 21.2267 7.67737C21.2942 7.88519 21.306 8.10706 21.261 8.32087C21.216 8.53468 21.1157 8.73296 20.9702 8.89595L17.2702 13.0369L17.8302 18.562C17.8523 18.7795 17.817 18.9991 17.7277 19.1987C17.6384 19.3983 17.4983 19.571 17.3214 19.6995C17.1444 19.828 16.9369 19.9079 16.7195 19.9312C16.502 19.9544 16.2823 19.9202 16.0822 19.832L11.0002 17.5919L5.91823 19.832C5.71815 19.9202 5.49842 19.9544 5.28098 19.9312C5.06355 19.9079 4.85601 19.828 4.6791 19.6995C4.50219 19.571 4.36209 19.3983 4.2728 19.1987C4.1835 18.9991 4.14814 18.7795 4.17023 18.562L4.73023 13.0369L1.03023 8.89695C0.884457 8.73398 0.783985 8.53561 0.738843 8.32167C0.693701 8.10772 0.70547 7.88568 0.772973 7.6777C0.840476 7.46973 0.961353 7.2831 1.12354 7.13645C1.28572 6.98979 1.48353 6.88825 1.69723 6.84195L7.12523 5.66595L9.92023 0.86795Z" fill="#E5730B"/>
</svg>
