<svg width="14" height="14" viewBox="0 0 14 14" fill="none" xmlns="http://www.w3.org/2000/svg">
<path d="M6.27999 0.912048C6.35335 0.786154 6.45845 0.681697 6.58478 0.609097C6.71112 0.536497 6.85428 0.498291 6.99999 0.498291C7.1457 0.498291 7.28886 0.536497 7.4152 0.609097C7.54153 0.681697 7.64663 0.786154 7.71999 0.912048L9.58332 4.11071L13.202 4.89471C13.3443 4.92565 13.4761 4.99335 13.5841 5.09107C13.6921 5.18879 13.7726 5.31312 13.8176 5.45166C13.8626 5.59021 13.8705 5.73812 13.8405 5.88066C13.8105 6.0232 13.7437 6.15539 13.6467 6.26405L11.18 9.02471L11.5533 12.708C11.5681 12.8531 11.5445 12.9994 11.4849 13.1325C11.4254 13.2656 11.332 13.3807 11.2141 13.4664C11.0961 13.5521 10.9578 13.6054 10.8128 13.6209C10.6679 13.6363 10.5214 13.6135 10.388 13.5547L6.99999 12.0614L3.61199 13.5547C3.4786 13.6135 3.33212 13.6363 3.18716 13.6209C3.0422 13.6054 2.90385 13.5521 2.7859 13.4664C2.66796 13.3807 2.57457 13.2656 2.51504 13.1325C2.45551 12.9994 2.43193 12.8531 2.44666 12.708L2.81999 9.02471L0.353323 6.26471C0.256142 6.15606 0.18916 6.02382 0.159066 5.88119C0.128971 5.73856 0.136817 5.59053 0.181819 5.45188C0.226821 5.31323 0.307406 5.18882 0.415527 5.09105C0.523649 4.99328 0.655525 4.92558 0.79799 4.89471L4.41666 4.11071L6.27999 0.912048Z" fill="#E5730B"/>
</svg>
