<svg width="6" height="22" viewBox="0 0 6 22" fill="none" xmlns="http://www.w3.org/2000/svg">
<path d="M3.00033 16.8333C3.61916 16.8333 4.21266 17.0792 4.65024 17.5168C5.08783 17.9543 5.33366 18.5478 5.33366 19.1667C5.33366 19.7855 5.08783 20.379 4.65024 20.8166C4.21266 21.2542 3.61916 21.5 3.00033 21.5C2.38149 21.5 1.788 21.2542 1.35041 20.8166C0.912825 20.379 0.666992 19.7855 0.666992 19.1667C0.666992 18.5478 0.912825 17.9543 1.35041 17.5168C1.788 17.0792 2.38149 16.8333 3.00033 16.8333ZM3.00033 8.66667C3.61916 8.66667 4.21266 8.9125 4.65024 9.35008C5.08783 9.78767 5.33366 10.3812 5.33366 11C5.33366 11.6188 5.08783 12.2123 4.65024 12.6499C4.21266 13.0875 3.61916 13.3333 3.00033 13.3333C2.38149 13.3333 1.788 13.0875 1.35041 12.6499C0.912825 12.2123 0.666992 11.6188 0.666992 11C0.666992 10.3812 0.912825 9.78767 1.35041 9.35008C1.788 8.9125 2.38149 8.66667 3.00033 8.66667ZM3.00033 0.5C3.61916 0.5 4.21266 0.745833 4.65024 1.18342C5.08783 1.621 5.33366 2.21449 5.33366 2.83333C5.33366 3.45217 5.08783 4.04566 4.65024 4.48325C4.21266 4.92083 3.61916 5.16667 3.00033 5.16667C2.38149 5.16667 1.788 4.92083 1.35041 4.48325C0.912825 4.04566 0.666992 3.45217 0.666992 2.83333C0.666992 2.21449 0.912825 1.621 1.35041 1.18342C1.788 0.745833 2.38149 0.5 3.00033 0.5Z" fill="white"/>
</svg>
