<svg width="11" height="10" viewBox="0 0 11 10" fill="none" xmlns="http://www.w3.org/2000/svg">
<path fill-rule="evenodd" clip-rule="evenodd" d="M3.92473 9.7235C4.20891 9.7235 4.45468 9.59293 4.63902 9.30876L9.80031 1.2212C9.91551 1.05223 10.0154 0.844854 10.0154 0.660522C10.0154 0.253456 9.65438 0 9.27803 0C9.0553 0 8.83256 0.130568 8.66359 0.391705L3.88633 7.98771L1.34409 4.80031C1.14439 4.54685 0.93702 4.45468 0.691244 4.45468C0.3149 4.45468 0 4.75422 0 5.16129C0 5.3533 0.0768049 5.56068 0.207373 5.72197L3.17204 9.31644C3.41014 9.60829 3.64055 9.7235 3.92473 9.7235Z" fill="white"/>
</svg>
