<svg width="14" height="14" viewBox="0 0 14 14" fill="none" xmlns="http://www.w3.org/2000/svg">
<path fill-rule="evenodd" clip-rule="evenodd" d="M6.05731 0.39992C6.29331 0.164236 6.60906 0.0255556 6.94228 0.0112396C7.27549 -0.00307642 7.60198 0.108012 7.85731 0.322587L7.94265 0.400587L9.20931 1.66659H11C11.3362 1.66665 11.6601 1.79377 11.9066 2.02248C12.1531 2.25119 12.3041 2.5646 12.3293 2.89992L12.3333 2.99992V4.79059L13.6 6.05725C13.8358 6.29328 13.9746 6.60917 13.989 6.94254C14.0033 7.27592 13.8921 7.60254 13.6773 7.85792L13.5993 7.94259L12.3326 9.20925V10.9999C12.3328 11.3363 12.2057 11.6603 11.977 11.907C11.7483 12.1536 11.4347 12.3047 11.0993 12.3299L11 12.3333H9.20998L7.94331 13.5999C7.70729 13.8358 7.3914 13.9746 7.05802 13.9889C6.72465 14.0032 6.39803 13.892 6.14265 13.6773L6.05798 13.5999L4.79131 12.3333H2.99998C2.6636 12.3334 2.3396 12.2063 2.09295 11.9776C1.84629 11.7489 1.69521 11.4354 1.66998 11.0999L1.66665 10.9999V9.20925L0.39998 7.94259C0.16411 7.70656 0.025312 7.39067 0.0109946 7.0573C-0.00332287 6.72393 0.107881 6.3973 0.322647 6.14192L0.39998 6.05725L1.66665 4.79059V2.99992C1.66671 2.66365 1.79383 2.33982 2.02254 2.09331C2.25125 1.8468 2.56466 1.69581 2.89998 1.67059L2.99998 1.66659H4.79065L6.05731 0.39992ZM9.05265 4.98859L6.22331 7.81792L5.04465 6.63925C4.91955 6.51425 4.74992 6.44406 4.57308 6.44412C4.39623 6.44418 4.22665 6.51449 4.10165 6.63959C3.97664 6.76468 3.90645 6.93431 3.90651 7.11116C3.90657 7.288 3.97689 7.45758 4.10198 7.58259L5.70465 9.18525C5.77275 9.25339 5.8536 9.30743 5.9426 9.34431C6.03159 9.38118 6.12698 9.40016 6.22331 9.40016C6.31964 9.40016 6.41503 9.38118 6.50403 9.34431C6.59302 9.30743 6.67388 9.25339 6.74198 9.18525L9.99531 5.93125C10.1168 5.80552 10.1839 5.63712 10.1824 5.46232C10.1809 5.28752 10.1108 5.12031 9.98719 4.99671C9.86359 4.8731 9.69638 4.80299 9.52158 4.80147C9.34678 4.79995 9.17838 4.86715 9.05265 4.98859Z" fill="#2F6FED"/>
</svg>
