<svg width="33" height="32" viewBox="0 0 33 32" fill="none" xmlns="http://www.w3.org/2000/svg">
<path fill-rule="evenodd" clip-rule="evenodd" d="M3.1665 16.0003V10.667C3.1665 6.89576 3.1665 5.01014 4.33808 3.83857C5.50965 2.66699 7.39527 2.66699 11.1665 2.66699H21.8332C25.6044 2.66699 27.49 2.66699 28.6616 3.83856C29.8332 5.01014 29.8332 6.89576 29.8332 10.667V16.0003C29.8332 19.7716 29.8332 21.6572 28.6616 22.8288C27.7998 23.6906 26.5515 23.9184 24.4505 23.9787C24.4456 22.9976 24.1048 22.0179 23.428 21.2237C23.3897 21.1788 23.3666 21.123 23.3619 21.0641C23.1947 18.9688 21.5308 17.305 19.4355 17.1378C19.3767 17.1331 19.3209 17.11 19.2759 17.0717C17.6761 15.7083 15.3231 15.7083 13.7232 17.0717C13.6783 17.11 13.6225 17.1331 13.5637 17.1378C11.4683 17.305 9.8045 18.9688 9.6373 21.0641C9.6326 21.123 9.60947 21.1788 9.5712 21.2237C8.89443 22.0179 8.55361 22.9976 8.54872 23.9787C6.44797 23.9184 5.19985 23.6905 4.33808 22.8288C3.1665 21.6572 3.1665 19.7716 3.1665 16.0003ZM11.4998 8.00033C11.4998 7.44804 11.9476 7.00033 12.4998 7.00033H20.4998C21.0521 7.00033 21.4998 7.44804 21.4998 8.00033C21.4998 8.55261 21.0521 9.00033 20.4998 9.00033H12.4998C11.9476 9.00033 11.4998 8.55261 11.4998 8.00033ZM9.83317 11.667C9.28089 11.667 8.83317 12.1147 8.83317 12.667C8.83317 13.2193 9.28089 13.667 9.83317 13.667H23.1665C23.7188 13.667 24.1665 13.2193 24.1665 12.667C24.1665 12.1147 23.7188 11.667 23.1665 11.667H9.83317Z" fill="#1D2433" fill-opacity="0.8"/>
<path fill-rule="evenodd" clip-rule="evenodd" d="M17.9787 18.5939C17.1264 17.8676 15.8728 17.8676 15.0205 18.5939C14.6552 18.9052 14.2011 19.0933 13.7228 19.1314C12.6065 19.2205 11.72 20.107 11.631 21.2232C11.5928 21.7016 11.4047 22.1557 11.0934 22.521C10.3671 23.3733 10.3671 24.6269 11.0934 25.4792C11.4047 25.8444 11.5928 26.2986 11.631 26.7769C11.72 27.8932 12.6065 28.7796 13.7228 28.8687C14.2011 28.9069 14.6552 29.095 15.0205 29.4062C15.8728 30.1326 17.1264 30.1326 17.9787 29.4062C18.344 29.095 18.7981 28.9069 19.2764 28.8687C20.3927 28.7796 21.2791 27.8932 21.3682 26.7769C21.4064 26.2986 21.5945 25.8444 21.9058 25.4792C22.6321 24.6269 22.6321 23.3733 21.9058 22.521C21.5945 22.1557 21.4064 21.7016 21.3682 21.2232C21.2791 20.107 20.3927 19.2205 19.2764 19.1314C18.7981 19.0933 18.344 18.9052 17.9787 18.5939ZM19.1822 23.3981C19.5859 23.0212 19.6077 22.3884 19.2309 21.9847C18.8541 21.5809 18.2213 21.5591 17.8175 21.9359L15.6427 23.9658L15.1822 23.5359C14.7784 23.1591 14.1456 23.1809 13.7688 23.5847C13.392 23.9884 13.4138 24.6212 13.8175 24.9981L14.9604 26.0647C15.3446 26.4233 15.9408 26.4233 16.325 26.0647L19.1822 23.3981Z" fill="#1D2433" fill-opacity="0.8"/>
</svg>
