<svg width="14" height="12" viewBox="0 0 14 12" fill="none" xmlns="http://www.w3.org/2000/svg">
<path d="M1.66683 0.666748C1.31321 0.666748 0.974069 0.807224 0.72402 1.05727C0.473972 1.30732 0.333496 1.64646 0.333496 2.00008V10.0001C0.333496 10.3537 0.473972 10.6928 0.72402 10.9429C0.974069 11.1929 1.31321 11.3334 1.66683 11.3334H9.66683C10.0205 11.3334 10.3596 11.1929 10.6096 10.9429C10.8597 10.6928 11.0002 10.3537 11.0002 10.0001V8.52675L12.3962 9.38675C12.5223 9.46453 12.6669 9.50725 12.8151 9.51052C12.9633 9.51379 13.1096 9.47749 13.2391 9.40535C13.3686 9.33322 13.4765 9.22786 13.5516 9.10013C13.6268 8.97241 13.6666 8.82695 13.6668 8.67875V3.32275C13.6669 3.17437 13.6274 3.02866 13.5524 2.90065C13.4774 2.77265 13.3695 2.66701 13.24 2.59463C13.1105 2.52226 12.964 2.48578 12.8156 2.48896C12.6673 2.49215 12.5225 2.53488 12.3962 2.61275L11.0002 3.47341V2.00008C11.0002 1.64646 10.8597 1.30732 10.6096 1.05727C10.3596 0.807224 10.0205 0.666748 9.66683 0.666748H1.66683Z" fill="#1D2433" fill-opacity="0.8"/>
</svg>
