<svg width="28" height="29" viewBox="0 0 28 29" fill="none" xmlns="http://www.w3.org/2000/svg">
<g clip-path="url(#clip0_290_39338)">
<path fill-rule="evenodd" clip-rule="evenodd" d="M2.3335 8.66675C2.3335 7.73849 2.70225 6.84825 3.35862 6.19187C4.015 5.5355 4.90524 5.16675 5.8335 5.16675H22.1668C23.0951 5.16675 23.9853 5.5355 24.6417 6.19187C25.2981 6.84825 25.6668 7.73849 25.6668 8.66675V20.3334C25.6668 21.2617 25.2981 22.1519 24.6417 22.8083C23.9853 23.4647 23.0951 23.8334 22.1668 23.8334H5.8335C4.90524 23.8334 4.015 23.4647 3.35862 22.8083C2.70225 22.1519 2.3335 21.2617 2.3335 20.3334V8.66675ZM5.8335 8.66675C5.52408 8.66675 5.22733 8.78966 5.00854 9.00846C4.78975 9.22725 4.66683 9.524 4.66683 9.83341C4.66683 10.1428 4.78975 10.4396 5.00854 10.6584C5.22733 10.8772 5.52408 11.0001 5.8335 11.0001H22.1668C22.4762 11.0001 22.773 10.8772 22.9918 10.6584C23.2106 10.4396 23.3335 10.1428 23.3335 9.83341C23.3335 9.524 23.2106 9.22725 22.9918 9.00846C22.773 8.78966 22.4762 8.66675 22.1668 8.66675H5.8335ZM4.66683 15.6667C4.66683 15.3573 4.78975 15.0606 5.00854 14.8418C5.22733 14.623 5.52408 14.5001 5.8335 14.5001H10.5002C10.5328 14.5001 10.5655 14.5012 10.5982 14.5047C10.8559 14.4822 11.1138 14.546 11.3313 14.686C11.5488 14.826 11.7136 15.0343 11.7998 15.2782C11.961 15.7329 12.2591 16.1265 12.6531 16.4049C13.0472 16.6833 13.5177 16.8327 14.0002 16.8327C14.4826 16.8327 14.9532 16.6833 15.3472 16.4049C15.7412 16.1265 16.0393 15.7329 16.2005 15.2782C16.2867 15.0343 16.4515 14.826 16.669 14.686C16.8866 14.546 17.1445 14.4822 17.4022 14.5047C17.4337 14.5001 17.4675 14.5001 17.5002 14.5001H22.1668C22.4762 14.5001 22.773 14.623 22.9918 14.8418C23.2106 15.0606 23.3335 15.3573 23.3335 15.6667C23.3335 15.9762 23.2106 16.2729 22.9918 16.4917C22.773 16.7105 22.4762 16.8334 22.1668 16.8334H18.0415C17.6321 17.543 17.0431 18.1322 16.3336 18.5418C15.6242 18.9514 14.8194 19.167 14.0002 19.1667C13.1808 19.1672 12.3757 18.9517 11.6661 18.5421C10.9564 18.1325 10.3672 17.5432 9.95766 16.8334H5.8335C5.52408 16.8334 5.22733 16.7105 5.00854 16.4917C4.78975 16.2729 4.66683 15.9762 4.66683 15.6667Z" fill="white"/>
</g>
<defs>
<clipPath id="clip0_290_39338">
<rect width="28" height="28" fill="white" transform="translate(0 0.5)"/>
</clipPath>
</defs>
</svg>
