<svg width="21" height="20" viewBox="0 0 21 20" fill="none" xmlns="http://www.w3.org/2000/svg">
<g clip-path="url(#clip0_290_40137)">
<path fill-rule="evenodd" clip-rule="evenodd" d="M10.5 1.66675C10.2789 1.66675 10.067 1.75455 9.9107 1.91083C9.75442 2.06711 9.66663 2.27907 9.66663 2.50008V10.0001C9.66663 10.2211 9.75442 10.4331 9.9107 10.5893C10.067 10.7456 10.2789 10.8334 10.5 10.8334H18C18.221 10.8334 18.4329 10.7456 18.5892 10.5893C18.7455 10.4331 18.8333 10.2211 18.8333 10.0001C18.8333 5.39758 15.1025 1.66675 10.5 1.66675ZM11.3333 9.16675V3.38508C12.802 3.57057 14.1672 4.23936 15.2139 5.28611C16.2607 6.33286 16.9295 7.69809 17.115 9.16675H11.3333ZM7.90829 3.85591C8.11185 3.76972 8.27282 3.60619 8.35581 3.40131C8.43879 3.19643 8.43699 2.96697 8.35079 2.76341C8.2646 2.55986 8.10107 2.39889 7.89619 2.3159C7.6913 2.23292 7.46185 2.23472 7.25829 2.32091C5.74873 2.95869 4.46065 4.02727 3.55505 5.39308C2.64945 6.75888 2.16652 8.36132 2.16663 10.0001C2.16663 14.6026 5.89746 18.3334 10.5 18.3334C13.9541 18.3334 16.9158 16.2317 18.1791 13.2417C18.2653 13.0382 18.2671 12.8087 18.1841 12.6039C18.1012 12.399 17.9402 12.2354 17.7366 12.1492C17.5331 12.0631 17.3036 12.0612 17.0987 12.1442C16.8938 12.2272 16.7303 12.3882 16.6441 12.5917C16.0454 14.0088 14.9751 15.1753 13.6146 15.8934C12.2541 16.6116 10.6872 16.8373 9.17939 16.5322C7.67156 16.2272 6.31558 15.4102 5.34124 14.2197C4.36691 13.0292 3.83416 11.5385 3.83329 10.0001C3.83325 8.68876 4.21979 7.40652 4.94458 6.3137C5.66937 5.22089 6.70024 4.36599 7.90829 3.85591Z" fill="#1D2433" fill-opacity="0.8"/>
</g>
<defs>
<clipPath id="clip0_290_40137">
<rect width="20" height="20" fill="white" transform="translate(0.5)"/>
</clipPath>
</defs>
</svg>
