<svg width="28" height="28" viewBox="0 0 28 28" fill="none" xmlns="http://www.w3.org/2000/svg">
<rect x="1" y="1" width="26" height="26" rx="13" fill="#2F6FED"/>
<rect x="1" y="1" width="26" height="26" rx="13" stroke="white" stroke-width="2"/>
<path d="M19.5385 11.0537L19.5382 11.0539L19.4211 11.1712L16.8282 8.57832L16.9462 8.46018C16.9462 8.46012 16.9463 8.46007 16.9464 8.46001C17.2276 8.17891 17.609 8.021 18.0067 8.021C18.4044 8.021 18.7859 8.17897 19.0672 8.46018L19.5382 8.93187L19.5385 8.93215C19.6778 9.07144 19.7883 9.23681 19.8637 9.41882C19.9391 9.60082 19.9779 9.7959 19.9779 9.9929C19.9779 10.1899 19.9391 10.385 19.8637 10.567C19.7883 10.749 19.6778 10.9144 19.5385 11.0537ZM15.178 10.2284L17.7709 12.8212L12.0638 18.5283L12.0637 18.5284C11.9975 18.5947 11.914 18.641 11.8227 18.6621L8.85229 19.3474L8.85177 19.3475C8.8242 19.3539 8.79546 19.3531 8.76826 19.3454C8.74106 19.3376 8.71628 19.323 8.69628 19.303C8.67627 19.283 8.66168 19.2582 8.6539 19.231C8.64611 19.2038 8.64538 19.1751 8.65177 19.1475L8.65186 19.1471L9.33786 16.1771L9.33793 16.1768C9.35898 16.0854 9.4053 16.0017 9.4716 15.9354L15.178 10.2284Z" fill="white" stroke="white"/>
</svg>
