<svg width="16" height="20" viewBox="0 0 16 20" fill="none" xmlns="http://www.w3.org/2000/svg">
<path d="M15.0704 10.01C15.2006 10.0284 15.3259 10.0723 15.4391 10.1392C15.5523 10.206 15.6512 10.2946 15.7302 10.3997C15.8091 10.5049 15.8666 10.6245 15.8992 10.7519C15.9319 10.8793 15.9391 11.0118 15.9204 11.142C15.6698 12.876 14.8571 14.4799 13.607 15.7075C12.357 16.9352 10.7387 17.7187 9.00043 17.938V19C9.00043 19.2652 8.89507 19.5196 8.70753 19.7071C8.52 19.8946 8.26564 20 8.00043 20C7.73521 20 7.48085 19.8946 7.29332 19.7071C7.10578 19.5196 7.00043 19.2652 7.00043 19V17.938C5.2624 17.7184 3.6444 16.9347 2.39459 15.7071C1.14479 14.4795 0.332187 12.8758 0.0814251 11.142C0.0437644 10.8794 0.111949 10.6127 0.27098 10.4004C0.430011 10.1881 0.666861 10.0477 0.929425 10.01C1.19199 9.97234 1.45876 10.0405 1.67105 10.1996C1.88334 10.3586 2.02376 10.5954 2.06143 10.858C2.26824 12.2856 2.98237 13.5909 4.07304 14.535C5.16371 15.479 6.55793 15.9986 8.00043 15.9986C9.44292 15.9986 10.8371 15.479 11.9278 14.535C13.0185 13.5909 13.7326 12.2856 13.9394 10.858C13.9581 10.728 14.0021 10.6029 14.0691 10.4899C14.1361 10.3769 14.2246 10.2783 14.3298 10.1995C14.4349 10.1208 14.5545 10.0635 14.6817 10.031C14.809 9.99846 14.9404 9.99133 15.0704 10.01ZM8.00043 0C9.32651 0 10.5983 0.526784 11.536 1.46447C12.4736 2.40215 13.0004 3.67392 13.0004 5V10C13.0004 11.3261 12.4736 12.5979 11.536 13.5355C10.5983 14.4732 9.32651 15 8.00043 15C6.67434 15 5.40257 14.4732 4.46489 13.5355C3.52721 12.5979 3.00043 11.3261 3.00043 10V5C3.00043 3.67392 3.52721 2.40215 4.46489 1.46447C5.40257 0.526784 6.67434 0 8.00043 0Z" fill="white"/>
</svg>
