<svg width="28" height="28" viewBox="0 0 28 28" fill="none" xmlns="http://www.w3.org/2000/svg">
<rect width="28" height="28" rx="14" fill="#E02D3C"/>
<path d="M14 7.66675C14.2652 7.66675 14.5196 7.7721 14.7071 7.95964C14.8946 8.14718 15 8.40153 15 8.66675C15 8.93196 14.8946 9.18632 14.7071 9.37385C14.5196 9.56139 14.2652 9.66675 14 9.66675H10.6666C10.5782 9.66675 10.4935 9.70187 10.4309 9.76438C10.3684 9.82689 10.3333 9.91168 10.3333 10.0001V18.0001C10.3333 18.0885 10.3684 18.1733 10.4309 18.2358C10.4935 18.2983 10.5782 18.3334 10.6666 18.3334H13.6666C13.9319 18.3334 14.1862 18.4388 14.3738 18.6263C14.5613 18.8138 14.6666 19.0682 14.6666 19.3334C14.6666 19.5986 14.5613 19.853 14.3738 20.0405C14.1862 20.2281 13.9319 20.3334 13.6666 20.3334H10.6666C10.0478 20.3334 9.45432 20.0876 9.01673 19.65C8.57915 19.2124 8.33331 18.6189 8.33331 18.0001V10.0001C8.33331 9.38124 8.57915 8.78775 9.01673 8.35017C9.45432 7.91258 10.0478 7.66675 10.6666 7.66675H14ZM18.04 11.4067L19.926 13.2934C20.1132 13.4809 20.2184 13.7351 20.2184 14.0001C20.2184 14.2651 20.1132 14.5192 19.926 14.7067L18.0406 16.5934C17.8531 16.781 17.5986 16.8864 17.3333 16.8864C17.068 16.8864 16.8136 16.781 16.626 16.5934C16.4384 16.4058 16.333 16.1514 16.333 15.8861C16.333 15.6208 16.4384 15.3663 16.626 15.1787L16.8046 15.0001H14C13.7348 15.0001 13.4804 14.8947 13.2929 14.7072C13.1053 14.5197 13 14.2653 13 14.0001C13 13.7349 13.1053 13.4805 13.2929 13.293C13.4804 13.1054 13.7348 13.0001 14 13.0001H16.8046L16.626 12.8214C16.5331 12.7285 16.4595 12.6183 16.4093 12.4969C16.359 12.3756 16.3332 12.2455 16.3332 12.1142C16.3333 11.9828 16.3592 11.8528 16.4094 11.7315C16.4597 11.6102 16.5334 11.4999 16.6263 11.4071C16.7192 11.3142 16.8295 11.2406 16.9508 11.1904C17.0722 11.1401 17.2022 11.1143 17.3335 11.1143C17.4649 11.1144 17.5949 11.1403 17.7162 11.1905C17.8376 11.2408 17.9478 11.3145 18.0406 11.4074L18.04 11.4067Z" fill="white"/>
</svg>
