<svg width="19" height="18" viewBox="0 0 19 18" fill="none" xmlns="http://www.w3.org/2000/svg">
<path fill-rule="evenodd" clip-rule="evenodd" d="M9.49998 11.2988L15.2449 17.0437C15.5497 17.3486 15.9632 17.5199 16.3943 17.5199C16.8254 17.5199 17.2389 17.3486 17.5437 17.0437C17.8486 16.7389 18.0198 16.3254 18.0198 15.8943C18.0198 15.4632 17.8486 15.0498 17.5437 14.7449L11.7966 9L17.5426 3.25508C17.6935 3.10414 17.8132 2.92496 17.8948 2.72777C17.9764 2.53058 18.0184 2.31924 18.0184 2.10582C18.0183 1.89241 17.9762 1.68109 17.8945 1.48394C17.8128 1.28679 17.693 1.10766 17.5421 0.956789C17.3912 0.805917 17.212 0.686252 17.0148 0.604628C16.8176 0.523003 16.6063 0.481018 16.3928 0.481068C16.1794 0.481118 15.9681 0.523203 15.771 0.604921C15.5738 0.686638 15.3947 0.806387 15.2438 0.957331L9.49998 6.70225L3.75506 0.957331C3.60523 0.802058 3.42598 0.678179 3.22777 0.592922C3.02955 0.507665 2.81634 0.462737 2.60057 0.460762C2.38481 0.458786 2.17081 0.4998 1.97107 0.581412C1.77132 0.663025 1.58983 0.7836 1.43719 0.936103C1.28454 1.08861 1.16379 1.26998 1.08199 1.46965C1.00019 1.66932 0.958976 1.88328 0.960748 2.09904C0.962521 2.31481 1.00725 2.52806 1.09232 2.72636C1.17739 2.92465 1.3011 3.10402 1.45623 3.254L7.20331 9L1.45731 14.746C1.30218 14.896 1.17847 15.0753 1.0934 15.2736C1.00833 15.4719 0.963604 15.6852 0.961831 15.901C0.960059 16.1167 1.00128 16.3307 1.08308 16.5303C1.16488 16.73 1.28562 16.9114 1.43827 17.0639C1.59092 17.2164 1.77241 17.337 1.97215 17.4186C2.1719 17.5002 2.38589 17.5412 2.60166 17.5392C2.81742 17.5373 3.03063 17.4923 3.22885 17.4071C3.42706 17.3218 3.60632 17.1979 3.75614 17.0427L9.49998 11.2999V11.2988Z" fill="white"/>
</svg>
